<?xml version="1.0" encoding="UTF-8" standalone="no"?>
<!-- Created with Inkscape (http://www.inkscape.org/) -->

<svg
   xmlns:dc="http://purl.org/dc/elements/1.1/"
   xmlns:cc="http://creativecommons.org/ns#"
   xmlns:rdf="http://www.w3.org/1999/02/22-rdf-syntax-ns#"
   xmlns:svg="http://www.w3.org/2000/svg"
   xmlns="http://www.w3.org/2000/svg"
   xmlns:sodipodi="http://sodipodi.sourceforge.net/DTD/sodipodi-0.dtd"
   xmlns:inkscape="http://www.inkscape.org/namespaces/inkscape"
   width="210mm"
   height="297mm"
   viewBox="0 0 744.09448819 1052.3622047"
   id="svg2"
   version="1.1"
   inkscape:version="0.91 r13725"
   sodipodi:docname="banana.svg">
  <defs
     id="defs4" />
  <sodipodi:namedview
     id="base"
     pagecolor="#ffffff"
     bordercolor="#666666"
     borderopacity="1.0"
     inkscape:pageopacity="0.0"
     inkscape:pageshadow="2"
     inkscape:zoom="0.98994949"
     inkscape:cx="332.54637"
     inkscape:cy="593.35668"
     inkscape:document-units="px"
     inkscape:current-layer="layer1"
     showgrid="false"
     inkscape:window-width="1366"
     inkscape:window-height="705"
     inkscape:window-x="-8"
     inkscape:window-y="-8"
     inkscape:window-maximized="1" />
  <metadata
     id="metadata7">
    <rdf:RDF>
      <cc:Work
         rdf:about="">
        <dc:format>image/svg+xml</dc:format>
        <dc:type
           rdf:resource="http://purl.org/dc/dcmitype/StillImage" />
        <dc:title></dc:title>
      </cc:Work>
    </rdf:RDF>
  </metadata>
  <g
     inkscape:label="Layer 1"
     inkscape:groupmode="layer"
     id="layer1">
    <g
       id="g4147"
       transform="matrix(0.60426127,0,0,0.57719386,93.751897,133.88068)"
       clip-path="none"
       inkscape:transform-center-x="-35.355339"
       inkscape:transform-center-y="8.0812211">
      <path
         style="fill:#fdfdfd"
         d="m 127.14281,455.21933 0,-207.85713 251.42857,0 251.42858,0 0,207.85713 0,207.85713 -251.42858,0 -251.42857,0 0,-207.85713 z"
         id="path4163"
         inkscape:connector-curvature="0" />
      <path
         style="fill:#e4d5b0"
         d="m 278.43952,661.9263 c 1.62463,-0.42043 2.57707,-1.3692 2.11655,-2.10842 -0.46053,-0.73921 1.34145,-2.23932 4.00438,-3.33357 2.66294,-1.09424 6.57161,-3.8163 8.68595,-6.04901 3.7877,-3.99975 3.8549,-4.76827 4.56899,-52.24628 0.47876,-31.8299 0.1497,-48.18684 -0.96934,-48.18684 -2.34927,0 -10.73834,9.4657 -27.33046,30.83797 -21.24328,27.36341 -39.35573,44.81722 -44.48295,42.86538 -3.64686,-1.38831 -2.76461,-8.19102 1.42446,-10.98354 7.42726,-4.95117 21.07281,-19.56581 34.01109,-36.42655 7.2371,-9.43114 17.02548,-21.63726 21.75193,-27.12469 15.56141,-18.06684 15.89412,-18.79381 15.89412,-34.7293 0,-13.46764 -0.20996,-14.30175 -3.77143,-14.98254 -18.54668,-3.54529 -23.57015,-5.08262 -29.95722,-9.16775 -17.73658,-11.34419 -23.26183,-24.99089 -23.26183,-57.4539 0,-22.80635 2.10895,-28.36975 19.35214,-51.05095 17.55126,-23.08642 23.74977,-26.22731 51.88596,-26.29154 16.26369,-0.0371 21.53727,1.89114 30.94139,11.31356 6.02599,6.03773 18.50623,21.88959 18.50623,23.50582 0,0.72076 1.32,4.20792 2.93333,7.74925 2.0054,4.40193 2.93334,10.63134 2.93334,19.69196 l 0,13.25319 6.35568,1.04633 c 5.15477,0.84864 7.70439,0.19783 13.49351,-3.44432 8.89888,-5.59861 17.58775,-7.2984 25.92415,-5.0715 7.3075,1.95206 18.02584,10.79743 19.53769,16.12363 1.20125,4.2319 -3.0562,9.20965 -6.69287,7.82522 -3.49102,-1.32897 -3.05625,1.54965 1.00826,6.67574 1.91072,2.40976 4.9544,4.38139 6.76373,4.38139 4.74737,0 11.33778,4.74142 14.18644,10.2063 1.35432,2.59814 5.65292,8.41057 9.55242,12.91651 8.50395,9.82647 21.33765,29.34208 21.33765,32.4472 0,4.1306 -3.6179,5.68399 -25.98095,11.15526 -3.68762,0.9022 -23.67619,2.29877 -44.41905,3.10346 -28.41974,1.1025 -43.38163,2.5136 -60.71058,5.72574 -12.64798,2.34447 -26.36917,4.26267 -30.49156,4.26267 -4.12239,0 -7.84246,0.56122 -8.26684,1.24714 -0.42438,0.68593 -1.0147,25.56643 -1.3118,55.29 -0.51163,51.18291 -0.3684,54.29807 2.70656,58.86542 4.63038,6.87768 4.59608,9.31172 -0.13123,9.31172 -2.2232,0 -4.04217,-0.74829 -4.04217,-1.66286 0,-0.91457 -2.97262,-1.66285 -6.60583,-1.66285 -3.63321,0 -7.07202,0.74828 -7.64179,1.66285 -0.56976,0.91457 -4.57428,1.57606 -8.89892,1.46997 -4.32464,-0.10609 -6.53375,-0.53687 -4.90913,-0.95727 z m 68.65695,-137.7812 c 18.04757,-3.1974 31.96892,-4.44954 56.61777,-5.09233 17.97715,-0.46881 36.45715,-1.61696 41.06667,-2.55145 12.38668,-2.51113 19.27619,-4.81765 19.27619,-6.45339 0,-4.52185 -24.22241,-36.98764 -25.80353,-34.585 -0.1962,0.29817 -1.77161,3.76779 -3.50091,7.71029 -3.62503,8.26447 -8.20351,11.55895 -11.86937,8.54075 -1.32394,-1.09002 -2.40714,-3.81014 -2.40714,-6.04472 0,-5.11744 -2.83275,-10.49564 -5.52818,-10.49564 -1.1318,0 -2.80241,1.68365 -3.71244,3.74143 -2.58744,5.85072 -7.71157,4.65376 -11.62314,-2.71506 -1.88503,-3.55106 -7.32747,-9.76199 -12.09434,-13.80206 -7.83212,-6.63796 -9.18834,-7.21155 -14.07889,-5.95436 -4.76442,1.22476 -5.67518,2.41189 -7.61282,9.92303 -2.79016,10.81574 -11.09645,24.28796 -17.97633,29.15625 -4.40445,3.11666 -8.1928,3.90486 -22.07863,4.59363 l -16.7619,0.83143 -0.48683,13.71857 -0.48684,13.71857 7.5643,0 c 4.16037,0 18.33374,-1.90798 31.49636,-4.23994 z m -2.66587,-39.94417 c 6.98806,-7.35054 7.58552,-11.33957 1.34595,-8.98616 -5.75703,2.17141 -18.65528,1.89611 -25.80266,-0.55072 -3.57296,-1.22318 -7.67373,-4.63876 -10.6873,-8.90162 -4.71704,-6.67247 -4.84726,-7.36769 -3.68489,-19.67317 l 1.20495,-12.75627 7.55015,-4.75007 c 11.0801,-6.9709 24.08114,-10.59546 33.87684,-9.44453 8.15298,0.95792 8.2001,0.93567 8.96462,-4.23185 1.17595,-7.94855 -5.7939,-23.39749 -15.64551,-34.6789 -11.2238,-12.85274 -15.23057,-14.80479 -30.36479,-14.79332 -22.65819,0.0172 -30.65577,4.70721 -46.29343,27.14794 -12.75824,18.30865 -14.04255,22.53905 -13.28095,43.74632 0.81073,22.57549 4.25009,34.7736 11.52435,40.87262 11.76742,9.86623 22.87007,12.44379 54.89267,12.74374 l 20.75448,0.19439 5.64552,-5.9384 z m -46.38617,-81.44505 c -2.82536,-3.37726 -0.15823,-5.8697 10.38351,-9.70346 5.67106,-2.06242 8.08117,-3.95015 8.83193,-6.91762 0.74914,-2.96108 2.17385,-4.08118 5.19106,-4.08118 3.47725,0 4.15855,0.795 4.15855,4.85257 0,7.94424 -1.74843,10.29834 -10.73028,14.44733 -9.96601,4.6036 -14.8363,4.98655 -17.83477,1.40236 z m 39.09369,63.08142 c 0.56662,-0.56211 -0.12991,-2.77851 -1.54786,-4.92535 -4.83196,-7.31585 3.29626,-21.14908 15.00579,-25.538 11.64678,-4.3654 -4.53513,-8.46614 -17.08724,-4.33017 -14.11208,4.65 -16.95647,7.84558 -16.95647,19.04994 0,7.04245 0.78119,10.29126 2.93333,12.19914 3.78155,3.35233 15.4786,5.70099 17.65245,3.54444 z m 13.87217,-12.9763 c 1.78807,-1.29708 2.68971,-2.9152 2.00363,-3.59583 -1.58264,-1.57005 -9.64254,1.98712 -9.64254,4.25565 0,2.42797 3.83942,2.09633 7.63891,-0.65982 z m 20.92202,-5.51257 c -2.26864,-0.42162 -4.96378,-1.9048 -5.98919,-3.296 -1.35286,-1.83543 -3.32545,-2.21107 -7.18949,-1.36913 -5.20804,1.13477 -6.4533,2.54825 -4.20764,4.77602 0.6146,0.60972 5.70602,1.00668 11.31429,0.88213 5.60825,-0.12454 8.34066,-0.5714 6.07203,-0.99302 z"
         id="path4161"
         inkscape:connector-curvature="0" />
      <path
         style="fill:#a2a1a0"
         d="m 278.57948,661.89956 c 1.7016,-0.43512 4.63118,-2.03197 6.51018,-3.54854 12.32554,-9.94814 11.71685,-8.85279 13.13995,-23.64574 1.68468,-17.51167 1.7563,-81.12086 0.0961,-85.31072 -1.06525,-2.68833 -2.31026,-1.91232 -9.33765,5.82 -4.45965,4.90705 -13.79403,16.40476 -20.74304,25.55048 -13.5581,17.84405 -37.4285,42.40285 -41.21427,42.40285 -3.77432,0 -4.50363,-4.84478 -1.19468,-7.93628 17.6009,-16.44423 23.66671,-22.97818 34.8433,-37.53237 7.13304,-9.28867 17.70271,-22.31817 23.48814,-28.95443 14.76148,-16.93237 15.85075,-19.48346 15.27097,-35.76466 l -0.48609,-13.64998 -13.65817,-2.80499 c -31.92577,-6.55661 -43.33231,-23.33895 -43.33231,-63.75442 0,-16.70674 0.4104,-19.12084 4.7371,-27.86512 6.00408,-12.13426 23.40488,-35.08417 30.9027,-40.75754 11.42445,-8.64453 42.78696,-11.63423 53.83855,-5.13227 10.39573,6.11611 23.28111,21.30819 30.26369,35.68138 6.42477,13.22497 6.5186,13.68783 5.05695,24.94287 -0.81912,6.3073 -1.51399,12.02904 -1.54414,12.71497 -0.0944,2.14748 -4.36123,1.37704 -12.7422,-2.30077 l -8.08494,-3.5479 -11.16113,3.5661 c -6.13863,1.96135 -12.33281,4.86741 -13.76483,6.4579 -1.43204,1.59049 -3.13111,7.14804 -3.77572,12.35011 -1.07985,8.71433 -0.83426,9.79339 3.12239,13.71857 7.86841,7.80581 28.57662,5.22582 36.30683,-4.52339 4.39648,-5.54475 9.62777,-5.91714 10.92597,-0.77777 1.87337,7.41628 -9.45133,30.3433 -18.19382,36.83371 -3.82284,2.83807 -7.89256,3.646 -21.77078,4.322 l -17.069,0.83143 -0.48196,15.38143 -0.48193,15.38143 5.70999,0 c 3.14051,0 12.40882,-1.17386 20.59624,-2.60856 36.0534,-6.31776 45.21123,-7.31571 76.06718,-8.28916 30.60099,-0.96542 50.54471,-3.65978 54.24242,-7.32808 2.04616,-2.02988 -7.62295,-18.27701 -17.67806,-29.70468 -9.68855,-11.01105 -11.4215,-11.9968 -11.4215,-6.49686 0,4.99979 -6.80723,15.3502 -10.09548,15.3502 -1.49591,0 -2.80864,-2.37761 -3.43991,-6.23028 -0.95561,-5.83232 -5.52874,-12.89258 -8.3509,-12.89258 -0.68884,0 -2.04126,2.24486 -3.00541,4.98857 -2.17998,6.20381 -4.48235,6.32942 -7.61945,0.41572 -1.33422,-2.51508 -6.25644,-8.28615 -10.93829,-12.82464 -7.22322,-7.00201 -8.51246,-9.19079 -8.51246,-14.45186 0,-3.41005 -0.75429,-6.66255 -1.67619,-7.22779 -3.66535,-2.24728 -1.30016,-7.1056 5.91567,-12.15133 6.49419,-4.54111 9.04407,-5.30867 17.63594,-5.30867 7.94789,0 11.38578,0.88084 16.473,4.22062 11.27179,7.39999 12.64852,17.24855 2.08954,14.94787 -2.88089,-0.62771 -5.23796,-0.72958 -5.23796,-0.22637 0,0.50322 2.40806,4.30409 5.35124,8.4464 4.26632,6.00455 6.34446,7.53148 10.25019,7.53148 3.26134,0 6.23029,1.5286 8.88169,4.57286 13.3526,15.33106 19.78195,23.64248 22.83206,29.51571 1.89983,3.65829 5.29331,9.04782 7.54108,11.97674 6.43337,8.3829 4.80928,10.75019 -10.4582,15.24413 -11.28016,3.32028 -19.32765,4.18445 -51.10283,5.48764 -23.694,0.97178 -44.56864,2.77387 -56.15238,4.84762 -10.14095,1.81545 -24.94699,4.16261 -32.90233,5.21588 l -14.46423,1.91506 -1.03464,50.82217 c -0.56907,27.95221 -1.04191,52.55185 -1.05077,54.66587 -0.008,2.11404 1.94587,7.16497 4.34386,11.22429 l 4.35999,7.38059 -4.34975,0 c -2.39236,0 -4.34975,-0.69787 -4.34975,-1.5508 0,-3.02304 -6.54425,-3.54893 -12.65309,-1.0168 -3.40692,1.41218 -8.93086,2.4808 -12.27542,2.37471 -3.34456,-0.10609 -4.6888,-0.54889 -2.9872,-0.98401 z m 60.61856,-172.49159 c 5.4524,-2.26004 12.5343,-10.97431 12.54803,-15.44034 0.005,-1.50015 -1.12754,-1.60976 -4.29333,-0.41572 -6.25819,2.36045 -21.75248,1.98424 -28.19077,-0.68445 -9.08271,-3.7648 -12.76678,-10.52259 -12.76678,-23.41843 0,-6.09231 0.73707,-12.44317 1.63793,-14.11305 4.45198,-8.25242 32.6772,-18.4902 42.04512,-15.25051 6.72793,2.3267 8.29048,1.32282 8.23166,-5.28857 -0.12689,-14.26461 -12.86956,-35.76676 -27.44239,-46.30664 -5.5431,-4.00907 -8.14325,-4.72807 -17.09845,-4.72807 -16.447,0 -26.9779,2.87705 -34.1897,9.34066 -8.32157,7.45823 -23.14231,28.87177 -27.05741,39.09352 -5.43279,14.1842 -3.08822,44.90709 4.56727,59.84883 3.75784,7.33443 16.78098,14.31236 31.70881,16.98989 18.12154,3.25037 42.91456,3.43417 50.30001,0.37288 z m -40.29108,-87.47291 c -1.43517,-2.30366 2.26279,-6.57697 5.69823,-6.5848 4.09217,-0.009 13.62334,-6.26194 13.62334,-8.93715 0,-3.39086 4.44603,-4.56516 6.76938,-1.78796 1.11039,1.3273 1.52136,4.21008 0.93218,6.53889 -1.84286,7.28414 -23.75446,16.01778 -27.02313,10.77102 z"
         id="path4159"
         inkscape:connector-curvature="0" />
      <path
         style="fill:#d2ab08"
         d="m 280.61364,661.29825 c 2.82039,-0.81304 7.92368,-3.92576 11.34066,-6.91717 6.02916,-5.27826 6.26056,-5.90552 7.83345,-21.23605 1.83643,-17.89902 2.19331,-67.844 0.58001,-81.1708 l -1.06973,-8.83652 -7.41954,7.17366 c -4.08076,3.94551 -14.08741,15.77895 -22.23702,26.29652 -17.24038,22.2498 -21.20061,26.72471 -33.18193,37.49447 -6.04994,5.43814 -9.39918,7.41914 -10.57364,6.25402 -1.17446,-1.16511 1.67926,-4.8086 9.00926,-11.5026 5.9005,-5.38852 17.78379,-18.77674 26.4073,-29.7516 8.6235,-10.97486 20.14734,-25.12878 25.60852,-31.45316 5.46119,-6.32438 10.97032,-13.97026 12.24253,-16.99087 2.90529,-6.89803 3.04933,-27.31511 0.21787,-30.88446 -1.19492,-1.50633 -7.08185,-3.47171 -13.70018,-4.57386 -19.34265,-3.22112 -34.38137,-14.4804 -37.85367,-28.3405 -1.03106,-4.11557 -2.653,-10.7101 -3.60432,-14.65449 -0.95133,-3.94442 -1.46991,-14.08899 -1.15242,-22.54352 0.50472,-13.44018 1.26671,-16.71822 6.06365,-26.08551 3.01752,-5.89249 10.30796,-16.78956 16.20099,-24.21572 13.84917,-17.45218 19.94426,-20.56473 42.70718,-21.80906 19.71846,-1.0779 22.68047,0.2187 38.00043,16.63447 12.85486,13.77431 20.75984,30.66678 19.69497,42.08692 -1.64091,17.59792 -0.76166,16.90887 -14.95789,11.72212 -6.12495,-2.23783 -7.78857,-2.22906 -15.73904,0.083 -4.8896,1.42194 -11.32939,4.01306 -14.31063,5.75804 -4.8786,2.85556 -5.53537,4.18019 -6.56984,13.2511 -1.77856,15.5953 3.71539,21.43549 20.16469,21.43549 9.62483,0 17.64282,-3.36689 21.93357,-9.21029 2.28,-3.10503 4.30999,-4.28638 6.15722,-3.58317 3.82899,1.45764 3.44748,6.15839 -1.37837,16.98371 -9.36315,21.00333 -16.56453,25.64664 -39.86586,25.70466 l -14.66667,0.0366 0,15.84933 c 0,13.31833 0.45036,16.02077 2.82016,16.92292 2.96057,1.12704 16.08612,-0.5814 46.34092,-6.03181 11.696,-2.10704 29.87803,-3.63437 51.12381,-4.29449 30.71765,-0.95443 53.03163,-3.77363 58.93393,-7.44585 2.12572,-1.32253 1.75357,-2.93299 -2.51428,-10.88042 -2.7551,-5.13046 -9.34384,-14.32957 -14.64161,-20.44246 -5.29778,-6.1129 -9.63493,-11.67557 -9.63809,-12.3615 -0.003,-0.68593 -1.13722,-1.24714 -2.52007,-1.24714 -1.71788,0 -2.51627,1.71181 -2.52056,5.40428 -0.007,6.1274 -5.8969,16.9006 -8.40049,15.3656 -0.90771,-0.55653 -1.65038,-2.67193 -1.65038,-4.70088 0,-5.36105 -6.56985,-14.30504 -10.56339,-14.38069 -0.73938,-0.0133 -2.13317,2.2194 -3.0973,4.96311 -2.09601,5.96476 -6.00029,6.52787 -7.38244,1.06477 -0.54599,-2.15811 -4.70894,-7.55505 -9.25098,-11.99321 -6.02212,-5.88439 -8.25827,-9.34039 -8.25827,-12.76326 0,-2.58164 -1.17334,-6.47038 -2.60743,-8.64165 -2.43284,-3.68346 -2.35505,-4.18102 1.16193,-7.43154 5.75342,-5.31749 16.91298,-10.12082 23.5137,-10.12082 8.80587,0 25.91426,13.37065 22.03394,17.2201 -0.57037,0.56584 -3.93812,0.56858 -7.48388,0.007 -3.54577,-0.56302 -6.44683,-0.58429 -6.44683,-0.0478 0,2.93276 14.35876,19.46346 16.62697,19.14201 5.262,-0.74574 9.90384,2.16211 14.43867,9.04496 2.54169,3.85774 7.2243,10.00722 10.40577,13.66551 3.18148,3.65828 9.08469,11.88943 13.11822,18.29143 8.80555,13.97609 8.91304,13.82171 -13.05404,18.74876 -11.50941,2.58148 -24.05509,3.74745 -48.24036,4.48334 -24.84233,0.75589 -39.52353,2.15453 -61.18095,5.8286 -15.67238,2.65874 -31.13524,5.06475 -34.3619,5.34668 l -5.86667,0.51261 -1.08158,55.70571 c -1.05898,54.54113 -1.00826,55.82739 2.4258,61.52571 1.92906,3.201 4.30149,6.36976 5.27205,7.04169 0.97179,0.67276 0.003,1.23311 -2.15712,1.24714 -2.15699,0.0133 -5.324,-1.65818 -7.03782,-3.71597 l -3.11604,-3.74143 -6.70377,3.74143 c -3.94473,2.20157 -9.32657,3.6797 -13.07646,3.59146 l -6.37268,-0.14998 5.12797,-1.47826 z M 342.3158,489.60218 c 8.30504,-5.39839 15.70846,-22.00561 8.17939,-18.3479 -1.61333,0.78378 -9.61712,1.42505 -17.78619,1.42505 l -14.85286,0 -4.84238,-5.75719 c -4.3652,-5.18986 -4.84238,-6.95136 -4.84238,-17.87572 0,-13.12074 1.61719,-16.13796 11.22515,-20.94287 9.21901,-4.6104 23.78508,-8.23077 28.51705,-7.08788 10.45076,2.52415 11.34668,2.19494 11.89666,-4.37148 0.48938,-5.84302 -2.60405,-17.53177 -6.67642,-25.22731 -3.434,-6.48918 -18.26749,-22.47096 -24.27526,-26.15444 -5.30379,-3.25183 -7.47283,-3.5351 -20.60573,-2.69103 -8.07289,0.51886 -17.23947,2.01101 -20.37018,3.3159 -9.47358,3.94858 -29.14302,27.90316 -35.70529,43.48395 -5.53415,13.13974 -2.57405,53.93328 4.71428,64.96822 4.8346,7.31983 18.0758,13.96048 32.949,16.5244 19.34144,3.3342 46.40581,2.68346 52.47516,-1.2617 z m -42.52537,-89.30932 c 0,-0.94328 1.32,-2.12914 2.93333,-2.63526 9.53165,-2.99017 15.35431,-6.47087 17.06855,-10.20331 1.35643,-2.95333 2.48217,-3.7149 3.70222,-2.50455 3.06098,3.03661 0.79388,7.61912 -6.11258,12.35546 -6.62729,4.54491 -17.59152,6.40702 -17.59152,2.98766 z"
         id="path4157"
         inkscape:connector-curvature="0" />
      <path
         style="fill:#b48f18"
         d="m 280.61364,661.29825 c 2.82039,-0.81304 7.92368,-3.92576 11.34066,-6.91717 6.02916,-5.27826 6.26056,-5.90552 7.83345,-21.23605 1.83643,-17.89902 2.19331,-67.844 0.58001,-81.1708 l -1.06973,-8.83652 -7.41954,7.17366 c -4.08076,3.94551 -14.08741,15.77895 -22.23702,26.29652 -17.24038,22.2498 -21.20061,26.72471 -33.18193,37.49447 -6.04994,5.43814 -9.39918,7.41914 -10.57364,6.25402 -1.17446,-1.16511 1.67926,-4.8086 9.00926,-11.5026 5.9005,-5.38852 17.78379,-18.77674 26.4073,-29.7516 8.6235,-10.97486 20.14734,-25.12878 25.60852,-31.45316 5.46119,-6.32438 10.97032,-13.97026 12.24253,-16.99087 2.90529,-6.89803 3.04933,-27.31511 0.21787,-30.88446 -1.19492,-1.50633 -7.08185,-3.47171 -13.70018,-4.57386 -19.34265,-3.22112 -34.38137,-14.4804 -37.85367,-28.3405 -1.03106,-4.11557 -2.653,-10.7101 -3.60432,-14.65449 -0.95133,-3.94442 -1.46991,-14.08899 -1.15242,-22.54352 0.50472,-13.44018 1.26671,-16.71822 6.06365,-26.08551 3.01752,-5.89249 10.30796,-16.78956 16.20099,-24.21572 13.84917,-17.45218 19.94426,-20.56473 42.70718,-21.80906 19.71846,-1.0779 22.68047,0.2187 38.00043,16.63447 12.85486,13.77431 20.75984,30.66678 19.69497,42.08692 -1.64091,17.59792 -0.76166,16.90887 -14.95789,11.72212 -6.12495,-2.23783 -7.78857,-2.22906 -15.73904,0.083 -4.8896,1.42194 -11.32939,4.01306 -14.31063,5.75804 -4.8786,2.85556 -5.53537,4.18019 -6.56984,13.2511 -1.77856,15.5953 3.71539,21.43549 20.16469,21.43549 9.62483,0 17.64282,-3.36689 21.93357,-9.21029 2.28,-3.10503 4.30999,-4.28638 6.15722,-3.58317 3.82899,1.45764 3.44748,6.15839 -1.37837,16.98371 -9.36315,21.00333 -16.56453,25.64664 -39.86586,25.70466 l -14.66667,0.0366 0,15.84933 c 0,13.31833 0.45036,16.02077 2.82016,16.92292 2.96057,1.12704 16.08612,-0.5814 46.34092,-6.03181 11.696,-2.10704 29.87803,-3.63437 51.12381,-4.29449 30.71765,-0.95443 53.03163,-3.77363 58.93393,-7.44585 2.12572,-1.32253 1.75357,-2.93299 -2.51428,-10.88042 -2.7551,-5.13046 -9.34384,-14.32957 -14.64161,-20.44246 -5.29778,-6.1129 -9.63493,-11.67557 -9.63809,-12.3615 -0.003,-0.68593 -1.13722,-1.24714 -2.52007,-1.24714 -1.71788,0 -2.51627,1.71181 -2.52056,5.40428 -0.007,6.1274 -5.8969,16.9006 -8.40049,15.3656 -0.90771,-0.55653 -1.65038,-2.67193 -1.65038,-4.70088 0,-5.36105 -6.56985,-14.30504 -10.56339,-14.38069 -0.73938,-0.0133 -2.13317,2.2194 -3.0973,4.96311 -2.09601,5.96476 -6.00029,6.52787 -7.38244,1.06477 -0.54599,-2.15811 -4.70894,-7.55505 -9.25098,-11.99321 -6.02212,-5.88439 -8.25827,-9.34039 -8.25827,-12.76326 0,-2.58164 -1.17334,-6.47038 -2.60743,-8.64165 -2.43284,-3.68346 -2.35505,-4.18102 1.16193,-7.43154 5.75342,-5.31749 16.91298,-10.12082 23.5137,-10.12082 8.80587,0 25.91426,13.37065 22.03394,17.2201 -0.57037,0.56584 -3.93812,0.56858 -7.48388,0.007 -3.54577,-0.56302 -6.44683,-0.58429 -6.44683,-0.0478 0,2.93276 14.35876,19.46346 16.62697,19.14201 5.262,-0.74574 9.90384,2.16211 14.43867,9.04496 2.54169,3.85774 7.2243,10.00722 10.40577,13.66551 3.18148,3.65828 9.08469,11.88943 13.11822,18.29143 8.80555,13.97609 8.91304,13.82171 -13.05404,18.74876 -11.50941,2.58148 -24.05509,3.74745 -48.24036,4.48334 -24.84233,0.75589 -39.52353,2.15453 -61.18095,5.8286 -15.67238,2.65874 -31.13524,5.06475 -34.3619,5.34668 l -5.86667,0.51261 -1.08158,55.70571 c -1.05898,54.54113 -1.00826,55.82739 2.4258,61.52571 1.92906,3.201 4.30149,6.36976 5.27205,7.04169 0.97179,0.67276 0.003,1.23311 -2.15712,1.24714 -2.15699,0.0133 -5.324,-1.65818 -7.03782,-3.71597 l -3.11604,-3.74143 -6.70377,3.74143 c -3.94473,2.20157 -9.32657,3.6797 -13.07646,3.59146 l -6.37268,-0.14998 5.12797,-1.47826 z M 342.3158,489.60218 c 8.30504,-5.39839 15.70846,-22.00561 8.17939,-18.3479 -1.61333,0.78378 -9.61712,1.42505 -17.78619,1.42505 l -14.85286,0 -4.84238,-5.75719 c -4.3652,-5.18986 -4.84238,-6.95136 -4.84238,-17.87572 0,-13.12074 1.61719,-16.13796 11.22515,-20.94287 9.21901,-4.6104 23.78508,-8.23077 28.51705,-7.08788 10.45076,2.52415 11.34668,2.19494 11.89666,-4.37148 0.48938,-5.84302 -2.60405,-17.53177 -6.67642,-25.22731 -3.434,-6.48918 -18.26749,-22.47096 -24.27526,-26.15444 -5.30379,-3.25183 -7.47283,-3.5351 -20.60573,-2.69103 -8.07289,0.51886 -17.23947,2.01101 -20.37018,3.3159 -9.47358,3.94858 -29.14302,27.90316 -35.70529,43.48395 -5.53415,13.13974 -2.57405,53.93328 4.71428,64.96822 4.8346,7.31983 18.0758,13.96048 32.949,16.5244 19.34144,3.3342 46.40581,2.68346 52.47516,-1.2617 z m -42.52537,-89.30932 c 0,-0.94328 1.32,-2.12914 2.93333,-2.63526 9.53165,-2.99017 15.35431,-6.47087 17.06855,-10.20331 1.35643,-2.95333 2.48217,-3.7149 3.70222,-2.50455 3.06098,3.03661 0.79388,7.61912 -6.11258,12.35546 -6.62729,4.54491 -17.59152,6.40702 -17.59152,2.98766 z m 132.40278,73.53547 c -0.008,-2.47463 -2.44394,-7.60905 -5.44762,-11.48705 -2.98724,-3.8568 -6.71115,-8.80855 -8.27537,-11.00391 -2.9365,-4.12137 -18.62337,-10.32912 -21.55672,-8.53062 -2.86191,1.75468 0.26474,4.38278 10.91205,9.1721 5.69838,2.56321 11.18582,5.65041 12.19434,6.86044 1.63298,1.95924 5.01357,9.96129 7.82338,18.51829 1.39459,4.2471 4.36945,1.83351 4.34994,-3.52925 z m -23.4504,-6.19607 c 0,-7.59493 -3.97579,-13.47538 -11.78182,-17.42604 -6.74097,-3.41162 -8.33246,-2.96699 -8.33246,2.32796 0,3.20069 15.93133,20.97658 18.79988,20.97658 0.72293,0 1.3144,-2.64533 1.3144,-5.8785 z m 13.40953,0.98265 c 0,-0.86357 -1.83325,-3.66965 -4.07388,-6.23572 -3.37364,-3.86363 -4.45404,-4.28842 -6.28572,-2.47133 -1.83165,1.8171 -1.40345,2.88891 2.49116,6.23571 4.90626,4.21614 7.86844,5.14651 7.86844,2.47134 z m -11.40852,-28.517 c 8.44362,0.0397 14.7609,-0.61933 14.7609,-1.53988 0,-0.8851 -3.13032,-3.85882 -6.95626,-6.60827 -9.94207,-7.1447 -18.37527,-6.5325 -28.93318,2.10039 -5.78297,4.72858 -4.63267,8.71729 2.0352,7.05708 2.38284,-0.59329 10.97483,-1.0475 19.09334,-1.00932 z"
         id="path4155"
         inkscape:connector-curvature="0" />
      <path
         style="fill:#98751f"
         d="m 280.61364,661.29825 c 2.82039,-0.81304 7.92368,-3.92576 11.34066,-6.91717 6.02916,-5.27826 6.26056,-5.90552 7.83345,-21.23605 1.83643,-17.89902 2.19331,-67.844 0.58001,-81.1708 l -1.06973,-8.83652 -7.41954,7.17366 c -4.08076,3.94551 -14.08741,15.77895 -22.23702,26.29652 -17.24038,22.2498 -21.20061,26.72471 -33.18193,37.49447 -6.04994,5.43814 -9.39918,7.41914 -10.57364,6.25402 -1.17446,-1.16511 1.67926,-4.8086 9.00926,-11.5026 5.9005,-5.38852 17.78379,-18.77674 26.4073,-29.7516 8.6235,-10.97486 20.14734,-25.12878 25.60852,-31.45316 5.46119,-6.32438 10.97032,-13.97026 12.24253,-16.99087 2.90529,-6.89803 3.04933,-27.31511 0.21787,-30.88446 -1.19492,-1.50633 -7.08185,-3.47171 -13.70018,-4.57386 -19.34265,-3.22112 -34.38137,-14.4804 -37.85367,-28.3405 -1.03106,-4.11557 -2.653,-10.7101 -3.60432,-14.65449 -0.95133,-3.94442 -1.46991,-14.08899 -1.15242,-22.54352 0.50472,-13.44018 1.26671,-16.71822 6.06365,-26.08551 3.01752,-5.89249 10.30796,-16.78956 16.20099,-24.21572 13.84917,-17.45218 19.94426,-20.56473 42.70718,-21.80906 19.71846,-1.0779 22.68047,0.2187 38.00043,16.63447 12.85486,13.77431 20.75984,30.66678 19.69497,42.08692 -1.64091,17.59792 -0.76166,16.90887 -14.95789,11.72212 -6.12495,-2.23783 -7.78857,-2.22906 -15.73904,0.083 -4.8896,1.42194 -11.32939,4.01306 -14.31063,5.75804 -4.8786,2.85556 -5.53537,4.18019 -6.56984,13.2511 -1.77856,15.5953 3.71539,21.43549 20.16469,21.43549 9.62483,0 17.64282,-3.36689 21.93357,-9.21029 2.28,-3.10503 4.30999,-4.28638 6.15722,-3.58317 3.82899,1.45764 3.44748,6.15839 -1.37837,16.98371 -9.36315,21.00333 -16.56453,25.64664 -39.86586,25.70466 l -14.66667,0.0366 0,15.84933 c 0,13.31833 0.45036,16.02077 2.82016,16.92292 2.96057,1.12704 16.08612,-0.5814 46.34092,-6.03181 11.696,-2.10704 29.87803,-3.63437 51.12381,-4.29449 30.71765,-0.95443 53.03163,-3.77363 58.93393,-7.44585 2.12572,-1.32253 1.75357,-2.93299 -2.51428,-10.88042 -2.7551,-5.13046 -9.34384,-14.32957 -14.64161,-20.44246 -5.29778,-6.1129 -9.63493,-11.67557 -9.63809,-12.3615 -0.003,-0.68593 -1.48782,-1.24714 -3.2992,-1.24714 -1.81137,0 -4.0562,-1.41398 -4.98851,-3.14217 -1.34571,-2.49449 -1.06493,-3.30564 1.36222,-3.93532 4.57525,-1.18693 9.91125,2.33149 14.96917,9.87029 2.48708,3.70697 7.03928,9.64602 10.11601,13.19786 3.07672,3.55185 8.90091,11.69591 12.94262,18.09791 8.8229,13.97531 8.93006,13.82123 -13.03917,18.74876 -11.50941,2.58148 -24.05509,3.74745 -48.24036,4.48334 -24.84233,0.75589 -39.52353,2.15453 -61.18095,5.8286 -15.67238,2.65874 -31.13524,5.06475 -34.3619,5.34668 l -5.86667,0.51261 -1.08158,55.70571 c -1.05898,54.54113 -1.00826,55.82739 2.4258,61.52571 1.92906,3.201 4.30149,6.36976 5.27205,7.04169 0.97179,0.67276 0.003,1.23311 -2.15712,1.24714 -2.15699,0.0133 -5.324,-1.65818 -7.03782,-3.71597 l -3.11604,-3.74143 -6.70377,3.74143 c -3.94473,2.20157 -9.32657,3.6797 -13.07646,3.59146 l -6.37268,-0.14998 5.12797,-1.47826 z M 342.3158,489.60218 c 8.30504,-5.39839 15.70846,-22.00561 8.17939,-18.3479 -1.61333,0.78378 -9.61712,1.42505 -17.78619,1.42505 l -14.85286,0 -4.84238,-5.75719 c -4.3652,-5.18986 -4.84238,-6.95136 -4.84238,-17.87572 0,-13.12074 1.61719,-16.13796 11.22515,-20.94287 9.21901,-4.6104 23.78508,-8.23077 28.51705,-7.08788 10.45076,2.52415 11.34668,2.19494 11.89666,-4.37148 0.48938,-5.84302 -2.60405,-17.53177 -6.67642,-25.22731 -3.434,-6.48918 -18.26749,-22.47096 -24.27526,-26.15444 -5.30379,-3.25183 -7.47283,-3.5351 -20.60573,-2.69103 -8.07289,0.51886 -17.23947,2.01101 -20.37018,3.3159 -9.47358,3.94858 -29.14302,27.90316 -35.70529,43.48395 -5.53415,13.13974 -2.57405,53.93328 4.71428,64.96822 4.8346,7.31983 18.0758,13.96048 32.949,16.5244 19.34144,3.3342 46.40581,2.68346 52.47516,-1.2617 z m -42.52537,-89.30932 c 0,-0.94328 1.32,-2.12914 2.93333,-2.63526 9.53165,-2.99017 15.35431,-6.47087 17.06855,-10.20331 1.35643,-2.95333 2.48217,-3.7149 3.70222,-2.50455 3.06098,3.03661 0.79388,7.61912 -6.11258,12.35546 -6.62729,4.54491 -17.59152,6.40702 -17.59152,2.98766 z m 125.08682,88.06312 c -0.41286,-1.30559 -1.10928,-3.87037 -1.54761,-5.69951 -0.43834,-1.82914 -1.34038,-4.63521 -2.00457,-6.23571 -2.43772,-5.87429 3.35354,-2.77639 6.25124,3.34394 2.541,5.36693 2.6019,6.45097 0.48063,8.55536 -2.09551,2.07886 -2.53211,2.08378 -3.17969,0.0359 z M 405.39043,477.6679 c 0,-1.37186 0.75429,-2.49429 1.67619,-2.49429 0.92191,0 1.67619,1.12243 1.67619,2.49429 0,1.37186 -0.75428,2.49429 -1.67619,2.49429 -0.9219,0 -1.67619,-1.12243 -1.67619,-2.49429 z m 5.02857,-9.24386 c 0,-0.96854 0.75429,-1.29852 1.67619,-0.73328 0.92191,0.56524 1.6762,1.35769 1.6762,1.761 0,0.40331 -0.75429,0.73328 -1.6762,0.73328 -0.9219,0 -1.67619,-0.79245 -1.67619,-1.761 z m -4.2594,-11.65248 c -0.60767,-0.97542 -0.68472,-2.1903 -0.1712,-2.69972 1.3789,-1.36793 6.10679,0.76744 6.10679,2.75817 0,2.25691 -4.52087,2.21239 -5.93559,-0.0585 z m -20.88345,-11.52937 c 0,-0.91457 1.88571,-1.66286 4.19047,-1.66286 2.30477,0 4.19048,0.74829 4.19048,1.66286 0,0.91457 -1.88571,1.66285 -4.19048,1.66285 -2.30476,0 -4.19047,-0.74828 -4.19047,-1.66285 z m 23.04762,-1.14626 c -3.50869,-0.90962 -3.93317,-3.84231 -0.55615,-3.84231 3.63477,0 7.67996,1.84544 7.67996,3.50362 0,1.5409 -2.10119,1.64081 -7.12381,0.33869 z"
         id="path4153"
         inkscape:connector-curvature="0" />
      <path
         style="fill:#5c5c5c"
         d="m 280.61364,661.29825 c 2.82039,-0.81304 7.92368,-3.92576 11.34066,-6.91717 6.02916,-5.27826 6.26056,-5.90552 7.83345,-21.23605 1.83643,-17.89902 2.19331,-67.844 0.58001,-81.1708 l -1.06973,-8.83652 -7.41954,7.17366 c -4.08076,3.94551 -14.08741,15.77895 -22.23702,26.29652 -17.24038,22.2498 -21.20061,26.72471 -33.18193,37.49447 -6.04994,5.43814 -9.39918,7.41914 -10.57364,6.25402 -1.17446,-1.16511 1.67926,-4.8086 9.00926,-11.5026 5.9005,-5.38852 17.78379,-18.77674 26.4073,-29.7516 8.6235,-10.97486 20.14734,-25.12878 25.60852,-31.45316 5.46119,-6.32438 10.97032,-13.97026 12.24253,-16.99087 2.90529,-6.89803 3.04933,-27.31511 0.21787,-30.88446 -1.19492,-1.50633 -7.08185,-3.47171 -13.70018,-4.57386 -19.34265,-3.22112 -34.38137,-14.4804 -37.85367,-28.3405 -1.03106,-4.11557 -2.653,-10.7101 -3.60432,-14.65449 -0.95133,-3.94442 -1.46991,-14.08899 -1.15242,-22.54352 0.50472,-13.44018 1.26671,-16.71822 6.06365,-26.08551 3.01752,-5.89249 10.30796,-16.78956 16.20099,-24.21572 13.84917,-17.45218 19.94426,-20.56473 42.70718,-21.80906 19.71846,-1.0779 22.68047,0.2187 38.00043,16.63447 12.85486,13.77431 20.75984,30.66678 19.69497,42.08692 -1.64091,17.59792 -0.76166,16.90887 -14.95789,11.72212 -6.12495,-2.23783 -7.78857,-2.22906 -15.73904,0.083 -4.8896,1.42194 -11.32939,4.01306 -14.31063,5.75804 -4.8786,2.85556 -5.53537,4.18019 -6.56984,13.2511 -1.77856,15.5953 3.71539,21.43549 20.16469,21.43549 9.62483,0 17.64282,-3.36689 21.93357,-9.21029 2.28,-3.10503 4.30999,-4.28638 6.15722,-3.58317 3.82899,1.45764 3.44748,6.15839 -1.37837,16.98371 -9.36315,21.00333 -16.56453,25.64664 -39.86586,25.70466 l -14.66667,0.0366 0,15.84933 c 0,13.31833 0.45036,16.02077 2.82016,16.92292 2.96057,1.12704 16.08612,-0.5814 46.34092,-6.03181 11.696,-2.10704 29.87803,-3.63437 51.12381,-4.29449 30.71765,-0.95443 53.03163,-3.77363 58.93393,-7.44585 2.12572,-1.32253 1.75357,-2.93299 -2.51428,-10.88042 -2.7551,-5.13046 -9.34384,-14.32957 -14.64161,-20.44246 -5.29778,-6.1129 -9.63493,-11.67557 -9.63809,-12.3615 -0.003,-0.68593 -1.11068,-1.24714 -2.4611,-1.24714 -3.42652,0 -6.57506,-6.0484 -3.71525,-7.13707 3.5317,-1.34447 9.40975,2.76018 14.22003,9.92987 2.48708,3.70697 7.03928,9.64602 10.11601,13.19786 3.07672,3.55185 8.90091,11.69591 12.94262,18.09791 8.8229,13.97531 8.93006,13.82123 -13.03917,18.74876 -11.50941,2.58148 -24.05509,3.74745 -48.24036,4.48334 -24.84233,0.75589 -39.52353,2.15453 -61.18095,5.8286 -15.67238,2.65874 -31.13524,5.06475 -34.3619,5.34668 l -5.86667,0.51261 -1.08158,55.70571 c -1.05898,54.54113 -1.00826,55.82739 2.4258,61.52571 1.92906,3.201 4.30149,6.36976 5.27205,7.04169 0.97179,0.67276 0.003,1.23311 -2.15712,1.24714 -2.15699,0.0133 -5.324,-1.65818 -7.03782,-3.71597 l -3.11604,-3.74143 -6.70377,3.74143 c -3.94473,2.20157 -9.32657,3.6797 -13.07646,3.59146 l -6.37268,-0.14998 5.12797,-1.47826 z M 342.3158,489.60218 c 8.30504,-5.39839 15.70846,-22.00561 8.17939,-18.3479 -1.61333,0.78378 -9.61712,1.42505 -17.78619,1.42505 l -14.85286,0 -4.84238,-5.75719 c -4.3652,-5.18986 -4.84238,-6.95136 -4.84238,-17.87572 0,-13.12074 1.61719,-16.13796 11.22515,-20.94287 9.21901,-4.6104 23.78508,-8.23077 28.51705,-7.08788 10.45076,2.52415 11.34668,2.19494 11.89666,-4.37148 0.48938,-5.84302 -2.60405,-17.53177 -6.67642,-25.22731 -3.434,-6.48918 -18.26749,-22.47096 -24.27526,-26.15444 -5.30379,-3.25183 -7.47283,-3.5351 -20.60573,-2.69103 -8.07289,0.51886 -17.23947,2.01101 -20.37018,3.3159 -9.47358,3.94858 -29.14302,27.90316 -35.70529,43.48395 -5.53415,13.13974 -2.57405,53.93328 4.71428,64.96822 4.8346,7.31983 18.0758,13.96048 32.949,16.5244 19.34144,3.3342 46.40581,2.68346 52.47516,-1.2617 z m -42.52537,-89.30932 c 0,-0.94328 1.32,-2.12914 2.93333,-2.63526 9.53165,-2.99017 15.35431,-6.47087 17.06855,-10.20331 1.35643,-2.95333 2.48217,-3.7149 3.70222,-2.50455 3.06098,3.03661 0.79388,7.61912 -6.11258,12.35546 -6.62729,4.54491 -17.59152,6.40702 -17.59152,2.98766 z"
         id="path4151"
         inkscape:connector-curvature="0" />
      <path
         style="fill:#313131"
         d="m 285.54281,659.71335 c 15.30848,-7.14237 15.60483,-8.20885 16.62439,-59.82546 0.82351,-41.69191 -0.0548,-58.19999 -3.09664,-58.19999 -2.47468,0 -13.7218,12.79837 -34.68976,39.47434 -14.69773,18.69883 -34.25033,38.71218 -37.76829,38.6583 -0.77691,-0.0116 4.27019,-5.43697 11.21577,-12.05571 6.94557,-6.61875 18.57982,-19.84001 25.85388,-29.38061 7.27405,-9.54059 16.851,-21.31801 21.2821,-26.17207 13.57064,-14.86596 16.28347,-20.31968 17.38132,-34.94231 1.38628,-18.46442 -0.0955,-20.66103 -15.68517,-23.25048 -13.01058,-2.16109 -23.44115,-7.24133 -30.70703,-14.95597 -6.74014,-7.15641 -11.47752,-26.31031 -11.47591,-46.3987 10e-4,-14.72306 0.52175,-17.60911 4.77992,-26.49964 8.38513,-17.50712 26.84569,-39.23882 37.01674,-43.57595 8.13864,-3.47047 35.38537,-4.87543 41.98197,-2.16477 7.92972,3.25847 24.83593,22.61782 31.14231,35.66113 5.07606,10.4987 5.48892,12.48739 4.58537,22.08643 -0.54613,5.80187 -1.55577,10.89392 -2.24366,11.31568 -0.68788,0.42175 -3.94659,-0.35063 -7.2416,-1.71642 -8.06529,-3.34309 -14.32571,-3.12642 -24.89283,0.86156 -14.73534,5.56102 -16.31618,7.46137 -16.81241,20.21036 -0.37828,9.71874 0.0612,11.60463 3.5678,15.31342 8.15301,8.62288 29.5139,7.34076 39.66154,-2.38055 2.80959,-2.69156 5.63817,-4.89375 6.28571,-4.89375 3.47729,0 -0.56979,13.34664 -7.68785,25.35335 -6.56471,11.07333 -12.05734,13.55602 -32.20148,14.55522 l -16.7619,0.83142 -0.47669,15.96179 c -0.61686,20.65474 -0.19582,21.07258 18.59936,18.45882 7.54872,-1.04976 21.9332,-3.38882 31.96552,-5.19791 11.87093,-2.14062 30.01611,-3.66054 51.96191,-4.35252 46.65864,-1.47125 66.40659,-6.58538 59.9866,-15.53476 -1.05897,-1.4762 -3.4437,-5.4638 -5.29941,-8.86137 -1.8557,-3.39756 -7.52073,-10.78775 -12.58898,-16.42264 -5.06823,-5.63491 -9.21498,-10.91767 -9.21498,-11.73949 0,-0.82183 -2.00854,-2.25181 -4.46342,-3.17772 -3.1036,-1.1706 -3.92982,-2.21286 -2.71191,-3.42108 2.461,-2.44142 7.21714,0.81585 12.0797,8.27283 2.1733,3.33287 6.52923,9.05291 9.67982,12.7112 9.08054,10.54378 21.00856,29.38516 19.48829,30.78354 -0.76272,0.70156 -8.17533,2.78041 -16.47248,4.61968 -10.88478,2.41287 -24.32913,3.63087 -48.27913,4.37382 -21.73826,0.67435 -39.95972,2.21293 -52.8,4.45833 -10.78362,1.88575 -26.16904,4.30264 -34.18983,5.37091 -8.02077,1.06826 -15.30482,2.69057 -16.18677,3.60514 -0.93114,0.96561 -1.84468,25.07417 -2.17866,57.49518 l -0.57513,55.83232 4.69482,6.10911 c 3.27012,4.25521 3.96446,6.1091 2.28802,6.1091 -1.32374,0 -3.66695,-1.90793 -5.20714,-4.23984 -3.15073,-4.77038 -7.87968,-4.36761 -13.15528,1.12045 -1.7861,1.85803 -5.17504,3.0719 -8.38096,3.00193 l -5.38232,-0.11745 6.70476,-3.1282 z m 56.31518,-167.9976 c 4.86477,-2.58283 13.24673,-14.78613 13.24673,-19.28592 0,-4.33949 -1.80833,-4.84443 -7.16468,-2.00061 -4.32509,2.2963 -25.17633,2.16367 -29.60632,-0.18832 -1.73686,-0.92216 -4.76069,-4.24933 -6.71963,-7.39371 -3.08509,-4.95209 -3.40917,-7.1938 -2.42192,-16.75319 l 1.13974,-11.0361 8.16355,-4.62532 c 11.68449,-6.6202 24.96131,-9.51274 32.76205,-7.13766 7.81639,2.37983 10.55197,0.37409 10.55197,-7.73678 0,-11.7415 -7.58268,-27.03393 -19.7332,-39.79711 -12.52584,-13.1574 -16.71417,-15.33651 -29.40449,-15.29858 -16.1155,0.0482 -27.5082,3.82394 -35.75866,11.85114 -8.76101,8.52394 -22.53033,27.82062 -26.37637,36.96453 -5.93787,14.1172 -2.14441,57.38278 5.87132,66.96431 4.89037,5.84568 17.34871,12.61088 27.09062,14.71092 12.54338,2.70393 53.68994,3.24149 58.35929,0.7624 z m -39.33607,-91.02207 c -0.45033,-0.72282 2.98623,-2.65489 7.63679,-4.29348 5.32941,-1.87778 8.76637,-4.15841 9.29627,-6.16863 0.9564,-3.62818 3.80212,-4.34132 3.80212,-0.95282 0,3.09244 -4.83135,7.13375 -12.15989,10.17145 -7.12442,2.95309 -7.47826,3.0044 -8.57529,1.24348 z"
         id="path4149"
         inkscape:connector-curvature="0" />
    </g>
  </g>
</svg>
