<?xml version="1.0" encoding="UTF-8" standalone="no"?>
<!-- Created with Inkscape (http://www.inkscape.org/) -->

<svg
   xmlns:dc="http://purl.org/dc/elements/1.1/"
   xmlns:cc="http://creativecommons.org/ns#"
   xmlns:rdf="http://www.w3.org/1999/02/22-rdf-syntax-ns#"
   xmlns:svg="http://www.w3.org/2000/svg"
   xmlns="http://www.w3.org/2000/svg"
   xmlns:sodipodi="http://sodipodi.sourceforge.net/DTD/sodipodi-0.dtd"
   xmlns:inkscape="http://www.inkscape.org/namespaces/inkscape"
   width="210mm"
   height="297mm"
   viewBox="0 0 744.09448819 1052.3622047"
   id="svg4728"
   version="1.1"
   inkscape:version="0.91 r13725"
   sodipodi:docname="chromosomes.svg">
  <defs
     id="defs4730" />
  <sodipodi:namedview
     id="base"
     pagecolor="#ffffff"
     bordercolor="#666666"
     borderopacity="1.0"
     inkscape:pageopacity="0.0"
     inkscape:pageshadow="2"
     inkscape:zoom="0.7"
     inkscape:cx="542.78079"
     inkscape:cy="694.10804"
     inkscape:document-units="px"
     inkscape:current-layer="layer1"
     showgrid="false"
     inkscape:window-width="1366"
     inkscape:window-height="705"
     inkscape:window-x="-8"
     inkscape:window-y="-8"
     inkscape:window-maximized="1" />
  <metadata
     id="metadata4733">
    <rdf:RDF>
      <cc:Work
         rdf:about="">
        <dc:format>image/svg+xml</dc:format>
        <dc:type
           rdf:resource="http://purl.org/dc/dcmitype/StillImage" />
        <dc:title></dc:title>
      </cc:Work>
    </rdf:RDF>
  </metadata>
  <g
     inkscape:label="Layer 1"
     inkscape:groupmode="layer"
     id="layer1">
    <path
       style="fill:#000000"
       d="M 350.20312 143.8125 C 350.20628 143.83285 350.21283 143.85604 350.2168 143.87695 C 350.27718 143.85714 350.26993 143.83569 350.20312 143.8125 z M 369.19531 171.88867 C 369.50394 171.94064 369.83178 171.93571 370.16016 171.88867 L 369.40039 171.88867 L 369.19531 171.88867 z M 372.30664 175.37891 C 357.86962 175.40201 349.96924 177.70365 337.87109 185.41406 C 322.48801 195.21803 311.1049 209.90872 303.45703 229.82422 C 297.64268 244.96511 296.57556 251.57615 296.60156 272.25 C 296.62293 289.24196 296.86542 291.80091 299.34961 301.17578 C 305.96551 326.14295 319.16387 345.93868 336.94141 357.55859 C 344.30472 362.37147 356.68809 367.38477 361.21094 367.38477 C 361.78531 367.38477 362.36565 367.53237 362.94727 367.80859 C 363.02854 367.78745 363.10993 367.76115 363.19336 367.75781 C 363.86071 367.7308 364.03516 367.76037 364.54688 368.03906 C 364.68185 368.0437 364.81464 368.06767 364.94727 368.09375 C 365.0617 368.10484 365.19784 368.12924 365.27344 368.14648 C 365.59204 368.21908 365.90691 368.33071 366.19531 368.48438 C 366.24415 368.5104 366.32043 368.57265 366.39258 368.62695 C 366.49935 368.65624 366.59922 368.67319 366.62891 368.68164 C 366.80373 368.74384 366.98489 368.79339 367.1543 368.86914 C 367.18308 368.88201 367.23748 368.90301 367.28125 368.91992 C 367.58174 368.90695 367.82925 368.96389 368.08594 369.05273 C 368.18855 369.08317 368.28393 369.10886 368.58398 369.21289 C 368.63918 369.24353 368.69285 369.2768 368.75 369.30469 C 368.89684 369.33682 369.03816 369.38559 369.17773 369.43555 C 369.23065 369.43557 369.28302 369.43553 369.33594 369.43555 C 369.59272 369.43551 369.85064 369.43447 370.10742 369.43555 C 370.35861 369.43755 370.61025 369.43773 370.86133 369.42773 C 370.95043 369.42968 371.2885 369.42342 371.38281 369.45898 C 371.98327 368.7375 372.63389 368.80428 373.37695 368.80469 L 374.12695 368.80469 L 375.33398 368.80469 C 375.826 368.80469 376.23737 368.88403 376.58594 369.00781 C 377.56523 368.63071 378.80774 368.34899 380.4668 368.0957 C 384.13774 367.53526 387.85605 366.58648 391.54492 365.29492 C 391.55231 365.1869 391.5566 365.07872 391.56445 364.9707 C 391.66022 363.65429 393.78451 363.71877 395.31055 363.83984 C 404.93327 359.83781 414.16028 353.57099 421.54883 345.79297 C 442.29984 323.9481 452.71485 285.65608 446.9707 252.32227 C 446.11778 247.37262 445.23507 242.16614 445.00977 240.75195 C 444.93833 240.30358 444.95041 239.85815 445.04688 239.39844 C 444.96035 239.23677 444.87896 239.06797 444.82227 238.88672 C 444.73614 238.77526 444.66715 238.67301 444.61523 238.57617 C 444.4105 238.34238 444.24048 238.06687 444.07617 237.76367 C 444.02337 237.66617 444.01863 237.54856 443.99023 237.44141 C 443.9773 237.16944 443.98472 237.33607 443.97656 237.17969 C 443.93327 237.1344 443.89062 237.08855 443.84766 237.04297 C 443.82438 236.93489 443.79924 236.82716 443.77734 236.71875 C 443.75747 236.70837 443.72851 236.6004 443.71289 236.54688 C 443.69619 236.48961 443.67683 236.43216 443.6582 236.375 C 443.63121 236.34739 443.56294 236.27313 443.58789 236.30469 C 443.14469 235.80484 443.46846 236.21271 443.03906 234.82031 C 443.02657 234.77984 443.0509 234.92597 443.07812 235.0625 C 443.10066 235.12694 443.12378 235.19148 443.14648 235.25586 C 443.14325 235.35612 443.10883 235.21441 443.07812 235.0625 C 443.04119 234.9569 443.00251 234.85144 442.96484 234.74609 C 442.9811 234.79364 442.99291 234.82643 443.00586 234.86719 C 443.01386 234.89159 442.98552 234.82137 442.97852 234.79688 C 442.9737 234.78001 442.96959 234.76297 442.96484 234.74609 C 442.96304 234.74081 442.96233 234.73651 442.96094 234.73242 C 442.9349 234.63948 442.91005 234.54627 442.88477 234.45312 C 442.88364 234.45128 442.88204 234.44914 442.88086 234.44727 C 442.05266 234.38309 441.35945 234.25466 442.57227 234.09766 C 442.35203 233.64799 442.1416 233.19306 441.91211 232.74805 C 441.85998 232.2193 441.81126 231.68882 441.78125 231.1582 C 441.34154 230.13426 440.84264 228.92677 440.31055 227.55469 C 433.55804 210.1421 421.12343 194.56283 406.74219 185.49609 C 394.23512 177.61093 386.56104 175.35611 372.30664 175.37891 z M 154.66602 176.97656 C 154.18836 176.97978 153.71198 176.9905 153.23633 177.00391 C 152.62086 177.16881 152.00079 177.30921 151.36719 177.34961 C 150.62674 177.39682 149.89637 177.35367 149.17383 177.25 C 144.95944 177.63858 140.87658 178.44215 137.07617 179.71094 C 110.16117 188.6967 89.255507 215.5429 82.568359 249.70898 C 79.899042 263.34708 79.882345 283.6363 82.529297 297.16016 C 89.745038 334.02691 115.30085 363.60794 144.78906 369.22461 C 145.7907 369.41539 146.54471 369.59124 147.16602 369.7832 L 147.19727 369.7832 C 147.37343 369.7832 147.4683 369.77585 147.66602 369.82812 C 147.78483 369.85922 147.89605 369.91767 148.01172 369.95898 C 148.10642 369.99278 148.04689 369.96077 148.02539 369.94727 C 148.29946 370.01567 148.30637 370.0105 148.52539 370.08008 C 148.58282 370.09834 148.63928 370.1204 148.69727 370.13672 C 148.69865 370.13711 148.69978 370.13829 148.70117 370.13867 C 148.71257 370.14167 148.74583 370.14546 148.73633 370.13867 C 148.83316 370.14 148.94754 370.15288 149.00586 370.16602 C 149.02037 370.1653 149.01423 370.16658 149.05078 370.16406 C 149.41645 370.25196 149.50175 370.26232 149.56641 370.29688 C 149.64417 370.29264 149.72086 370.28072 149.79883 370.2832 C 149.82423 370.284 149.8502 370.28111 149.875 370.28711 C 149.99268 370.31351 150.10793 370.34841 150.22461 370.37891 C 150.24601 370.38591 150.27116 370.41624 150.28906 370.40234 C 150.30686 370.38854 150.1298 370.35449 150.20312 370.36719 C 150.31556 370.38669 150.42899 370.40789 150.54102 370.42969 C 150.58872 370.43869 150.61067 370.45345 150.57617 370.43555 C 150.75006 370.46775 150.90331 370.52764 151.06836 370.58594 C 151.18962 370.59813 151.30233 370.60351 151.36719 370.62695 C 151.40768 370.64162 151.44795 370.65676 151.48828 370.67188 C 151.60256 370.66804 151.70536 370.66776 151.80859 370.66797 C 151.849 370.65019 151.85667 370.64394 151.90039 370.625 C 151.96099 370.5988 152.10267 370.56644 152.14062 370.55664 C 152.205 370.54924 152.15559 370.5537 152.19727 370.54883 C 152.4024 370.44324 152.54156 370.39644 152.39648 370.42188 C 152.45298 370.40508 152.61374 370.33609 152.56641 370.37109 C 152.46777 370.4441 152.15384 370.54314 152.23242 370.54492 C 152.24551 370.54337 152.24827 370.54411 152.25781 370.54297 C 152.48078 370.51693 152.68649 370.40563 152.9043 370.34766 C 152.9228 370.34266 153.02423 370.35547 153.05273 370.35547 C 153.27186 370.35899 153.42615 370.44377 153.58203 370.53906 C 153.67766 370.53381 153.77075 370.53868 153.89453 370.54297 C 154.0098 370.54097 154.12493 370.54102 154.24023 370.54102 C 154.26183 370.54112 154.28309 370.54094 154.30469 370.54102 C 154.32539 370.5411 154.34649 370.54098 154.36719 370.54102 C 154.38769 370.54105 154.42743 370.5206 154.42773 370.54102 C 154.42781 370.54588 154.42954 370.55364 154.42969 370.55859 C 154.4456 370.55575 154.45784 370.54103 154.47461 370.54102 C 154.68555 370.54077 154.86909 370.56685 155.02734 370.61328 C 156.31663 370.1546 158.54591 369.88938 162.54883 369.54297 C 173.95182 368.55615 181.28616 366.01541 191.35742 359.56445 C 206.23252 350.0365 217.8718 334.84555 225.25586 315.31836 C 230.91475 300.3534 232.50936 291.06915 232.53906 272.89258 C 232.55961 260.30362 232.14201 255.69037 230.27539 247.82227 C 226.50631 231.93509 220.81206 219.12779 212.27148 207.33789 L 204.85352 197.09961 C 204.84363 197.09759 204.84271 197.10016 204.83203 197.09766 C 204.72629 197.07291 204.7022 197.06623 204.67383 197.04883 C 204.61282 197.02744 204.51296 196.97586 204.45703 196.91797 C 204.4321 196.88984 204.39938 196.84818 204.4043 196.87109 C 204.4071 196.88475 204.4309 196.89538 204.44141 196.9082 C 204.40508 196.88116 204.36728 196.85445 204.33398 196.82031 C 204.27191 196.7745 204.20266 196.7344 204.15625 196.67188 C 204.12663 196.6655 204.06932 196.65351 204.10742 196.64258 C 204.14202 196.63258 204.24233 196.68957 204.21094 196.67188 C 204.15461 196.64011 204.09335 196.61979 204.0332 196.5957 C 204.01513 196.58909 204.00952 196.59002 203.99805 196.58594 C 203.98085 196.57981 203.97088 196.57066 203.94922 196.56055 C 203.93906 196.55655 203.95445 196.56286 203.93945 196.55664 C 203.78454 196.50254 203.63305 196.43547 203.48828 196.35742 C 203.38724 196.30182 203.29234 196.24794 203.20312 196.17383 C 203.17773 196.15273 203.14626 196.13467 203.13086 196.10547 C 203.12186 196.08847 203.19794 196.14291 203.18164 196.13281 C 203.15154 196.11401 203.12064 196.09758 203.08984 196.08008 C 203.00744 196.02278 202.99967 196.02113 202.91016 195.93945 C 202.89809 195.92839 202.88952 195.91481 202.87891 195.90234 C 202.86694 195.89891 202.85342 195.90112 202.8418 195.89648 C 202.75449 195.86156 202.70087 195.79765 202.64648 195.73047 C 202.56666 195.705 202.49093 195.66718 202.41992 195.61328 C 202.46995 195.61425 202.41981 195.60856 202.30664 195.54883 C 202.30764 195.54983 202.30173 195.54621 202.30273 195.54688 C 202.29872 195.54371 202.29821 195.54091 202.29297 195.53711 C 202.26722 195.52165 202.23952 195.50389 202.22266 195.49609 C 202.17117 195.47862 202.12418 195.45144 202.08203 195.42383 C 201.93264 195.36683 201.89801 195.36016 201.7793 195.27734 C 201.7601 195.26264 201.7391 195.24802 201.7207 195.23242 C 201.7157 195.22842 201.71554 195.22225 201.71094 195.21875 C 201.66394 195.18585 201.61094 195.1612 201.56641 195.125 C 201.50581 195.0756 201.41983 194.99468 201.38281 194.91602 C 201.3381 194.86964 201.29579 194.82312 201.25391 194.77539 L 201.18945 194.89844 L 198.50977 192.4043 C 188.64985 183.22999 173.17552 177.6948 158.12109 177.03906 C 157.88503 177.12384 157.61784 177.07844 157.3457 177.01758 C 157.01191 177.00676 156.67892 177.00402 156.3457 176.99805 C 156.32391 177.00868 156.30039 177.01199 156.2793 177.02539 C 155.60801 177.01158 155.14847 176.99211 154.66602 176.97656 z M 591.70703 177.87305 C 577.20613 177.87305 575.3442 178.14722 568.09375 181.34375 C 550.9222 188.91423 535.68678 204.16512 526.62695 222.85352 L 522.07422 232.24609 L 521.36914 231.62109 C 521.32494 231.82721 521.2543 232.02603 521.14844 232.20508 L 521.14844 232.20703 C 521.14769 232.20829 521.14723 232.20968 521.14648 232.21094 C 521.09228 232.44221 520.96736 232.71244 520.83789 232.86914 C 520.84206 232.89793 520.84262 232.94535 520.84766 232.9707 C 520.84866 232.9777 520.89796 232.78964 520.91016 232.82031 C 520.84856 233.10407 520.80004 233.38901 520.72656 233.66992 C 520.70886 233.73772 520.70747 233.84808 520.63867 233.86133 C 520.57127 233.87433 520.70025 233.73795 520.71875 233.67188 C 520.74385 233.58238 520.75368 233.49035 520.76758 233.39844 C 520.77158 233.37224 520.77918 233.29304 520.77148 233.31836 C 520.64656 233.71057 520.53209 234.10565 520.41406 234.5 C 520.43515 234.46892 520.45271 234.43597 520.47266 234.4043 C 520.52603 234.23577 520.57631 234.0661 520.64258 233.90234 C 520.68819 233.78975 520.612 234.14691 520.5625 234.25781 C 520.53913 234.31012 520.50319 234.3558 520.47266 234.4043 C 520.43216 234.53217 520.38691 234.65823 520.34375 234.78516 C 520.38747 234.69011 520.43082 234.59501 520.47461 234.5 C 520.4323 234.6079 520.39003 234.71634 520.34766 234.82422 C 520.34685 234.82687 520.34662 234.82904 520.3457 234.83203 C 520.3125 234.93799 520.27961 235.04453 520.24609 235.15039 C 520.31875 234.52571 520.2766 235.19341 519.96875 236.03906 C 519.98355 235.78074 519.99306 235.438 519.97266 235.52344 C 519.91599 235.76046 519.87839 236.00178 519.83594 236.24219 C 519.86691 236.17714 519.89958 236.11326 519.93164 236.04883 C 519.93199 236.12302 519.93419 236.09657 519.93555 236.13672 C 519.94832 236.10354 519.95682 236.07567 519.96875 236.04297 C 519.95659 236.25293 519.94186 236.32341 519.93555 236.13672 C 519.925 236.16412 519.92129 236.1872 519.91016 236.21484 C 519.89206 236.25978 519.85555 236.29271 519.82227 236.32812 C 520.14406 236.66649 520.37695 236.93432 520.37695 237.00781 C 520.37695 237.23583 519.21231 242.72736 517.78906 249.21094 C 515.44174 259.90398 515.2494 262.44771 515.70898 276.58789 C 516.60102 304.0337 522.44751 321.27023 537.57812 341.06836 C 544.32227 349.89291 548.33749 353.9484 554.32031 357.97461 C 562.71011 363.62065 572.21164 367.87388 579.72266 369.3457 C 581.98393 369.78881 583.139 370.15925 583.73438 370.86719 L 583.97266 370.86719 L 584.24023 370.86719 C 584.39087 370.86119 584.49465 370.88134 584.6543 370.93164 C 584.702 370.94664 584.74355 370.97745 584.78906 370.99805 C 584.80126 371.00405 584.83965 371.01667 584.82812 371.00977 C 584.80932 370.99827 584.78778 370.99325 584.76758 370.98438 C 584.98062 371.01698 584.80301 370.98597 585.07617 371.04688 C 585.10847 371.05388 585.14113 371.06131 585.17383 371.06641 C 585.17648 371.06674 585.17744 371.06619 585.18164 371.06641 C 585.1731 371.06398 585.16478 371.06105 585.15625 371.05859 C 585.14275 371.05459 585.18407 371.05945 585.19727 371.06445 C 585.20215 371.06598 585.19014 371.06683 585.18164 371.06641 C 585.30016 371.10004 585.41824 371.1317 585.53711 371.16406 C 585.81744 371.20486 585.39916 371.10226 585.41797 371.09766 C 585.42887 371.09466 585.44193 371.0967 585.45312 371.0957 C 585.51954 371.0907 585.5191 371.09089 585.59766 371.08789 C 585.81542 371.0873 586.03223 371.08984 586.25 371.08984 C 586.36076 371.08922 586.47321 371.08978 586.58398 371.08984 C 586.74751 371.08986 586.91068 371.08982 587.07422 371.08984 L 587.43945 371.08984 L 587.84375 371.08984 L 588.26758 371.08984 L 588.49609 371.08984 C 588.98409 370.00426 590.49928 369.95703 595.20312 369.95703 C 605.35852 369.95703 614.9768 366.73059 626.54297 359.44727 C 635.50619 353.80306 637.91049 351.5338 645.83008 341.23047 C 655.81707 328.23747 660.71183 318.14154 664.83789 302.0332 C 667.07614 293.29489 667.36768 290.062 667.39648 273.53516 C 667.42726 255.8788 667.2655 254.29727 664.36133 243.62891 C 660.02851 227.71247 655.89869 219.22994 646.31055 206.55273 C 636.93667 194.1588 628.11974 186.98668 615.32031 181.34375 C 608.06986 178.14722 606.20792 177.87305 591.70703 177.87305 z M 520.3457 234.83203 C 520.32428 234.88666 520.30166 234.94108 520.28125 234.99609 C 520.27625 235.00829 520.29823 234.97509 520.30273 234.96289 C 520.3187 234.91997 520.33 234.88329 520.3457 234.83203 z M 521.14844 232.20508 C 521.12609 232.24158 521.20378 232.10122 521.21875 232.04492 C 521.24465 231.94732 521.25213 231.8456 521.26953 231.74609 C 521.1717 232.08301 521.17712 232.08291 521.14844 232.20508 z M 373.53906 181.26758 C 391.64699 181.21803 407.60719 189.21448 421.04883 205.10938 C 426.8588 211.97971 434.57459 225.78461 437.20898 234.02344 L 438.63672 238.49023 L 437.08984 240.0918 C 437.52338 240.49523 437.83669 241.20097 437.83789 242.21875 C 437.83809 242.38582 437.83618 242.55168 437.83594 242.71875 C 437.83686 243.00824 437.85008 243.29875 437.83008 243.58789 C 437.82848 243.60891 437.82853 243.62942 437.82617 243.65039 C 437.91277 243.86723 437.84077 243.50718 437.73633 244.94336 L 437.41797 245.42188 C 437.44607 245.37887 437.53271 245.25183 437.50195 245.29297 C 437.3887 245.44434 437.29954 245.61449 437.17188 245.75391 C 437.12847 245.80131 437.28267 245.52469 437.24414 245.57617 C 437.24375 245.5767 437.18612 245.6925 437.13281 245.79688 C 437.14909 245.88798 437.11395 245.96564 437.02148 246.47461 C 437.00731 246.50458 437.00407 246.51126 436.99219 246.53711 C 437.06641 246.48615 437.084 246.47398 437.1875 246.4043 C 437.23928 246.35997 437.27651 246.33987 437.33203 246.28906 C 437.39723 246.22936 437.25968 246.35494 437.23828 246.36914 C 437.20907 246.38861 437.21457 246.38608 437.1875 246.4043 C 437.11179 246.46911 437.04811 246.51342 436.98047 246.56445 C 436.92167 246.69381 436.86716 246.80391 436.82617 246.88281 C 438.48222 245.26266 439.72247 244.16082 440.04883 244.08008 C 440.08746 244.07052 440.11321 244.07579 440.12695 244.09375 C 440.34686 244.3811 441.28506 249.51069 442.21289 255.49414 C 445.26025 275.14635 442.8201 295.37211 434.99219 315.31836 C 429.66132 328.90193 416.24735 345.87183 405.26562 352.92578 C 400.6661 355.88056 394.0251 359.17789 390.50781 360.25195 C 386.99052 361.32603 382.84525 362.21431 381.29492 362.22461 L 379.93945 362.23242 L 378.47656 362.24219 L 378.53125 362.13086 C 378.31782 362.14597 378.10468 362.15199 377.89062 362.08594 C 377.88899 362.08553 377.75221 362.03526 377.66406 362.00586 C 377.36266 361.99107 377.18187 361.94718 376.94922 361.85938 L 376.73242 361.85938 L 376.60352 361.85938 C 376.37611 361.98755 376.09745 362.02141 375.84375 361.94922 C 375.8162 361.95234 375.78767 361.96367 375.76172 361.95508 C 375.6152 361.90448 375.60329 361.90417 375.52344 361.88086 C 375.44269 361.89692 375.34872 361.89518 375.27148 361.89648 C 375.13224 361.89301 375.09279 361.8852 375.02344 361.85938 C 374.97982 361.8593 374.93616 361.85953 374.89258 361.85938 C 374.58248 361.85838 374.27298 361.86433 373.96289 361.86133 C 373.96186 361.85114 373.96279 361.83934 373.96289 361.82812 L 373.92969 361.82812 C 373.92653 361.82891 373.92357 361.83001 373.91992 361.83008 C 373.92042 361.83707 373.92343 361.84662 373.92383 361.85352 C 373.92583 361.88932 373.79725 361.87816 373.81641 361.84766 C 373.83515 361.8179 373.88146 361.83074 373.91992 361.83008 L 373.91992 361.82812 L 373.85742 361.82812 C 373.72524 361.86372 373.59315 361.89867 373.45703 361.90625 C 373.31725 361.91405 373.18784 361.89749 373.0625 361.87109 C 372.35747 362.14383 371.51099 362.19611 370.33008 362.20703 C 369.42047 362.21544 368.69142 362.19016 368.06055 362.04297 C 368.02883 362.04384 368.00135 362.04884 367.96875 362.04883 C 367.81225 362.04877 367.65455 362.04881 367.49805 362.04883 C 367.32194 362.04866 367.14682 362.04921 366.9707 362.05078 C 366.81444 362.05162 366.65808 362.05061 366.50195 362.04297 C 366.21617 362.05407 365.96413 362.09781 365.67578 362.00391 C 365.65304 361.9965 365.63329 361.98194 365.61133 361.97266 C 365.49825 361.96415 365.38569 361.95114 365.28125 361.91016 C 365.25835 361.90117 365.23792 361.88363 365.21484 361.87305 C 364.94345 361.86373 364.6759 361.82257 364.41797 361.7168 C 364.37197 361.6983 364.32472 361.68591 364.28125 361.66211 C 364.27325 361.65811 364.31514 361.65825 364.30664 361.65625 C 364.23228 361.63287 364.12908 361.64639 364.07422 361.60352 C 363.9002 361.60358 363.7248 361.60396 363.55078 361.60352 C 363.4147 361.60313 363.27866 361.60333 363.14258 361.60547 C 363.07338 361.60347 362.98356 361.61615 362.91797 361.59375 C 362.90077 361.58775 362.9761 361.59768 362.9707 361.58008 C 362.9677 361.56898 362.94715 361.58298 362.93555 361.58398 C 362.62256 361.64688 362.39492 361.71552 362.03711 361.5625 C 361.95243 361.52628 361.88151 361.46659 361.80859 361.41016 C 361.7542 361.40333 361.69378 361.39427 361.62109 361.37891 C 361.77593 361.84958 361.85152 362.17272 361.76562 362.14062 C 361.61131 362.08443 358.82876 361.27344 355.58203 360.33789 C 321.87638 350.62569 299.30881 311.89758 301.25586 267.10742 C 302.26464 243.90157 309.05443 224.11998 321.55469 207.96875 C 333.64643 192.34536 345.54862 184.96823 363.25977 182.12305 C 366.75801 181.56108 370.18574 181.27675 373.53906 181.26758 z M 158.98633 182.81836 C 171.26609 182.87891 182.58818 186.9356 193.49219 195.13672 L 198.6582 199.02344 L 198.5625 199.18945 C 198.61452 199.24716 198.65993 199.30778 198.69141 199.375 C 198.73211 199.462 198.77081 199.55119 198.81055 199.63867 C 198.80355 199.61797 198.78172 199.55657 198.79102 199.57617 C 198.80571 199.60723 198.81743 199.63985 198.83008 199.67188 C 198.83246 199.67467 198.83556 199.67685 198.83789 199.67969 C 198.84642 199.6904 198.84628 199.70085 198.85156 199.71875 C 198.91431 199.82972 198.97913 199.93857 199.04297 200.04883 C 199.04295 200.05152 199.04488 200.05765 199.04492 200.06055 C 199.06597 200.09949 199.08733 200.13742 199.10547 200.17773 C 199.13175 200.23616 199.15437 200.29775 199.17773 200.35742 C 199.45698 200.54512 199.40735 200.51617 199.7207 200.79297 C 199.58223 200.65818 199.57068 200.64553 199.63867 200.69336 C 199.88408 200.95613 199.96417 201.01861 200.01758 201.09375 C 200.05757 201.13532 200.09834 201.17604 200.13477 201.2207 C 200.16741 201.26074 200.05986 201.14706 200.02539 201.11133 C 200.02581 201.11198 200.02497 201.11458 200.02539 201.11523 C 200.1989 201.31479 200.2639 201.39478 200.28516 201.4707 C 200.29313 201.48177 200.30098 201.49331 200.3125 201.51953 C 200.33481 201.5415 200.35662 201.56396 200.37891 201.58594 C 200.49089 201.74425 200.48316 201.74307 200.5293 201.85156 L 200.5293 201.85352 C 200.57302 201.8831 200.59116 201.94009 200.62305 201.98242 C 200.63955 202.00432 200.65868 202.02546 200.67578 202.04688 C 200.65788 202.02167 200.62709 202.001 200.62109 201.9707 C 200.61809 201.9543 200.65016 201.98689 200.66406 201.99609 C 200.70186 202.02129 200.74454 202.04092 200.77539 202.07422 C 201.00314 202.31999 201.03569 202.36541 201.07031 202.44727 C 201.102 202.47957 201.13766 202.5218 201.16211 202.53906 C 201.18074 202.55695 201.19864 202.57561 201.2168 202.59375 C 201.17812 202.48581 201.32683 202.43068 201.57617 202.92969 C 201.59081 202.95898 201.59106 202.99265 201.60156 203.02344 C 201.64357 203.0702 201.68437 203.1127 201.70703 203.14258 C 202.5453 203.59253 205.74319 207.50725 209.23047 212.38672 C 221.42139 229.44449 227.45641 249.60373 227.53711 273.53516 C 227.67424 314.21679 207.93689 348.71248 177.57031 360.86133 C 173.81892 362.36215 166.84551 363.95198 162.07422 364.39453 L 153.39844 365.19922 L 153.39844 364 C 153.27604 363.97048 153.13311 363.91735 152.99609 363.85156 C 152.90801 363.84976 152.80095 363.84706 152.77148 363.85156 C 152.71508 363.85056 152.63374 363.85975 152.57812 363.84375 C 152.56393 363.83975 152.60879 363.84258 152.62109 363.83398 C 152.62709 363.82998 152.60536 363.83494 152.59766 363.83594 C 152.37933 363.87774 152.28115 363.91199 152.01953 363.83789 C 151.94787 363.81767 151.88689 363.77196 151.82227 363.73438 C 151.7662 363.73181 151.71183 363.72893 151.63086 363.71289 C 151.57693 363.7022 151.52602 363.6802 151.47461 363.66016 C 151.3907 363.66015 151.30656 363.6601 151.22266 363.66016 C 151.07225 363.66015 150.92188 363.65964 150.77148 363.66016 C 150.64343 363.66106 150.51663 363.66225 150.38867 363.65625 C 150.35407 363.64825 150.36803 363.65611 150.29883 363.66211 C 150.10812 363.67801 149.91812 363.67449 149.73242 363.62109 C 149.70241 363.61152 149.68551 363.60257 149.64258 363.5918 C 149.57644 363.58687 149.50112 363.57194 149.44336 363.55664 C 149.39578 363.55149 149.34352 363.54496 149.31445 363.54102 C 149.22695 363.52922 149.14108 363.50256 149.05664 363.47656 C 149.01444 363.46357 148.93283 363.46727 148.93359 363.42578 C 148.91344 363.42025 148.89127 363.41368 148.87109 363.4082 C 148.75841 363.36405 148.70002 363.33383 148.62695 363.28125 C 148.32169 363.418 147.91651 363.44945 147.375 363.42578 C 146.08863 363.36957 142.37954 362.56601 139.13281 361.64062 C 107.96896 352.75871 85.468187 316.09407 85.529297 274.29297 C 85.566882 248.5818 92.19484 227.30374 105.58984 209.88281 C 118.20555 193.47603 130.55854 186.16602 150.32617 183.41211 C 153.26865 183.00218 156.15254 182.80439 158.98633 182.81836 z M 200.5293 201.85352 C 200.54505 201.89047 200.54274 201.88902 200.58594 201.97852 C 200.58994 201.98652 200.58503 201.96268 200.58203 201.95508 C 200.56657 201.9209 200.50082 201.83615 200.5293 201.85352 z M 198.85156 199.71875 C 198.84969 199.71544 198.84759 199.71229 198.8457 199.70898 C 198.85101 199.72194 198.85555 199.73529 198.86133 199.74805 C 198.8656 199.75749 198.85551 199.73211 198.85156 199.71875 z M 198.8457 199.70898 C 198.84062 199.69658 198.835 199.68434 198.83008 199.67188 C 198.82442 199.66522 198.81841 199.65879 198.8125 199.65234 C 198.82375 199.67115 198.83485 199.68993 198.8457 199.70898 z M 593.18359 183.32812 C 604.78342 183.24412 613.84502 185.93215 624.17383 192.51953 C 655.04239 212.20651 670.40596 260.23571 659.30078 302.33594 C 655.29291 317.5299 651.04969 326.41247 642.36914 337.7832 C 633.76923 349.04831 625.35128 355.85393 614.33594 360.44922 C 609.4069 362.50549 603.022 364.00858 597.25391 364.4707 L 588.04297 365.20898 L 588.05273 364.97461 C 588.04237 364.97464 588.03184 364.97461 588.02148 364.97461 C 587.97448 364.97361 587.96212 364.9737 587.91797 364.9707 C 587.86887 364.9677 587.93716 364.95893 587.94336 364.95703 C 587.94636 364.95613 587.93855 364.95693 587.93555 364.95703 C 587.87045 364.96803 587.80618 364.99253 587.74023 364.99023 C 587.58315 364.98523 587.49467 364.96214 587.37305 364.89844 C 587.37205 364.89768 587.374 364.89553 587.375 364.89453 C 587.35014 364.8935 587.32563 364.89178 587.30078 364.89062 C 587.06997 364.84141 586.99478 364.80758 586.85156 364.72461 C 586.84107 364.72074 586.83073 364.72102 586.82031 364.71875 C 586.80431 364.71375 586.75468 364.70309 586.77148 364.70312 C 586.78711 364.70324 586.79258 364.70558 586.81836 364.70898 L 586.82031 364.70898 C 586.87065 364.71573 586.94209 364.72436 586.91211 364.71875 C 586.87988 364.71272 586.84722 364.70833 586.81445 364.70508 C 586.76856 364.70052 586.71995 364.69816 586.67578 364.68555 C 586.55328 364.65063 586.46194 364.57947 586.36523 364.50586 C 586.27542 364.47492 586.23932 364.44995 586.19141 364.42383 C 586.23251 364.43573 586.35656 364.46451 586.31836 364.44531 C 586.23598 364.40369 586.14727 364.37561 586.06055 364.34375 C 586.06984 364.35351 586.07014 364.35273 586.08008 364.36328 C 586.11308 364.39838 585.99282 364.32323 585.94922 364.30273 C 585.92003 364.28722 585.89045 364.27156 585.86133 364.25586 C 585.75364 364.23517 585.64765 364.20896 585.70898 364.21484 C 585.68914 364.20629 585.65975 364.19654 585.64844 364.18945 C 585.63681 364.18578 585.62491 364.18462 585.61328 364.18164 C 585.59418 364.17664 585.53684 364.16486 585.55664 364.16406 C 585.59894 364.16206 586.03647 364.23498 585.45312 364.14258 C 585.44538 364.13792 585.44007 364.13473 585.42969 364.12891 C 585.38924 364.12527 585.34901 364.11934 585.30859 364.11523 C 585.27845 364.10636 585.24891 364.09865 585.21875 364.08984 C 585.15969 364.08487 585.10248 364.0726 585.04492 364.05859 C 585.00692 364.04959 584.9703 364.03283 584.93359 364.01953 C 584.87049 363.97681 584.86939 363.98768 584.75781 363.93945 C 584.7337 363.93796 584.70962 363.93547 584.68555 363.93359 C 584.66042 363.9201 584.63454 363.90794 584.60938 363.89453 C 584.55834 363.87826 584.52688 363.86851 584.38477 363.81445 C 584.32027 363.78995 584.2631 363.74692 584.20312 363.71289 C 584.18026 363.69426 584.14102 363.66777 584.13477 363.65625 C 584.03737 363.6178 583.93728 363.58619 583.84961 363.51953 C 583.82429 363.5014 583.80288 363.47736 583.77734 363.45898 C 583.7326 363.4649 583.67889 363.49391 583.64648 363.46484 C 583.63141 363.45125 583.62336 363.42905 583.60938 363.41406 C 583.60883 363.41928 583.60796 363.42447 583.60742 363.42969 C 583.60823 363.4202 583.60665 363.42339 583.60742 363.41406 C 583.60551 363.41201 583.60541 363.40833 583.60352 363.40625 C 583.59277 363.4106 583.58318 363.41804 583.57227 363.42188 C 583.51767 363.44097 583.26388 363.37915 583.20703 363.37695 C 583.13324 363.37418 583.08357 363.3483 583.02148 363.33398 C 582.66201 363.40125 582.21099 363.39156 581.62305 363.35352 C 572.87113 362.78719 560.01115 356.77562 551.33789 349.19531 C 538.34243 337.83747 528.60224 320.94047 523.65625 301.17578 C 520.29536 287.74531 519.86622 265.15218 522.69727 250.71484 C 523.70252 245.58841 524.72604 241.39453 524.97266 241.39453 C 524.99404 241.39453 525.16636 241.53662 525.2832 241.62695 C 525.3405 241.53395 525.32853 241.55028 525.3418 241.5293 C 525.34467 241.5159 525.34673 241.50166 525.34766 241.50781 C 525.33167 241.53001 525.30629 241.57254 525.30664 241.56445 C 525.30789 241.53973 525.3297 241.52109 525.34766 241.50195 C 525.34768 241.50568 525.34987 241.4899 525.34961 241.49609 L 525.34961 241.49414 C 525.35095 241.49011 525.35565 241.48971 525.35742 241.48438 C 525.35706 241.48625 525.35777 241.48835 525.35742 241.49023 C 525.36441 241.48253 525.3679 241.47323 525.37305 241.46484 C 525.37664 241.4594 525.3667 241.46817 525.35938 241.47852 C 525.36586 241.44575 525.3683 241.41155 525.38477 241.38281 C 525.39083 241.37219 525.41283 241.35673 525.42969 241.3418 C 525.43578 241.3312 525.43602 241.32754 525.43945 241.32031 C 525.44745 241.30441 525.45389 241.28864 525.46289 241.27344 C 525.47189 241.25834 525.52835 241.18826 525.53125 241.16016 C 525.71653 240.92375 525.56877 241.09893 525.67969 240.98633 C 525.68469 240.98133 525.66731 240.9949 525.66211 241 C 525.65611 241.006 525.64438 241.02773 525.64648 241.01953 C 525.65448 240.98593 525.73236 240.87793 525.73438 240.875 C 525.79836 240.79427 525.87024 240.7207 525.93945 240.64453 C 525.93867 240.62934 525.93649 240.63019 525.93555 240.61133 C 525.93462 240.58517 525.94883 240.56024 525.95703 240.53516 C 525.9579 240.53294 525.95846 240.53152 525.95898 240.5293 C 525.95985 240.5263 525.96194 240.51838 525.96094 240.52148 C 525.96671 240.49845 525.97082 240.47616 525.97656 240.45312 C 525.97904 240.41839 525.9941 240.3849 526.00391 240.35156 C 526.00023 240.39125 525.99829 240.3925 526.00195 240.41992 C 525.98455 240.31479 525.9899 240.3706 526.0332 240.18164 C 526.03695 240.16432 526.04779 240.15046 526.05664 240.13477 C 526.0563 240.13285 526.05694 240.13083 526.05664 240.12891 C 526.05507 240.13127 526.05234 240.13459 526.05273 240.13281 C 526.0533 240.13024 526.054 240.12754 526.05469 240.125 C 526.04102 240.02922 526.07001 239.92982 526.09766 239.83594 C 526.12136 239.71837 526.15901 239.6054 526.19141 239.49023 C 526.20931 239.42663 526.14202 239.53233 526.23242 239.37695 L 526.23438 239.375 C 526.23604 239.36397 526.24536 239.3439 526.25 239.32812 C 526.252 239.32212 526.25191 239.31459 526.25391 239.30859 C 526.33361 239.10891 526.25344 239.30248 526.32812 239.16211 C 526.33614 239.14671 526.30863 239.19078 526.29883 239.20508 L 526.29688 239.20703 C 526.29494 239.2149 526.2931 239.22264 526.29102 239.23047 C 526.29002 239.23637 526.29097 239.21889 526.29297 239.21289 C 526.29369 239.21073 526.2952 239.2089 526.29688 239.20703 C 526.31187 239.1459 526.32311 239.08482 526.34375 239.02539 C 526.34615 239.01882 526.35168 239.01363 526.35547 239.00781 C 526.36335 238.94717 526.36448 238.89485 526.40234 238.81641 C 526.39634 238.83051 526.38897 238.84272 526.38477 238.85742 C 526.39017 238.82167 526.39473 238.78533 526.40234 238.75 C 526.40534 238.7372 526.40947 238.72514 526.41797 238.71484 C 526.45697 238.66574 526.50128 238.62101 526.54297 238.57422 C 526.55487 238.55522 526.58671 238.5527 526.59961 238.5332 C 526.60061 238.5312 526.59375 238.53363 526.59375 238.53125 C 526.59354 238.52425 526.59661 238.51802 526.59961 238.51172 C 526.60261 238.50372 526.60536 238.49433 526.60938 238.48633 C 526.62036 238.46223 526.63283 238.43972 526.64453 238.41602 C 526.65843 238.38902 526.67395 238.36404 526.68555 238.33594 C 526.68955 238.32594 526.68741 238.31449 526.69141 238.30469 C 526.71211 238.24409 526.7465 238.17184 526.7793 238.11719 C 526.8134 238.06039 526.86241 238.0029 526.82031 238.05273 C 526.85121 237.95783 526.90719 237.87398 526.94336 237.78125 C 526.96026 237.73795 526.96506 237.6915 526.97656 237.64648 C 526.99996 237.53758 527.02819 237.42928 527.05859 237.32227 C 527.06059 237.31627 527.0635 237.29603 527.0625 237.30273 C 527.0605 237.32623 527.04489 237.39485 527.05469 237.37305 C 527.08629 237.30005 527.10526 237.22182 527.13086 237.14648 C 527.20287 237.07525 527.14832 237.12869 527.19336 237.08594 C 527.22361 236.96487 527.26973 236.86709 527.29297 236.86328 C 527.31467 236.83838 527.34103 236.81732 527.36523 236.79492 C 527.38353 236.78122 527.49956 236.69652 527.52148 236.67383 C 527.52848 236.66683 527.56891 236.59024 527.57031 236.58594 C 527.57631 236.56664 527.57783 236.54519 527.58203 236.52539 C 527.59103 236.48319 527.60113 236.4424 527.61133 236.40039 C 527.61213 236.39455 527.61255 236.38866 527.61328 236.38281 C 527.40663 236.07674 527.26367 235.82561 527.26367 235.70117 C 527.26367 232.29115 535.13426 217.18015 540.75 209.80859 C 554.27422 192.05588 571.24179 183.48703 593.18359 183.32812 z M 527.29297 236.86328 C 527.31198 236.86017 527.32168 236.8721 527.44727 236.79297 C 527.48077 236.77187 527.37215 236.81398 527.33594 236.83008 C 527.31994 236.83708 527.28147 236.87648 527.29297 236.86328 z M 525.35742 241.49023 C 525.35387 241.49416 525.3513 241.49807 525.34766 241.50195 C 525.34763 241.49846 525.3479 241.5094 525.34766 241.50781 C 525.35025 241.50421 525.35072 241.50205 525.35352 241.49805 C 525.35402 241.49519 525.3569 241.49308 525.35742 241.49023 z M 525.3418 241.5293 C 525.33382 241.56647 525.32409 241.60964 525.33008 241.58984 C 525.33712 241.56666 525.34341 241.54375 525.34766 241.51953 C 525.34667 241.52108 525.34312 241.5272 525.3418 241.5293 z M 202.23438 192.90625 L 202.22656 192.92188 C 202.22973 192.92419 202.23319 192.92728 202.23633 192.92969 C 202.24881 192.93882 202.25715 192.9495 202.27344 192.95703 C 202.28679 192.96064 202.29559 192.96115 202.30469 192.96484 C 202.2869 192.94723 202.26137 192.93308 202.23438 192.90625 z M 202.2168 192.93945 L 202.21484 192.94336 C 202.22907 192.94612 202.23254 192.94767 202.24805 192.95117 C 202.24226 192.94688 202.23934 192.94521 202.23438 192.94336 C 202.22881 192.94128 202.22578 192.94156 202.2168 192.93945 z M 202.2793 192.96094 C 202.29039 192.96477 202.30134 192.969 202.3125 192.97266 C 202.31096 192.97114 202.30823 192.96837 202.30664 192.9668 C 202.29558 192.96357 202.29177 192.96517 202.2793 192.96094 z M 202.50781 194.01367 C 202.52994 194.04036 202.55018 194.06899 202.57227 194.0957 C 202.64682 194.12059 202.72007 194.14798 202.79297 194.17773 C 202.70205 194.13467 202.61243 194.08933 202.53125 194.0293 C 202.52015 194.0213 202.57805 194.05739 202.56445 194.05469 C 202.54735 194.05169 202.53423 194.03469 202.51953 194.02539 C 202.51124 194.01861 202.51441 194.01908 202.50781 194.01367 z M 388.41406 194.02148 C 384.07186 194.03485 382.95177 198.3452 382.15625 215.69141 C 381.31576 234.01779 380.41794 238.76814 375.99023 248.33203 L 372.48242 255.91211 L 369.67578 248.66016 C 367.52963 243.11409 366.28215 236.50239 364.37109 220.53711 C 361.69699 198.19743 360.67966 195.11133 355.99023 195.11133 C 350.78422 195.11133 349.82576 198.02555 350.50195 211.77344 C 351.5499 233.07954 353.72036 244.58091 359.00391 256.82227 C 361.59805 262.83256 363.63291 269.00856 363.52734 270.54688 C 363.42178 272.08517 361.76851 276.42649 359.85352 280.19531 C 352.2195 295.21949 351.56513 297.91779 349.67188 322.25391 C 348.09548 342.50331 348.61042 346.69407 352.8418 348.04688 C 352.97475 348.08938 353.11756 348.15769 353.26562 348.24414 C 353.53826 348.17575 353.81469 348.13142 354.08984 348.16016 C 354.17855 348.16941 354.26459 348.19684 354.35156 348.2168 C 354.75759 347.94153 354.9649 347.80856 355.14062 347.74609 C 355.48657 347.51024 355.69166 347.45409 356.01172 347.44531 C 356.01897 347.44033 356.04503 347.4322 356.0625 347.42773 C 356.1712 347.40003 356.27972 347.36826 356.39062 347.35156 C 356.49658 347.33563 356.59884 347.33348 356.70117 347.33008 C 357.07509 347.12578 357.30246 347.07894 357.55078 347.07031 C 357.57014 347.03819 357.62829 346.94226 357.66406 346.88867 C 357.70775 346.74955 357.82091 346.51479 357.74023 346.67383 C 357.82193 346.49994 357.85971 346.29857 357.98438 346.15234 C 358.20907 345.88873 358.51165 345.70255 358.76367 345.46484 C 358.65515 345.52063 358.84273 345.42946 358.61133 345.54688 C 358.55198 345.57672 358.83296 345.40107 358.78516 345.44727 C 358.77852 345.45367 358.77038 345.45852 358.76367 345.46484 C 359.46079 345.10652 358.3303 345.65241 359.27539 345.1875 C 359.24979 345.1935 359.19772 345.23138 359.19922 345.20508 C 359.20122 345.17298 359.24914 345.16589 359.27734 345.15039 C 359.38014 345.09402 359.48589 345.04248 359.58984 344.98828 C 359.59943 344.97749 359.59783 344.98137 359.60742 344.9707 C 359.57615 344.9847 359.56836 344.98786 359.54883 344.99609 C 359.57101 344.9852 359.59298 344.97364 359.61523 344.96289 C 359.62798 344.9488 359.62624 344.95296 359.63867 344.93945 C 359.61696 344.26122 359.70343 343.68813 359.90039 343.20312 C 360.38592 342.00768 361.08268 335.24476 361.44727 328.17383 C 362.46342 308.46597 363.5352 302.42893 367.51758 293.99805 L 371.13477 286.3418 L 374.47266 294.21289 C 377.42061 301.1631 378.03524 304.35338 379.7207 321.46094 C 380.77061 332.11765 381.88571 341.89284 382.19922 343.18359 C 382.34489 343.78335 382.36655 344.31762 382.30078 344.73438 C 382.68961 345.42756 382.57945 345.2294 382.5 345.08789 C 382.54472 345.07296 382.63931 345.23718 382.67773 345.3125 C 382.71049 345.37669 382.73322 345.44557 382.76172 345.51172 C 382.98044 345.68554 383.18444 345.88306 383.31055 346.09766 C 383.47304 346.37415 383.49136 346.42731 383.50977 346.47852 C 383.44788 346.3265 383.45951 346.23983 383.62305 346.50195 C 383.59645 346.4126 383.92151 346.69278 384.04688 346.79297 C 384.15408 346.87865 384.22537 346.96187 384.2832 347.02734 C 384.29955 347.03441 384.28729 347.02421 384.32422 347.04297 C 384.33728 347.06393 384.33615 347.06202 384.34375 347.07422 C 384.45004 347.09098 384.31084 347.06353 384.55664 347.10547 C 384.57129 347.10791 384.58524 347.11339 384.59961 347.11719 C 384.93185 347.22886 385.14202 347.29284 385.26172 347.33398 C 385.28274 347.33374 385.3263 347.32713 385.33594 347.32812 C 385.7009 347.40358 385.83999 347.43081 385.96484 347.46289 C 385.97778 347.46235 386.0045 347.46131 386.01367 347.46094 C 386.42635 347.07181 387.09987 346.81445 387.86133 346.81445 C 389.11071 346.81445 390.99258 345.9945 392.04297 344.99023 C 394.40474 342.73218 394.30209 335.47105 391.58789 312.47656 C 389.89519 298.13604 389.30161 295.76031 384.71094 284.98047 C 381.9473 278.49087 379.68555 272.97135 379.68555 272.71484 C 379.68555 272.51459 380.75459 272.34853 382.22656 272.2832 C 380.59316 270.86831 380.596 271.4262 380.625 269.79492 C 380.626 269.75362 380.60498 269.47108 380.64258 269.42188 C 380.64558 269.41787 380.67446 269.5162 380.67188 269.5 C 380.64637 269.34267 380.61434 269.18614 380.58594 269.0293 C 380.68883 268.1075 380.58731 268.23047 380.78125 267.73047 C 380.82255 267.62389 380.82464 267.33623 380.91016 267.41211 C 380.92442 267.42477 380.9279 267.44277 380.93359 267.45898 L 380.95898 267.4668 C 380.96722 267.29757 380.98051 267.12777 381.00586 266.95703 C 381.01596 266.88883 381.06019 266.68718 381.05469 266.75586 C 381.04769 266.83856 381.02091 266.91683 381.00391 266.99805 L 381.51367 266.05273 C 381.49715 265.84073 381.88208 265.03242 382.58984 263.74609 L 382.58984 263.43359 C 382.58984 261.2131 383.63391 260.03921 384.75 259.88477 C 390.94915 248.60923 392.35325 242.08048 393.99805 220.64844 C 395.76258 197.65641 395.24547 194.7183 389.32617 194.07422 C 389.00719 194.03951 388.70354 194.02059 388.41406 194.02148 z M 384.34375 347.07422 C 384.33693 347.07314 384.33641 347.07325 384.33008 347.07227 L 384.33203 347.07422 C 384.34099 347.07985 384.34209 347.08008 384.35156 347.08594 C 384.34942 347.08245 384.34665 347.07888 384.34375 347.07422 z M 205.37891 195.00195 C 205.37698 195.03 205.37668 195.06469 205.37305 195.08789 C 205.38186 195.09542 205.3918 195.10156 205.40039 195.10938 C 205.42468 195.0928 205.44486 195.07894 205.4668 195.0625 C 205.44198 195.0471 205.411 195.02359 205.37891 195.00195 z M 202.70898 195.75 C 202.71475 195.75333 202.72079 195.75644 202.72656 195.75977 C 202.74506 195.76377 202.8015 195.77588 202.7832 195.77148 C 202.75709 195.76532 202.73406 195.75671 202.70898 195.75 z M 164.0957 196.28516 C 162.63729 196.22247 161.30103 196.73124 160.50195 198.00391 C 159.47849 199.63393 155.00082 216.53392 151.94727 230.29492 C 150.74635 235.70695 150.32635 241.88087 150.45898 252.15039 C 150.56065 260.02242 150.33285 268.59517 149.95312 271.20117 C 149.45385 274.62751 149.69821 276.75468 150.83789 278.88086 C 152.01614 281.07901 152.41411 284.913 152.41211 294.07031 C 152.40993 304.89864 151.95561 308.10768 148.49805 321.74609 C 144.51793 337.44578 143.79271 343.02912 145.73828 346.63672 C 145.95283 346.73041 146.18379 346.8382 146.41992 346.99609 C 146.99431 347.12718 147.53053 347.38904 148.07031 347.61523 C 148.16131 347.65333 148.44201 347.74968 148.34766 347.7207 C 147.59959 347.49093 147.94809 347.54985 147.15039 347.55469 C 147.33617 347.70869 147.5285 347.87459 147.64258 348.00586 C 148.20681 347.87409 148.92811 347.57116 149.23047 347.88086 C 149.23594 347.88646 149.22829 347.88326 149.23047 347.88672 C 149.49523 347.98464 149.76296 348.07806 150.01953 348.19531 C 150.16893 348.26359 150.28069 348.33378 150.36523 348.39648 L 150.36719 348.39844 C 151.09084 348.42864 151.16447 348.37334 151.37695 348.45508 C 151.60251 348.39788 152.53019 348.40293 152.61523 348.4043 C 152.89059 348.41404 153.16602 348.40842 153.44141 348.4082 C 153.55554 348.20327 153.68483 348.01317 153.79883 347.96289 C 153.82939 347.86078 153.84217 347.84127 153.87891 347.71094 C 153.95661 347.62484 154.001 347.51063 154.08594 347.43164 C 154.17681 347.34711 154.27658 347.27309 154.375 347.19727 C 154.35342 347.20676 154.32682 347.22602 154.30859 347.22852 C 154.2042 347.2428 154.31985 347.1597 154.45898 347.06445 C 154.53149 346.93564 154.74753 346.63116 154.79688 346.57617 C 154.95055 346.12871 155.11005 345.69185 155.29297 345.28125 C 156.33474 342.94278 159.03424 332.99986 161.29102 323.18555 C 165.35043 305.53195 165.38513 305.20844 164.55664 292.95117 C 163.89757 283.2004 164.01201 279.76067 165.09766 276.80078 C 166.12279 274.0059 166.21886 272.14473 165.4707 269.55469 C 164.93663 267.70577 164.80993 266.7106 165.32227 265.68945 C 165.28911 265.63702 165.27637 265.60682 165.26562 265.58008 C 165.21864 265.53672 165.16929 265.49522 165.125 265.44922 C 165.09274 265.41571 165.19457 265.50869 165.23047 265.54102 C 165.21265 265.52483 165.21653 265.52556 165.19922 265.50977 C 165.22672 265.53489 165.21424 265.52198 165.25586 265.5625 L 165.25586 265.56055 C 165.23116 265.53695 165.20648 265.51355 165.18164 265.49023 C 165.0926 265.40676 165.03646 265.33282 164.99219 265.25586 C 165.04038 265.30853 165.12466 265.40828 165.09766 265.36523 C 165.04803 265.2861 164.98846 265.21497 164.93164 265.14062 C 164.93027 265.13732 164.92715 265.13618 164.92578 265.13281 C 164.90496 265.10574 164.88686 265.07719 164.86523 265.05078 C 164.89353 265.09029 164.92504 265.13658 164.92578 265.16602 C 164.92778 265.23232 164.83234 265.06574 164.81445 265.00195 C 164.79479 264.93193 164.78955 264.85883 164.77734 264.78711 C 164.71423 264.73166 164.67428 264.64733 164.5957 264.41406 C 164.6004 264.42954 164.60301 264.44451 164.60742 264.45898 C 164.59902 264.43208 164.57303 264.35231 164.58203 264.37891 C 164.59129 264.40548 164.5882 264.3918 164.5957 264.41406 C 164.58444 264.37693 164.5773 264.34516 164.56641 264.30664 C 164.56206 264.29994 164.53205 264.26661 164.52539 264.23828 C 164.48769 264.15588 164.44751 264.07563 164.41211 263.99219 C 164.35875 263.86649 164.33057 263.74182 164.3125 263.61133 C 164.20941 263.47469 164.16485 263.37493 164.11719 263.04297 C 164.11319 263.01217 164.11814 262.98032 164.11914 262.94922 C 164.12102 262.92005 164.12323 262.89048 164.125 262.86133 C 164.00434 262.73215 163.92458 262.58961 163.92969 262.25 C 163.92969 262.2237 163.90349 262.17152 163.92969 262.16992 C 163.92898 262.16991 163.93002 261.9931 163.92969 261.98047 C 163.92974 261.85473 163.93014 261.72926 163.92969 261.60352 C 163.92953 261.48522 163.92969 261.36634 163.92969 261.24805 C 163.92576 261.12151 163.93033 260.99493 163.94336 260.86914 C 163.93854 260.85842 163.92398 260.82128 163.91992 260.81055 C 163.91609 260.80622 163.91495 260.80379 163.91211 260.80078 C 163.90651 260.78373 163.90013 260.76705 163.89453 260.75 C 163.84833 260.68484 163.77571 260.57664 163.80664 260.61914 C 163.83617 260.65969 163.86291 260.70167 163.89258 260.74219 C 163.88962 260.73317 163.88773 260.72386 163.88477 260.71484 C 163.88162 260.7044 163.87493 260.69086 163.87109 260.67773 C 163.83362 260.56369 163.79724 260.44998 163.75977 260.33594 C 163.77487 260.36271 163.7297 260.28135 163.7207 260.25195 C 163.71386 260.2292 163.71163 260.20501 163.70703 260.18164 C 163.67271 260.06613 163.6545 259.94181 163.62695 259.76758 C 163.60417 259.67381 163.58946 259.5714 163.55273 259.38672 C 163.55473 259.36092 163.5575 259.28523 163.5625 259.31055 C 163.5736 259.36275 163.5686 259.41859 163.5918 259.4668 C 163.63453 259.55719 163.69372 259.63849 163.74805 259.72266 L 163.50391 259.15039 C 163.50706 259.17038 163.51073 259.19087 163.51367 259.21094 C 163.52224 259.23939 163.52866 259.26847 163.53711 259.29688 C 163.54041 259.30797 163.52448 259.27693 163.52148 259.26562 C 163.51765 259.24778 163.51632 259.22902 163.51367 259.21094 C 163.45512 259.0166 163.3969 258.82203 163.42578 258.61719 C 163.42614 258.61331 163.42737 258.60935 163.42773 258.60547 C 163.40923 258.56384 163.42677 258.60381 163.40039 258.54492 C 163.38919 258.44155 163.43651 258.87539 163.34961 258.36914 C 163.32741 258.2398 163.31293 258.10936 163.30273 257.97852 C 163.30239 257.97322 163.30464 257.9682 163.30469 257.96289 C 163.29245 257.93932 163.27976 257.91618 163.26758 257.89258 C 163.24898 257.85688 163.17269 257.78626 163.21289 257.78516 C 163.2309 257.78477 163.24264 257.79957 163.25391 257.81445 C 163.07384 257.55942 163.05201 257.49496 163.01758 257.21094 C 162.98343 257.10424 162.94811 256.99903 162.91992 256.89062 C 162.9057 256.83578 162.91743 256.68088 162.92773 256.58789 C 162.81773 256.49058 162.7168 256.38164 162.63477 256.26758 C 162.49084 256.06746 162.55377 255.74096 162.54297 255.50977 C 162.5385 255.41465 162.54218 255.33893 162.55273 255.27344 C 161.56335 252.33534 162.91837 242.51915 166.67969 225.39453 C 169.11474 214.30818 171.10742 204.20603 171.10742 202.94531 C 171.10742 199.32659 167.3042 196.42306 164.0957 196.28516 z M 163.89258 260.74219 C 163.89342 260.74474 163.89369 260.74745 163.89453 260.75 C 163.89692 260.75336 163.89794 260.75239 163.90039 260.75586 C 163.8998 260.75404 163.89709 260.74995 163.89648 260.74805 C 163.89509 260.74614 163.89397 260.74409 163.89258 260.74219 z M 165.25586 265.5625 C 165.26087 265.56752 165.23901 265.5487 165.23047 265.54102 C 165.24718 265.55619 165.24611 265.55748 165.25977 265.57031 C 165.2595 265.56899 165.2557 265.56334 165.25586 265.5625 z M 599.64062 196.45898 C 598.24897 196.5038 596.90083 197.17936 595.92188 198.64648 C 593.98874 201.5436 591.13843 211.78142 587.82812 227.70898 C 585.44241 239.18808 585.25819 241.63357 585.87891 253.74219 C 586.26807 261.33374 586.18879 267.08645 585.69336 267.06055 C 585.52266 267.05162 585.19686 266.91019 584.81836 266.71875 C 584.84091 266.75028 584.87219 266.77673 584.89062 266.81055 C 584.96722 266.95108 584.88064 267.1354 584.83594 267.28906 C 584.79104 267.44326 584.69708 267.57914 584.625 267.72266 C 584.621 267.73066 584.60392 267.75294 584.60742 267.74414 C 584.62815 267.69095 584.65067 267.6381 584.67383 267.58594 C 584.67348 267.58271 584.67417 267.5794 584.67383 267.57617 C 584.62582 267.67378 584.57933 267.77256 584.5293 267.86914 C 584.52211 267.883 584.54208 267.84096 584.54883 267.82617 C 584.54858 267.81943 584.55752 267.73975 584.56445 267.68555 C 584.52368 267.83595 584.48904 267.98726 584.42969 268.13281 C 584.63953 268.05632 584.80331 267.92782 584.85352 267.9043 C 584.85337 267.89041 584.85423 267.87699 584.85547 267.86328 C 584.85583 267.85928 584.85742 267.8714 584.85742 267.875 C 584.86042 267.915 584.86423 267.9541 584.86523 267.99414 C 584.86923 268.10412 584.86719 268.1498 584.86719 268.25781 C 584.86419 268.38912 584.86423 268.52102 584.86523 268.65234 C 584.86522 268.73194 584.86553 268.81106 584.86523 268.89062 C 584.86505 268.93991 584.85766 268.98207 584.85547 269.0293 C 584.96842 268.96466 584.9069 269.81033 584.67188 271.29492 C 584.33727 273.40781 584.69574 276.00577 585.55859 277.72656 C 586.35479 279.3144 587.32494 285.59196 587.71289 291.67773 C 588.39951 302.44876 588.29855 303.23291 583.91406 321.20703 C 581.43675 331.36262 579.4082 340.94841 579.4082 342.50781 C 579.4082 344.0672 580.51634 346.48059 581.86914 347.87109 C 582.06455 348.07195 582.23178 348.26493 582.39844 348.45898 C 582.47585 348.44018 582.55573 348.42639 582.63477 348.43359 C 582.67624 348.43747 582.71521 348.45155 582.75586 348.46094 L 582.75781 348.46094 C 582.75734 348.46025 582.76763 348.45986 582.77148 348.45898 C 582.78408 348.45809 582.88048 348.45408 582.88672 348.45508 C 583.19491 348.51938 583.13243 348.49556 583.3125 348.58789 C 583.3491 348.60669 583.38321 348.63053 583.42188 348.64453 C 583.42687 348.64653 583.42669 348.63576 583.42969 348.63086 C 583.46749 348.64126 583.50665 348.64741 583.54297 348.66211 C 583.5602 348.66906 583.57678 348.67797 583.59375 348.68555 C 583.65592 348.683 583.71799 348.6768 583.78125 348.67969 C 583.90117 348.68169 584.0207 348.67781 584.14062 348.67773 C 584.25482 348.67797 584.36823 348.67975 584.48242 348.67969 C 584.68229 348.67369 584.88512 348.67971 585.07422 348.75391 C 585.12242 348.77271 585.16946 348.79541 585.2168 348.81641 C 585.2088 348.80611 585.17961 348.79301 585.19141 348.78711 C 585.21771 348.77401 585.25 348.78625 585.2793 348.78516 C 585.38259 348.78116 585.36754 348.77692 585.45508 348.76562 C 585.64637 348.76763 585.83599 348.76858 586.02734 348.76758 C 586.19833 348.76674 586.37003 348.76752 586.54102 348.76758 C 586.68681 348.76747 586.83274 348.76757 586.97852 348.76758 L 587.12109 348.76758 C 587.12809 348.75958 587.13072 348.74549 587.14062 348.74219 C 587.27999 348.69646 587.3879 348.69177 587.52344 348.67188 C 587.5411 348.66089 587.55765 348.65006 587.57617 348.64062 C 587.63437 348.61133 587.69444 348.58324 587.75391 348.55664 C 587.78536 348.54261 587.81779 348.53078 587.84961 348.51758 C 587.85906 348.4941 587.89279 348.48413 587.91406 348.4668 C 587.99476 348.398 587.87727 348.49682 588.16406 348.33789 C 588.16942 348.33499 588.15584 348.34054 588.14648 348.34375 L 588.14453 348.34375 C 588.12442 348.35076 588.09827 348.36056 588.10938 348.35547 C 588.12647 348.34766 588.14452 348.3406 588.16211 348.33398 C 588.1633 348.33314 588.16483 348.33287 588.16602 348.33203 C 588.18877 348.32351 588.21209 348.31435 588.23438 348.30469 C 588.25098 348.29769 588.19999 348.31477 588.18359 348.32227 C 588.32375 348.22382 588.47462 348.14239 588.62695 348.06445 C 588.74511 348.03537 588.86638 348.01281 588.98438 347.98242 L 588.98633 347.98242 C 589.00765 347.96123 589.02549 347.9372 589.04688 347.91602 C 588.98969 347.92406 588.92771 347.93422 588.89258 347.93555 C 588.88658 347.93578 588.9025 347.92873 588.9082 347.92773 C 588.9578 347.91213 589.00874 347.89967 589.05859 347.88477 C 589.05988 347.88464 589.06121 347.88489 589.0625 347.88477 C 589.0893 347.86143 589.12727 347.82256 589.11523 347.8418 C 589.10546 347.8574 589.09024 347.86895 589.07812 347.88281 C 589.08006 347.88264 589.08205 347.88298 589.08398 347.88281 C 589.10703 347.85906 589.17247 347.79212 589.19922 347.79297 C 589.25818 347.72285 589.31482 347.64767 589.39062 347.59766 C 589.40456 347.58166 589.41971 347.56486 589.43359 347.54883 C 589.53742 347.47763 589.56487 347.45096 589.70703 347.4043 C 589.7392 347.39374 589.7731 347.38997 589.80664 347.38477 C 589.85628 347.27816 589.90564 347.15237 589.95508 347.08398 C 590.61526 346.1708 593.0512 337.78109 595.36719 328.44141 C 599.41954 312.0995 599.57818 310.84755 599.57812 295.1875 C 599.57812 286.23751 599.91056 278.4763 600.31641 277.93945 C 601.61444 276.22238 601.10601 268.76436 599.57812 267.10742 C 598.4675 265.90298 598.10156 262.65989 598.10156 254.00195 C 598.10156 244.43231 598.76359 239.47469 602.03711 224.52539 C 604.2016 214.64077 605.97266 205.22605 605.97266 203.60352 C 605.97266 199.31396 602.70228 196.36039 599.64062 196.45898 z M 589.04688 347.91602 C 589.04899 347.91572 589.0506 347.91632 589.05273 347.91602 C 589.0608 347.90676 589.07251 347.89468 589.07812 347.88867 C 589.07558 347.88961 589.07284 347.88967 589.07031 347.89062 C 589.06258 347.89914 589.05503 347.90787 589.04688 347.91602 z M 589.05273 347.91602 C 589.03243 347.93932 589.032 347.93097 588.98633 347.98242 C 589.05433 347.96483 589.12254 347.94882 589.18555 347.91797 C 589.22287 347.89971 589.17304 347.90401 589.11914 347.91016 C 589.11371 347.91717 589.10868 347.92447 589.10352 347.93164 C 589.10721 347.92442 589.11203 347.9177 589.11523 347.91016 C 589.09148 347.91303 589.08104 347.91204 589.05273 347.91602 z M 389.55273 197.04102 L 391.98438 197.04102 L 391.79688 211.82422 C 391.50146 235.22149 389.61284 245.07667 382.86523 258.40039 C 381.51436 261.0678 380.13473 263.2364 379.80078 263.2207 C 379.46685 263.20498 378.08718 262.07417 376.73438 260.70703 C 374.47451 258.42319 374.38997 257.98151 375.6875 255.27148 C 382.36165 241.33166 383.32524 237.26331 384.05664 219.98242 C 384.84645 201.32129 385.87209 197.04102 389.55273 197.04102 z M 356.21484 197.68359 C 358.86858 197.68359 359.67454 200.98857 362.35742 222.86328 C 364.21753 238.02963 365.4143 244.01351 367.84766 250.3125 C 369.55913 254.74279 370.8211 258.51886 370.65039 258.70508 C 370.47967 258.89129 369.33034 259.73001 368.09766 260.56836 C 366.86498 261.40671 366.11593 262.64283 366.43359 263.31445 C 367.12025 264.76626 366.78266 264.83968 365.35938 263.55078 C 364.03404 262.35167 357.48109 248.02009 356.69727 244.60742 C 355.63311 239.97417 353.177 220.11349 352.51172 210.75977 C 351.81081 200.90509 352.72274 197.68359 356.21484 197.68359 z M 165.6543 199.11914 C 169.20434 198.95821 168.89649 203.60331 164.61523 223.39453 C 161.47013 237.93358 160.30192 245.66848 160.29492 252 C 160.28618 259.69307 160.07149 260.67773 158.39844 260.67773 C 157.36045 260.67773 155.86542 261.00268 155.07617 261.39844 C 153.91997 261.9782 153.50858 260.04122 152.96289 251.43359 C 152.3525 241.80542 152.59719 239.29148 155.42578 225.9668 C 159.40415 207.22576 162.05239 199.74125 164.89258 199.21289 C 165.16349 199.16249 165.41763 199.12987 165.6543 199.11914 z M 600.25195 199.2793 C 601.12706 199.21202 601.99087 199.6416 602.75391 200.63867 C 604.26824 202.61745 604.07705 204.13442 600.01172 222.40234 C 596.39393 238.65925 595.6613 243.75072 595.75 252 L 595.85742 261.96484 L 592.20117 261.96484 L 588.54688 261.96484 L 587.90039 251.83984 C 587.25042 241.65577 588.52804 233.78549 595.31055 206.21484 C 596.35129 201.98426 598.32671 199.42731 600.25195 199.2793 z M 198.92578 200.01953 C 198.93351 200.06238 198.94451 200.08718 198.95117 200.12891 C 198.95585 200.13599 198.96019 200.14328 198.96484 200.15039 C 198.96501 200.1481 198.97464 200.23493 198.95703 200.05664 C 198.96743 200.08804 198.98008 200.12024 198.98828 200.15234 C 198.9906 200.1614 198.99205 200.17062 198.99414 200.17969 C 198.99553 200.14822 198.99501 200.11736 198.99609 200.08594 C 198.97095 200.05531 198.94829 200.03896 198.92578 200.01953 z M 198.95508 200.14648 C 198.96783 200.22838 198.9632 200.14978 198.96484 200.16016 C 198.96143 200.15576 198.95858 200.15081 198.95508 200.14648 z M 199.05469 200.16992 C 199.05511 200.17408 199.0562 200.17742 199.05664 200.18164 C 199.06034 200.18721 199.06002 200.17691 199.06445 200.18555 C 199.06095 200.18038 199.05814 200.17489 199.05469 200.16992 z M 199.06445 200.18555 C 199.08178 200.2193 199.10411 200.27362 199.125 200.32031 C 199.15168 200.33819 199.14592 200.33676 199.16797 200.35156 C 199.1622 200.34191 199.17371 200.35397 199.13086 200.28125 C 199.10677 200.24027 199.08659 200.21825 199.06445 200.18555 z M 199.0625 200.24414 C 199.06476 200.26481 199.06453 200.28137 199.06641 200.30078 C 199.07614 200.31512 199.08625 200.32919 199.0957 200.34375 C 199.09584 200.34123 199.09912 200.34204 199.09961 200.33984 C 199.07927 200.30936 199.07512 200.27585 199.0625 200.24414 z M 201.2793 202.65625 C 201.30765 202.68333 201.33358 202.71267 201.36328 202.73828 C 201.38396 202.75612 201.33493 202.70339 201.31055 202.67578 C 201.29971 202.66909 201.28811 202.66351 201.2793 202.65625 z M 321.49023 202.82617 C 321.76079 202.82617 320.94082 204.27132 319.66992 206.03906 C 318.39902 207.80679 317.13775 209.25391 316.86719 209.25391 C 316.59663 209.25391 317.4166 207.80679 318.6875 206.03906 C 319.9584 204.27132 321.21967 202.82617 321.49023 202.82617 z M 201.47461 202.87695 C 201.49479 202.89823 201.50621 202.91662 201.5293 202.94141 C 201.52901 202.93949 201.52958 202.93746 201.5293 202.93555 C 201.32843 202.72777 201.37381 202.77066 201.47461 202.87695 z M 200.70703 203.73242 C 200.69844 203.75024 200.69026 203.76459 200.68164 203.7832 C 200.69545 203.78145 200.71468 203.7772 200.72852 203.77539 C 200.72125 203.76128 200.71428 203.74681 200.70703 203.73242 z M 106.02539 204.11133 C 106.29595 204.11133 105.47598 205.55649 104.20508 207.32422 C 102.93419 209.09195 101.6729 210.53906 101.40234 210.53906 C 101.13178 210.53906 101.95176 209.09195 103.22266 207.32422 C 104.49355 205.55649 105.75483 204.11133 106.02539 204.11133 z M 461.46484 219.82812 C 461.16312 219.84696 460.79688 219.8661 460.51953 219.88477 C 460.55723 219.93173 460.59475 219.97871 460.63281 220.02539 C 460.76089 220.0506 460.91431 220.04528 460.99023 220.13086 C 461.15224 220.02716 461.29745 219.9301 461.46484 219.82812 z M 475.12891 220.38281 C 475.13211 220.38594 475.14517 220.39913 475.14844 220.40234 C 475.17019 220.40159 475.19092 220.40113 475.21289 220.40039 C 475.18508 220.39485 475.15673 220.38837 475.12891 220.38281 z M 506.41016 229.75781 L 506.29102 229.88477 C 506.30225 229.89277 506.31298 229.90198 506.32422 229.91016 C 506.37503 229.87096 506.41581 229.82913 506.41211 229.76953 C 506.41187 229.76564 506.41042 229.7617 506.41016 229.75781 z M 506.78125 230.24609 C 507.17838 230.53413 507.56738 230.73648 507.94141 230.84961 C 507.55684 230.64485 507.169 230.44508 506.78125 230.24609 z M 443.1543 231.1582 C 443.05076 231.144 443.02218 231.17078 443.11719 231.27734 C 443.54113 231.75283 443.87726 232.086 444.16406 232.34375 C 444.17529 232.24242 444.19734 232.1667 444.22852 232.11328 C 444.25112 231.85589 444.27596 231.55194 444.27344 231.44141 C 443.85167 231.37375 443.35793 231.18614 443.1543 231.1582 z M 516.92578 233.61914 C 516.98706 233.67392 517.05005 233.72926 517.11328 233.78516 C 517.1248 233.74423 517.13842 233.72141 517.15039 233.68164 C 517.0772 233.65701 517.00106 233.63867 516.92578 233.61914 z M 442.94336 234.45117 C 442.94439 234.45367 442.9462 234.45655 442.94727 234.45898 C 443.0242 234.52533 443.15624 234.65636 443.10742 234.60352 C 442.99772 234.48477 443.02022 234.51363 442.95703 234.45117 C 442.95222 234.45083 442.94816 234.45152 442.94336 234.45117 z M 443.67578 236.24023 C 443.67349 236.23137 443.68087 236.27018 443.67969 236.26758 C 443.68235 236.27635 443.685 236.28892 443.6875 236.29688 C 443.68288 236.27816 443.6806 236.2589 443.67578 236.24023 z M 443.70117 236.43359 C 443.71008 236.48841 443.70716 236.50074 443.71484 236.5332 C 443.72148 236.56129 443.7399 236.58676 443.75586 236.61328 C 443.74576 236.56439 443.73534 236.51554 443.72461 236.4668 C 443.71813 236.4562 443.70618 236.44285 443.70117 236.43359 z M 527.19141 237.08984 C 527.18489 237.09778 527.17719 237.10474 527.17578 237.10742 C 527.17178 237.11542 527.17097 237.12431 527.16797 237.13281 C 527.16897 237.14791 527.16492 237.19203 527.16992 237.17773 C 527.1941 237.10656 527.18107 237.13043 527.19141 237.08984 z M 444.24805 237.46875 C 444.36112 237.61364 444.4837 237.75217 444.60156 237.89258 C 444.62686 237.92268 444.72922 237.98057 444.70312 237.95117 C 444.55647 237.78573 444.40107 237.62837 444.24805 237.46875 z M 444.93164 239.01953 C 444.93728 239.03073 444.93939 239.04363 444.94531 239.05469 C 444.97701 239.11379 445.12343 239.25435 445.08008 239.20312 C 445.01678 239.12843 444.9812 239.08013 444.93164 239.01953 z M 526.81445 239.50781 C 526.79728 239.55841 526.77414 239.60881 526.75 239.65625 C 526.75936 239.64144 526.75974 239.64266 526.77344 239.62109 C 526.77512 239.61769 526.77761 239.61473 526.7793 239.61133 C 526.78001 239.61041 526.78038 239.60536 526.78125 239.60547 C 526.79566 239.57647 526.81161 239.54839 526.82617 239.51953 C 526.82293 239.51615 526.81774 239.51131 526.81445 239.50781 z M 526.45508 239.82227 C 526.47159 239.89281 526.48994 239.9625 526.50586 240.0332 C 526.52694 239.99775 526.54805 239.9623 526.57031 239.92773 C 526.58379 239.90807 526.57758 239.91538 526.58789 239.90039 C 526.57583 239.88598 526.57237 239.87157 526.55469 239.85742 C 526.52644 239.83481 526.49119 239.82882 526.45508 239.82227 z M 525.48633 241.29102 C 525.5192 241.26638 525.53053 241.25992 525.45508 241.31055 C 525.45045 241.31773 525.44514 241.32394 525.44141 241.33203 C 525.45922 241.31706 525.47172 241.30196 525.48633 241.29102 z M 525.45117 241.57812 C 525.48414 241.54169 525.39345 241.61155 525.32812 241.66016 C 525.32989 241.66154 525.33026 241.66267 525.33203 241.66406 C 525.37554 241.63953 525.4184 241.61436 525.45117 241.57812 z M 532.17383 242.68945 C 532.17357 242.69856 532.17415 242.70769 532.17383 242.7168 C 532.18964 242.71483 532.20691 242.71086 532.22266 242.70898 C 532.20658 242.70193 532.18992 242.69647 532.17383 242.68945 z M 437.76367 243.47461 C 437.78418 243.54634 437.79046 243.54957 437.80469 243.58984 C 437.80287 243.58193 437.80116 243.57419 437.79883 243.56641 C 437.78983 243.53491 437.75457 243.44293 437.76367 243.47461 z M 534.77539 244.37305 C 534.76796 244.39238 534.75697 244.41017 534.75 244.42969 C 534.7228 244.50589 534.71036 244.75109 534.72656 244.67188 C 534.74166 244.59818 534.75938 244.47652 534.77539 244.37305 z M 436.90625 244.9375 C 436.96146 245.20949 437.00344 245.35521 437.03906 245.47656 C 437.04262 245.4179 437.05432 245.40095 437.05469 245.33594 C 437.05513 245.25724 437.01763 245.18319 436.99023 245.10938 C 436.96813 245.04968 436.89355 244.87515 436.90625 244.9375 z M 175.38281 248.26953 C 175.35511 248.28888 175.32655 248.30685 175.29883 248.32617 C 175.27436 248.38155 175.27612 248.37078 175.24023 248.45508 C 175.26425 248.443 175.27417 248.43723 175.29688 248.42578 C 175.32267 248.37809 175.35687 248.31745 175.38281 248.26953 z M 175.24023 248.45508 C 175.0251 248.56331 175.06164 248.54973 174.73047 248.71289 C 174.7195 248.72021 174.70825 248.72708 174.69727 248.73438 C 174.64625 248.76606 174.88447 248.66064 175.22266 248.49805 C 175.23575 248.46703 175.22847 248.4827 175.24023 248.45508 z M 175.22266 248.49805 C 175.17482 248.61138 175.21952 248.48937 175.15234 248.65234 C 175.1319 248.69723 175.09982 248.77817 175.07422 248.83398 C 175.13229 248.72647 175.21071 248.58531 175.26953 248.47656 C 175.23829 248.49188 175.25293 248.48349 175.22266 248.49805 z M 175.29297 248.33008 C 175.25946 248.35342 175.22496 248.37516 175.19141 248.39844 C 175.22233 248.37858 175.2568 248.36459 175.28711 248.34375 C 175.28832 248.34292 175.29163 248.33132 175.29297 248.33008 z M 432.91406 248.79297 C 432.77314 248.87215 432.63165 248.94892 432.50195 249.00586 C 432.55264 249.122 432.59228 249.19354 432.64453 249.31641 C 432.73034 249.19009 432.82263 249.04893 432.91406 248.91016 C 432.91406 248.8711 432.91398 248.83203 432.91406 248.79297 z M 432.91211 249.7168 C 432.89062 249.78511 432.8752 249.81705 432.85156 249.90039 C 432.7333 250.3174 432.60518 250.73601 432.41797 251.12695 C 432.30196 251.36919 432.16592 251.60086 432.02539 251.83008 L 432.36914 251.46094 C 432.56075 251.25544 432.72914 251.0854 432.91797 250.88477 C 432.9617 250.56641 432.92168 250.25106 432.91016 249.91992 C 432.90849 249.8521 432.91166 249.78457 432.91211 249.7168 z M 432.26758 249.82031 C 432.17761 249.84646 432.07941 249.87152 431.97461 249.89258 C 431.90599 249.99423 431.83185 250.09098 431.75391 250.18164 C 431.93099 250.13554 432.09919 250.01157 432.26562 249.82227 L 432.26758 249.82031 z M 431.66797 249.95117 C 431.50882 249.98047 431.35694 250.01242 431.21094 250.05078 C 431.24068 250.07195 431.26992 250.09292 431.29883 250.10938 C 431.38327 250.08131 431.48641 250.05539 431.53711 250.03125 C 431.58281 250.00948 431.62376 249.97716 431.66797 249.95117 z M 540.66797 250.63086 C 540.62433 250.71783 540.56652 250.84344 540.50781 250.97266 C 540.52049 250.97215 540.53033 250.97315 540.54297 250.97266 C 540.6069 250.85405 540.67312 250.72284 540.70703 250.63477 C 540.69568 250.63351 540.67942 250.63212 540.66797 250.63086 z M 540.75977 250.64062 C 540.70405 250.75238 540.65244 250.86314 540.60547 250.9707 C 540.69209 250.9675 540.76314 250.96929 540.84766 250.9668 C 540.85051 250.86184 540.85621 250.75732 540.85938 250.65234 C 540.83144 250.64927 540.78839 250.64379 540.75977 250.64062 z M 540.72852 254.61328 C 540.69533 254.64168 540.67077 254.67245 540.63867 254.70117 C 540.66545 254.78124 540.69127 254.86168 540.71875 254.94141 C 540.71987 254.83209 540.72701 254.72261 540.72852 254.61328 z M 162.94531 256.60156 C 162.94998 256.6383 162.95181 256.67552 162.9668 256.70898 C 162.99739 256.77751 163.04142 256.83895 163.08203 256.90234 C 163.04793 256.81267 163.0138 256.72352 162.98242 256.63281 C 162.96975 256.62274 162.95766 256.61214 162.94531 256.60156 z M 162.99805 257.07227 C 162.99605 257.05867 162.99822 257.09958 163 257.11328 C 163.00272 257.13234 163.00582 257.12462 163.00781 257.13867 C 163.00273 257.10249 163.00525 257.11749 162.99805 257.07227 z M 163.36133 258.09766 C 163.36218 258.1015 163.36243 258.10553 163.36328 258.10938 C 163.37128 258.12457 163.39342 258.1701 163.38672 258.1543 C 163.37851 258.13526 163.37012 258.11644 163.36133 258.09766 z M 163.65039 259.83008 C 163.65398 259.84642 163.65539 259.86287 163.66016 259.87891 C 163.66916 259.90971 163.71677 259.99491 163.70117 259.9668 C 163.67032 259.91133 163.66505 259.87323 163.65039 259.83008 z M 163.90625 260.76172 C 163.9076 260.76495 163.90877 260.76826 163.91016 260.77148 C 163.92951 260.79909 163.92735 260.79546 163.94531 260.82227 C 163.9455 260.82098 163.94512 260.81965 163.94531 260.81836 C 163.93203 260.79957 163.9198 260.78033 163.90625 260.76172 z M 163.92969 260.82031 C 163.93414 260.82916 163.93656 260.839 163.94141 260.84766 C 163.94209 260.84888 163.94257 260.85025 163.94336 260.85156 C 163.94398 260.84637 163.94462 260.84112 163.94531 260.83594 C 163.93794 260.82751 163.93748 260.82931 163.92969 260.82031 z M 163.9668 260.84766 C 163.96698 260.85043 163.96856 260.85484 163.96875 260.85742 C 163.97339 260.86486 163.97694 260.8689 163.98047 260.875 C 163.98321 260.87974 163.96976 260.86356 163.96875 260.86328 C 163.9692 260.86882 163.97404 260.87988 163.97461 260.88477 C 164.01595 260.93647 164.07516 261.00909 164.05469 260.97461 C 164.02836 260.93023 163.99614 260.89012 163.9668 260.84766 z M 419.45312 260.89844 C 419.43213 260.89992 419.41402 260.90306 419.39258 260.9043 C 419.37673 260.91211 419.36112 260.92007 419.3457 260.92773 L 419.45312 260.89844 z M 164.00977 261.03711 C 164.01608 261.05321 164.00892 261.05211 164.01758 261.07422 C 164.02058 261.08122 164.03465 261.10085 164.03125 261.09375 C 164.01468 261.05868 164.02197 261.06226 164.00977 261.03711 z M 376.03516 262.24414 C 376.20514 262.28542 376.54927 262.56886 377.03711 263.08594 C 378.80592 264.9608 379.3323 266.48038 377.77734 265.22461 C 377.22786 264.78085 377.08001 266.32944 377.41602 269.03516 C 377.83092 272.37601 377.51325 274.27129 376.22266 276.13477 C 372.60081 281.36439 365.91211 277.865 365.91211 270.74023 C 365.91211 265.81341 369.09378 262.75255 373.29102 263.64258 C 375.83848 264.18277 376.58951 263.96969 376.07617 262.85156 C 375.8702 262.40293 375.86517 262.20286 376.03516 262.24414 z M 166.26562 262.41406 C 166.26574 262.43487 166.26555 262.45575 166.26562 262.47656 C 166.27226 262.49016 166.28299 262.50174 166.28906 262.51562 C 166.29407 262.52708 166.27104 262.48865 166.26562 262.48633 C 166.26581 262.54422 166.26597 262.60206 166.26562 262.66016 C 166.2654 262.74023 166.26555 262.82031 166.26562 262.90039 C 166.27921 262.77924 166.30151 262.65906 166.30078 262.53711 C 166.30053 262.49445 166.27981 262.45508 166.26562 262.41406 z M 164.08594 262.5 C 164.10922 262.68358 164.10904 262.75082 164.13672 262.81641 C 164.11954 262.71095 164.10307 262.60547 164.08594 262.5 z M 164.14062 262.87891 C 164.1425 262.89422 164.1454 262.9093 164.15039 262.92383 C 164.15213 262.92909 164.15422 262.9343 164.15625 262.93945 C 164.15247 262.92144 164.1518 262.90286 164.14844 262.88477 C 164.14652 262.88281 164.14252 262.88086 164.14062 262.87891 z M 164.2832 263.01953 C 164.31078 263.05479 164.30665 263.05891 164.34766 263.11133 C 164.36656 263.13553 164.44513 263.18431 164.42383 263.16211 C 164.3607 263.09582 164.33444 263.06671 164.2832 263.01953 z M 575.86914 263.13867 C 575.87073 263.1455 575.87527 263.16089 575.87695 263.16797 C 575.89143 263.16092 575.9054 263.15104 575.91992 263.14453 C 575.89849 263.14083 575.89093 263.1425 575.86914 263.13867 z M 576.88477 263.5293 C 576.95184 263.57969 576.99058 263.60643 577.04492 263.64453 C 577.03172 263.62945 577.01627 263.61488 577.00391 263.59961 C 576.97461 263.56341 576.84753 263.5013 576.88477 263.5293 z M 580.29883 264.13672 C 580.38729 264.16611 580.47893 264.18562 580.57031 264.20508 C 580.55021 264.19638 580.52996 264.18829 580.50977 264.17969 C 580.41754 264.16068 580.2375 264.11636 580.29883 264.13672 z M 580.80859 264.30469 C 580.86548 264.34805 580.92162 264.39218 580.97852 264.43555 C 581.01794 264.42646 581.02909 264.41449 581.03906 264.40234 C 580.96567 264.36674 580.88372 264.33912 580.80859 264.30469 z M 164.58203 264.33203 C 164.58425 264.33838 164.5839 264.34269 164.58594 264.34766 C 164.59984 264.38166 164.66323 264.47101 164.64453 264.43945 C 164.57914 264.32908 164.59341 264.34482 164.58203 264.33203 z M 581.20508 264.47656 C 581.25979 264.51848 581.31258 264.55641 581.36523 264.5957 C 581.36615 264.59611 581.36825 264.59726 581.36914 264.59766 L 581.61914 264.75 C 581.61715 264.73402 581.61501 264.71893 581.61328 264.70312 C 581.47908 264.62691 581.34825 264.54901 581.20508 264.47656 z M 581.93945 264.89648 C 581.93502 264.90077 581.93395 264.90584 581.92969 264.91016 C 581.92516 264.90341 582.04227 264.96896 582.01367 264.95508 C 581.97153 264.93463 581.96496 264.93019 581.93359 264.91406 C 582.46323 265.31792 582.59162 265.43836 582.60742 265.45898 C 582.60986 265.4594 582.61465 265.46432 582.61719 265.46484 C 582.57073 265.42588 582.48354 265.34082 582.45508 265.25391 C 582.43358 265.23671 582.36607 265.19074 582.39062 265.20312 C 582.42282 265.2195 582.40927 265.21701 582.43555 265.23047 C 582.41081 265.21217 582.38597 265.19614 582.36133 265.17773 C 582.23281 265.08173 582.08611 264.98902 581.93945 264.89648 z M 581.93359 264.91406 C 581.93024 264.9115 581.93018 264.91061 581.92969 264.91016 L 581.92773 264.91211 C 581.9299 264.91322 581.93146 264.91297 581.93359 264.91406 z M 298.38477 264.98047 C 298.47424 264.99817 298.57949 265.19548 298.69727 265.58008 C 298.98155 266.50814 298.94607 267.61771 298.61914 268.04492 C 298.29221 268.47212 298.06082 267.71267 298.10352 266.35742 C 298.13302 265.42137 298.23564 264.95096 298.38477 264.98047 z M 158.35547 265.56641 C 159.60196 265.59565 160.80515 266.07037 161.75781 267.10352 C 163.4697 268.96003 163.68894 273.88691 162.21875 277.47656 C 159.95512 283.00347 151.43164 279.20366 151.43164 272.66797 C 151.43164 268.7796 154.66459 265.82142 157.81836 265.58008 C 157.99755 265.56637 158.1774 265.56223 158.35547 265.56641 z M 165.33203 265.63477 C 165.33556 265.63871 165.33824 265.64242 165.3418 265.64648 L 165.34375 265.64453 C 165.34007 265.64102 165.33571 265.63828 165.33203 265.63477 z M 593.27539 265.80859 C 594.96482 265.88988 596.62438 266.88788 597.73828 269.10938 C 599.27034 272.16475 599.30352 272.9057 598.04297 275.79883 C 595.35539 281.96712 588.99825 281.69058 587.2207 275.32812 C 585.70147 269.89032 589.55864 265.62977 593.27539 265.80859 z M 572.45703 266.20508 C 572.42663 266.23138 572.48204 266.28199 572.49414 266.32031 C 572.51859 266.33584 572.52696 266.34117 572.54883 266.35547 C 572.54288 266.33865 572.5339 266.29992 572.5293 266.28906 C 572.5149 266.25506 572.48493 266.18094 572.45703 266.20508 z M 584.24805 266.41211 C 584.26746 266.47561 584.28827 266.53846 584.30859 266.60156 C 584.30744 266.60346 584.32256 266.61063 584.31836 266.61133 C 584.31682 266.61158 584.31405 266.61108 584.3125 266.61133 C 584.33057 266.66719 584.35924 266.71828 584.37891 266.77344 C 584.44771 266.85463 584.51173 266.93991 584.58008 267.02148 C 584.58266 267.01807 584.58529 267.01327 584.58789 267.00977 C 584.58573 266.94479 584.58403 266.87491 584.57812 266.83594 C 584.56304 266.7364 584.51927 266.64317 584.48242 266.54883 C 584.40766 266.50744 584.32642 266.45752 584.24805 266.41211 z M 584.37891 266.77344 C 584.33316 266.71946 584.28627 266.66602 584.24414 266.60938 C 584.243 266.60947 584.24138 266.60928 584.24023 266.60938 C 584.2413 266.64499 584.24773 266.71777 584.24023 266.69141 C 584.23217 266.66434 584.22539 266.63688 584.21875 266.60938 C 584.14747 266.61344 584.04953 266.59624 583.9668 266.5918 C 583.98893 266.72565 584.02126 266.82285 584.05078 266.92578 C 584.17773 266.93924 584.30509 266.95414 584.42969 266.98438 C 584.44698 266.98856 584.45928 267.00306 584.47461 267.01172 C 584.44335 266.93202 584.40773 266.85429 584.37891 266.77344 z M 584.53516 266.58008 C 584.59329 266.67434 584.63049 266.7721 584.66016 266.9043 C 584.68222 266.87084 584.70106 266.8533 584.72461 266.81445 C 584.74635 266.77855 584.76732 266.74093 584.78906 266.70508 C 584.70114 266.66019 584.63001 266.632 584.53516 266.58008 z M 384.49805 266.74609 C 384.26445 266.78377 384.16723 267.0986 384.13477 267.54492 C 384.19546 267.59415 384.25693 267.64222 384.31641 267.69336 C 384.3251 267.69427 384.33126 267.69637 384.33984 267.69727 C 384.82679 267.38591 385.03223 267.24107 385.19531 267.11328 C 384.89293 266.8512 384.65659 266.72053 384.49805 266.74609 z M 384.31641 267.69336 C 384.2584 267.68727 384.19262 267.67638 384.13086 267.66797 C 384.12842 267.72161 384.12593 267.77521 384.125 267.83203 C 384.13861 267.8248 384.15296 267.81881 384.16602 267.81055 C 384.2469 267.75933 384.25936 267.74902 384.32812 267.70508 C 384.32396 267.70148 384.32059 267.69695 384.31641 267.69336 z M 575.67383 266.81445 C 575.78103 266.96397 575.89956 267.10664 576.01367 267.25195 C 576.01208 267.24181 576.01122 267.23257 576.00977 267.22266 C 575.89485 267.08241 575.82141 267.00167 575.67383 266.81445 z M 580.49219 266.86523 L 580.49023 266.86719 C 580.48844 266.92254 580.48897 266.97758 580.48438 267.0332 C 580.50702 266.98069 580.52705 266.93051 580.53125 266.89258 C 580.50546 266.87346 580.5134 266.88026 580.49219 266.86523 z M 584.17969 267.21875 C 584.22516 267.26126 584.27562 267.28133 584.33984 267.25391 C 584.28703 267.23983 584.23286 267.23137 584.17969 267.21875 z M 570.80469 267.30664 C 570.97884 267.42694 570.98253 267.41628 570.80469 267.30664 z M 584.70898 267.50586 C 584.69966 267.52461 584.69089 267.54371 584.68164 267.5625 C 584.6809 267.56897 584.68039 267.57239 584.67969 267.57617 C 584.68996 267.55301 584.69898 267.52913 584.70898 267.50586 z M 665.46289 267.70117 C 665.52221 267.73005 665.58802 267.84935 665.65625 268.07031 C 665.92919 268.95418 665.92919 270.4013 665.65625 271.28516 C 665.38332 272.16903 665.16016 271.44546 665.16016 269.67773 C 665.16016 268.35194 665.28494 267.61454 665.46289 267.70117 z M 446.11328 267.82031 C 446.17257 267.82735 446.23988 268.11977 446.31055 268.73047 C 446.53673 270.6847 446.53035 273.57892 446.29688 275.16016 C 446.06333 276.7414 445.87972 275.14093 445.88672 271.60547 C 445.8918 269.17483 445.98286 267.80483 446.11328 267.82031 z M 580.6875 268.28711 C 580.68842 268.29162 580.68853 268.29627 580.68945 268.30078 C 580.69896 268.32913 580.70073 268.33162 580.70898 268.35547 C 580.70611 268.34261 580.70767 268.33701 580.70508 268.32812 C 580.70089 268.31378 580.69327 268.30088 580.6875 268.28711 z M 517.93555 269.17383 C 517.99361 269.12873 518.06042 269.39234 518.13086 270 C 518.35629 271.9445 518.35629 275.1258 518.13086 277.07031 C 517.90544 279.01482 517.7207 277.42418 517.7207 273.53516 C 517.7207 270.86146 517.80781 269.27305 517.93555 269.17383 z M 581.19336 269.61719 C 581.17227 269.62899 581.1469 269.63751 581.13086 269.65234 C 581.11126 269.67044 581.1049 269.69936 581.0918 269.72266 C 581.08414 269.74298 581.07272 269.77391 581.0625 269.80078 C 581.08678 269.77623 581.12004 269.74085 581.14844 269.71094 C 581.16237 269.67892 581.17946 269.64919 581.19336 269.61719 z M 665.46289 275.41406 C 665.52221 275.44294 665.58802 275.56419 665.65625 275.78516 C 665.92919 276.66902 665.92919 278.11418 665.65625 278.99805 C 665.38332 279.88191 665.16016 279.16031 665.16016 277.39258 C 665.16016 276.06677 665.28494 275.32743 665.46289 275.41406 z M 298.38477 276.55078 C 298.47424 276.56848 298.57949 276.7658 298.69727 277.15039 C 298.98155 278.07844 298.94607 279.18801 298.61914 279.61523 C 298.29221 280.04243 298.06082 279.28298 298.10352 277.92773 C 298.13302 276.99168 298.23564 276.52128 298.38477 276.55078 z M 379.39258 278.90234 L 383.39453 288.10938 C 386.96352 296.3197 387.62008 299.22335 389.44531 314.89648 C 391.79611 335.08272 391.96685 340.53941 390.3125 342.70117 C 388.59402 344.94674 385.79443 344.58917 384.77734 341.99414 C 384.29236 340.75672 383.12692 331.6454 382.18945 321.74609 C 380.81127 307.19305 379.90039 302.14738 377.43164 295.39062 C 375.75233 290.79452 374.06207 286.10407 373.67383 284.96875 C 373.15518 283.45207 373.81941 282.37507 376.17969 280.9043 L 379.39258 278.90234 z M 363.5332 279.19336 C 364.28207 279.14175 365.52381 279.73209 366.83203 280.81445 L 369.84375 283.30469 L 366.42773 290.3125 C 361.60075 300.21336 360.24432 306.77225 359.5 323.82031 C 359.14146 332.03276 358.32284 340.128 357.68164 341.80859 C 356.2607 345.53288 353.87156 346.33074 352.16797 343.64844 C 350.58755 341.16007 351.55132 317.02688 353.74414 304.1875 C 354.98662 296.91258 360.04397 283.35346 362.96484 279.46484 C 363.089 279.29955 363.28358 279.21056 363.5332 279.19336 z M 369.54297 279.98242 C 370.18744 279.97159 370.98784 280.54095 371.32227 281.24805 C 372.07719 282.84419 371.73776 282.84419 369.84766 281.24805 C 368.96091 280.49922 368.83891 279.99402 369.54297 279.98242 z M 154.09375 283.82031 L 158.17383 283.82031 L 162.25391 283.82031 L 162.45117 291.21289 C 162.78324 303.57431 162.40409 306.84267 158.68945 323.59961 C 154.94359 340.49741 153.8127 344.26916 152.02148 345.83203 C 150.63342 347.04312 150.31017 347.00714 148.23242 345.42578 C 147.28545 344.70505 146.51172 343.21098 146.51172 342.10547 C 146.51172 340.99996 148.50384 331.86802 150.93945 321.81055 C 155.10527 304.60849 155.33001 302.93973 154.73047 293.67188 L 154.09375 283.82031 z M 596.85352 284.09766 L 597.51172 294.4043 C 598.12437 304.00399 597.8916 305.95699 594.11914 322.87109 C 591.89149 332.85885 589.43163 342.33005 588.65234 343.92188 C 586.01491 349.30626 580.50781 346.22193 581.87695 340.12695 C 582.24196 338.50205 584.31347 329.8439 586.47852 320.88477 C 589.94987 306.52007 590.37373 303.40595 590.07617 294.5293 L 589.74023 284.46289 L 593.29688 284.2793 L 596.85352 284.09766 z M 423.95898 339.10156 C 424.00977 339.16792 423.71346 339.68945 423.10156 340.70898 C 421.81628 342.85051 421.00781 343.53078 421.00781 342.47266 C 421.00781 342.2057 421.78351 341.19312 422.73047 340.22266 C 423.5107 339.42308 423.9082 339.0352 423.95898 339.10156 z M 207.51172 341.67188 C 207.5625 341.73822 207.26424 342.25976 206.65234 343.2793 C 205.36706 345.42083 204.55859 346.10304 204.55859 345.04492 C 204.55859 344.77796 205.33429 343.76537 206.28125 342.79492 C 207.06148 341.99535 207.46093 341.60423 207.51172 341.67188 z M 359.74023 345.91797 C 359.682 346.00045 359.63826 346.0961 359.61914 346.21484 C 359.61654 346.23101 359.61868 346.24086 359.61719 346.25586 C 359.6675 346.27756 359.72707 346.27543 359.79297 346.25781 C 359.77077 346.14019 359.75773 346.03062 359.74023 345.91797 z M 383.05664 346.09961 C 383.04692 346.11117 383.03706 346.1302 383.02734 346.14258 C 383.02986 346.14847 383.03261 346.15427 383.03516 346.16016 C 383.05928 346.17107 383.06413 346.16847 383.09375 346.18359 C 383.08588 346.13251 383.07467 346.07837 383.05664 346.09961 z M 383.09375 346.18359 C 383.09886 346.21676 383.09619 346.21037 383.0957 346.23633 C 383.21494 346.28527 383.34731 346.34436 383.42578 346.36523 C 383.33425 346.31318 383.2044 346.24011 383.09375 346.18359 z M 383.0957 346.23633 C 383.08301 346.23112 383.07334 346.22794 383.06055 346.22266 C 383.06814 346.23939 383.07417 346.25683 383.08203 346.27344 C 383.0865 346.27739 383.08699 346.27902 383.0918 346.2832 C 383.09766 346.28893 383.09526 346.25989 383.0957 346.23633 z M 383.06055 346.22266 C 383.05126 346.20219 383.04409 346.18079 383.03516 346.16016 C 383.02878 346.15727 383.0254 346.1568 383.01953 346.1543 C 383.01114 346.16519 383.00253 346.17994 382.99414 346.19141 C 382.99609 346.1937 383.00356 346.19864 383.00586 346.20117 C 383.02581 346.20941 383.04062 346.21443 383.06055 346.22266 z M 380.86719 346.17188 C 380.8488 346.20895 380.82656 346.24204 380.81055 346.28125 C 380.8822 346.32576 380.94514 346.36119 381.01172 346.40039 C 380.96311 346.3248 380.91591 346.25234 380.86719 346.17188 z M 359.61719 346.26367 C 359.59862 346.47772 359.69274 346.57302 359.86523 346.58789 C 359.85691 346.54944 359.84575 346.50865 359.83789 346.4707 C 359.75933 346.39619 359.68744 346.32838 359.61719 346.26367 z M 383.22852 346.40234 C 383.34718 346.49646 383.60397 346.68494 383.81445 346.8418 C 383.8688 346.94898 383.65173 346.57287 383.52344 346.5 C 383.54941 346.55913 383.57878 346.62149 383.61133 346.6582 C 383.52615 346.55788 383.54173 346.56203 383.52148 346.5 C 383.43462 346.45148 383.33237 346.42398 383.22852 346.40234 z M 383.64453 346.54102 C 383.69444 346.62351 383.73525 346.68514 383.81641 346.8418 C 383.90867 346.91054 383.95979 346.95265 384.07227 347.03516 C 384.06951 347.0342 384.11504 347.04145 384.11523 347.04102 C 383.95462 346.89996 383.74856 346.70545 383.64453 346.54102 z M 357.84375 346.60156 C 357.85075 346.58996 357.8188 346.61691 357.8125 346.62891 C 357.80671 346.63991 357.80535 346.65724 357.80078 346.66992 C 357.82568 346.62981 357.8144 346.65019 357.84375 346.60156 z M 384.08984 347.04688 C 384.16016 347.09841 384.16949 347.10889 384.24805 347.16602 C 384.33282 347.22766 384.21494 347.12825 384.13086 347.05469 C 384.11335 347.05107 384.10709 347.05047 384.08984 347.04688 z M 384.35742 347.10352 C 384.36361 347.11059 384.36686 347.11192 384.36328 347.10547 C 384.36206 347.1052 384.35871 347.1038 384.35742 347.10352 z M 384.39844 347.11133 C 384.49352 347.16813 384.60873 347.23812 384.57812 347.21289 C 384.53352 347.17609 384.4867 347.13664 384.43164 347.11914 C 384.42984 347.11857 384.40284 347.11239 384.39844 347.11133 z M 589.58203 347.68359 C 589.63723 347.66109 589.45966 347.67507 589.4043 347.69727 C 589.35075 347.7187 589.30471 347.75451 589.25781 347.78906 C 589.31585 347.78008 589.40441 347.7559 589.58203 347.68359 z M 589.2168 347.86719 C 589.2391 347.86319 589.17074 347.86514 589.14844 347.86914 C 589.14698 347.87098 589.146 347.87316 589.14453 347.875 C 589.16874 347.87274 589.1928 347.87093 589.2168 347.86719 z M 589.13477 347.87305 C 589.12742 347.87451 589.12052 347.87694 589.11328 347.87891 C 589.11982 347.87835 589.12627 347.87753 589.13281 347.87695 C 589.13344 347.87565 589.13411 347.87434 589.13477 347.87305 z M 146.93164 347.89844 C 147.00662 348.0512 147.18166 348.08011 147.40234 348.05273 C 147.2181 347.99419 147.09768 347.95221 146.93164 347.89844 z M 588.77539 347.97656 C 588.72455 347.99952 588.68055 348.03522 588.63086 348.06055 C 588.63362 348.05779 588.63891 348.05445 588.64258 348.05078 C 588.68639 348.02618 588.73159 348.00116 588.77539 347.97656 z M 153.77344 348.04492 C 153.71 348.11667 153.6203 348.20959 153.58594 348.26758 C 153.57078 348.29316 153.55867 348.3568 153.54492 348.4082 C 153.58268 348.40809 153.62044 348.41034 153.6582 348.41016 C 153.68824 348.3249 153.73193 348.18042 153.77344 348.04492 z M 354.57227 348.11133 C 354.57727 348.10833 354.55723 348.10928 354.55273 348.11328 C 354.54601 348.1194 354.53981 348.12654 354.5332 348.13281 C 354.546 348.12528 354.55951 348.11893 354.57227 348.11133 z M 149.36133 348.27539 C 149.28673 348.27439 149.06639 348.29884 149.14062 348.30664 C 149.70265 348.36537 150.013 348.3793 150.30273 348.39258 C 150.2381 348.36712 150.17561 348.33299 150.10742 348.32031 C 149.8626 348.27481 149.61032 348.27899 149.36133 348.27539 z M 354.72266 348.28125 C 354.71931 348.28511 354.71626 348.28914 354.71289 348.29297 C 354.74278 348.29978 354.77268 348.30662 354.80273 348.3125 C 354.82223 348.3165 354.76695 348.29536 354.74805 348.28906 C 354.73964 348.28628 354.73113 348.28379 354.72266 348.28125 z M 150.4043 348.43164 C 150.60583 348.59536 150.61943 348.69077 150.60938 348.50781 C 150.54113 348.4823 150.47147 348.46101 150.4043 348.43164 z M 582.76758 348.46289 C 582.79439 348.4693 582.82105 348.47329 582.84766 348.48047 C 582.83923 348.47711 582.83076 348.47384 582.82227 348.4707 C 582.80416 348.46823 582.78559 348.46623 582.76758 348.46289 z M 587.91406 348.48242 C 587.89642 348.49142 587.87595 348.50525 587.86133 348.51172 C 587.86966 348.50815 587.8785 348.5058 587.88672 348.50195 C 587.89672 348.49695 587.92386 348.47742 587.91406 348.48242 z M 151.66016 348.57812 C 151.75589 348.62208 151.80292 348.64441 151.97266 348.7207 C 152.07236 348.7655 151.77504 348.62775 151.67578 348.58203 C 151.66817 348.5808 151.66753 348.57935 151.66016 348.57812 z M 360.50977 348.80859 C 360.49665 348.83472 360.47087 348.88341 360.45117 348.91797 C 360.45929 348.90646 360.46627 348.89416 360.47461 348.88281 C 360.5251 348.81413 360.3741 349.06986 360.35156 349.10742 C 360.36212 349.10557 360.37223 349.10136 360.38281 349.09961 C 360.45216 349.08811 360.52187 349.08647 360.5918 349.07617 C 360.55736 348.97908 360.54232 348.90338 360.50977 348.80859 z M 360.35156 349.10742 C 360.41293 349.00181 360.41719 348.97758 360.45117 348.91797 C 360.40569 348.98246 360.36165 349.04778 360.32031 349.11523 C 360.33086 349.11329 360.341 349.10927 360.35156 349.10742 z M 153.88867 349.85547 C 153.83225 349.8631 153.77876 349.86964 153.70898 349.88477 C 153.37957 350.2358 153.3205 350.49945 153.44531 350.70508 C 153.66352 350.37531 153.8386 350.07349 153.88867 349.85547 z M 584.93555 350.8125 C 584.91736 350.81605 584.89907 350.81884 584.88086 350.82227 C 584.86423 350.85872 584.84956 350.8911 584.83398 350.92383 C 584.86809 350.88702 584.90402 350.85212 584.93555 350.8125 z M 588.31055 351.07422 C 588.33092 351.0801 588.35178 351.09607 588.36133 351.09766 C 588.38913 351.10266 588.47311 351.10361 588.44531 351.09961 C 588.31972 351.08213 588.32396 351.07319 588.31055 351.07422 z M 586.39258 351.95898 C 586.39589 351.96335 586.40299 351.96825 586.40625 351.97266 C 586.40643 351.96942 586.40627 351.96615 586.40625 351.96289 C 586.40168 351.9615 586.39716 351.96036 586.39258 351.95898 z M 362.69727 356.63086 C 362.70574 356.65609 362.7098 356.67041 362.74805 356.77539 C 362.75178 356.78105 362.75416 356.78745 362.75781 356.79297 C 362.76249 356.79076 362.76788 356.78985 362.77539 356.79102 C 362.75326 356.73937 362.73768 356.7028 362.7168 356.6543 C 362.70958 356.64781 362.70371 356.63597 362.69727 356.63086 z M 362.75781 356.79297 C 362.75679 356.79345 362.75477 356.79229 362.75391 356.79297 C 362.7565 356.79527 362.7637 356.80246 362.76562 356.80469 C 362.763 356.80065 362.76037 356.79684 362.75781 356.79297 z M 362.75391 356.79297 C 362.74889 356.77917 362.75267 356.78809 362.74805 356.77539 C 362.74573 356.77189 362.74258 356.76919 362.74023 356.76562 C 362.74294 356.7733 362.74527 356.7814 362.74805 356.78906 C 362.74914 356.79004 362.75282 356.79201 362.75391 356.79297 z M 362.83398 356.86719 C 362.94423 356.95827 362.94971 356.94659 362.91797 356.89062 C 362.90914 356.88768 362.91295 356.88908 362.90625 356.88672 C 362.88594 356.87956 362.85929 356.87357 362.83398 356.86719 z M 585.50586 358.48438 C 585.51107 358.48757 585.51437 358.48912 585.51953 358.49219 C 585.51982 358.49016 585.52119 358.48835 585.52148 358.48633 C 585.51358 358.4847 585.50121 358.4817 585.50586 358.48438 z M 584.37695 361.51367 C 584.37165 361.51849 584.3686 361.52643 584.36328 361.53125 C 584.37188 361.53416 584.38024 361.53826 584.38867 361.54102 C 584.39867 361.53339 584.40892 361.52656 584.41992 361.51953 C 584.40183 361.51759 584.39698 361.51541 584.37695 361.51367 z M 374.34766 361.82812 C 374.39477 361.83202 374.44088 361.83488 374.47852 361.82812 C 374.43492 361.82842 374.39125 361.828 374.34766 361.82812 z M 375.62695 361.85938 C 375.65127 361.87081 375.69331 361.89164 375.72656 361.9082 L 375.77344 361.91992 C 375.72487 361.90189 375.67519 361.88423 375.63086 361.85938 L 375.62695 361.85938 z M 585.98047 363.01953 C 585.97401 363.02348 585.97556 363.02527 585.96875 363.0293 C 585.97739 363.03244 585.98512 363.03927 585.99414 363.04102 C 586.02151 363.05148 586.02636 363.05172 586.04492 363.05859 C 586.0233 363.0435 586.00212 363.03327 585.98047 363.01953 z M 585.92773 363.05469 C 585.92205 363.05815 585.92124 363.05733 585.91602 363.06055 C 585.93027 363.06595 585.94479 363.0706 585.95898 363.07617 C 585.94861 363.06879 585.93813 363.06184 585.92773 363.05469 z M 588.03906 363.10938 C 588.03875 363.11127 588.0394 363.11334 588.03906 363.11523 C 588.04329 363.11685 588.0451 363.11564 588.04883 363.11719 C 588.04573 363.11408 588.04255 363.11183 588.03906 363.10938 z M 588.04883 363.11719 C 588.05467 363.12304 588.06219 363.1258 588.06641 363.13281 C 588.06893 363.13357 588.08366 363.13988 588.08594 363.14062 C 588.07734 363.13443 588.07011 363.12572 588.06055 363.12109 C 588.05686 363.1193 588.05345 363.11911 588.04883 363.11719 z M 588.06641 363.13281 C 588.0627 363.1317 588.04207 363.12446 588.03711 363.12305 C 588.03638 363.1269 588.03595 363.13094 588.03516 363.13477 L 588.07422 363.14062 C 588.07266 363.13734 588.06838 363.1361 588.06641 363.13281 z M 583.44727 363.19727 C 583.38816 363.22977 583.31721 363.24843 583.25 363.27148 C 583.35598 363.30327 583.4617 363.33345 583.56836 363.35938 C 583.52641 363.30723 583.48453 363.255 583.44727 363.19727 z M 583.67383 363.37305 C 583.67068 363.37459 583.66722 363.37543 583.66406 363.37695 C 583.67062 363.37775 583.67702 363.38026 583.68359 363.38086 C 583.68027 363.37831 583.67714 363.37561 583.67383 363.37305 z M 584.18555 363.68164 C 584.20658 363.69666 584.22959 363.7071 584.25195 363.71875 C 584.25695 363.72075 584.27248 363.7227 584.26758 363.7207 C 584.23843 363.70975 584.21399 363.69237 584.18555 363.68164 z M 587.42578 363.68359 C 587.4541 363.7043 587.46212 363.71359 587.55078 363.77344 C 587.58448 363.79624 587.48038 363.72917 587.45508 363.69727 C 587.44508 363.68477 587.484 363.70934 587.5 363.71094 C 587.503 363.71128 587.49905 363.70517 587.49805 363.70117 C 587.5019 363.69712 587.51271 363.70196 587.51758 363.69922 C 587.48638 363.69147 587.4555 363.68654 587.42969 363.68359 C 587.42851 363.68368 587.42696 363.68351 587.42578 363.68359 z M 152.85742 363.78906 C 152.82482 363.77256 153.07507 363.89243 152.95703 363.83789 C 152.98684 363.84001 152.94931 363.83823 152.9707 363.83984 C 152.93011 363.82007 152.90549 363.81332 152.85742 363.78906 z M 584.76367 363.93945 C 584.77052 363.94214 584.76965 363.94222 584.77734 363.94531 C 584.84494 363.94551 585.01894 363.96283 584.95898 363.95508 C 584.89426 363.94672 584.82884 363.94345 584.76367 363.93945 z M 379.60352 364.97266 C 379.94531 364.99104 380.23888 365.10867 380.40234 365.32227 C 380.72927 365.74947 380.14847 366.05385 379.11133 365.99805 C 377.96519 365.93636 377.73273 365.63109 378.51758 365.2207 C 378.87269 365.03499 379.26173 364.95427 379.60352 364.97266 z M 371.94141 369.34766 C 371.85116 369.35001 371.76255 369.36551 371.63867 369.41016 C 371.636 369.41495 371.63558 369.42104 371.63281 369.42578 C 371.73796 369.39933 371.80415 369.38643 371.94141 369.34766 z M 371.37891 369.46289 C 371.36601 369.46493 371.34197 369.46311 371.32422 369.4668 C 371.02837 369.53492 370.94215 369.54988 370.85547 369.59961 C 370.94435 369.57997 371.1121 369.5491 371.35156 369.49609 C 371.36096 369.48432 371.36948 369.47427 371.37891 369.46289 z M 374.33789 370.22461 L 374.25781 370.5957 C 374.27331 370.57748 374.28703 370.55702 374.30273 370.53906 C 374.31261 370.4334 374.3156 370.32424 374.33789 370.22461 z M 149.7793 370.45312 C 149.82707 370.49088 149.81554 370.48417 149.9082 370.55078 C 149.9279 370.56488 149.87842 370.51005 149.85742 370.49805 C 149.81028 370.47103 149.81191 370.47278 149.7793 370.45312 z M 153.33594 370.5957 C 153.33241 370.59787 153.32968 370.6013 153.32617 370.60352 C 153.33542 370.60053 153.34453 370.59834 153.35352 370.5957 C 153.34769 370.59608 153.34176 370.59542 153.33594 370.5957 z M 153.73828 370.63086 C 153.75402 370.63998 153.76687 370.64927 153.7832 370.6582 C 153.7872 370.6602 153.77939 370.64633 153.77539 370.64453 C 153.7631 370.63966 153.75057 370.63605 153.73828 370.63086 z M 172.42383 378.61133 C 172.01997 378.66593 170.80657 378.74197 171.21289 378.77344 C 171.91884 378.82811 172.47425 378.86163 173.0625 378.90039 C 173.10283 378.82621 173.14471 378.75498 173.18555 378.68164 L 172.42383 378.61133 z M 576.53711 378.89453 C 577.06111 379.37806 577.59052 379.85244 578.1543 380.27539 C 578.54207 380.5663 577.5522 379.48606 577.13672 379.23633 C 576.93946 379.11776 576.73677 379.00884 576.53711 378.89453 z "
       id="path5289" />
  </g>
</svg>
