<?xml version="1.0" encoding="UTF-8" standalone="no"?>
<!-- Created with Inkscape (http://www.inkscape.org/) -->

<svg
   xmlns:dc="http://purl.org/dc/elements/1.1/"
   xmlns:cc="http://creativecommons.org/ns#"
   xmlns:rdf="http://www.w3.org/1999/02/22-rdf-syntax-ns#"
   xmlns:svg="http://www.w3.org/2000/svg"
   xmlns="http://www.w3.org/2000/svg"
   xmlns:sodipodi="http://sodipodi.sourceforge.net/DTD/sodipodi-0.dtd"
   xmlns:inkscape="http://www.inkscape.org/namespaces/inkscape"
   width="210mm"
   height="297mm"
   viewBox="0 0 744.09448819 1052.3622047"
   id="svg9773"
   version="1.1"
   inkscape:version="0.91 r13725"
   sodipodi:docname="metaphase.svg">
  <defs
     id="defs9775" />
  <sodipodi:namedview
     id="base"
     pagecolor="#ffffff"
     bordercolor="#666666"
     borderopacity="1.0"
     inkscape:pageopacity="0.0"
     inkscape:pageshadow="2"
     inkscape:zoom="0.98994949"
     inkscape:cx="299.8746"
     inkscape:cy="600.40809"
     inkscape:document-units="px"
     inkscape:current-layer="svg9773"
     showgrid="false"
     inkscape:window-width="1366"
     inkscape:window-height="705"
     inkscape:window-x="-8"
     inkscape:window-y="-8"
     inkscape:window-maximized="1" />
  <metadata
     id="metadata9778">
    <rdf:RDF>
      <cc:Work
         rdf:about="">
        <dc:format>image/svg+xml</dc:format>
        <dc:type
           rdf:resource="http://purl.org/dc/dcmitype/StillImage" />
        <dc:title></dc:title>
      </cc:Work>
    </rdf:RDF>
  </metadata>
  <g
     id="g10383"
     transform="matrix(1.1294479,0,0,1.1418004,-78.220675,-61.63361)">
    <path
       style="fill:#fdfdfc"
       d="m 199.42618,436.16916 0,-149.599 210.69577,0 210.69577,0 0,149.599 0,149.599 -210.69577,0 -210.69577,0 0,-149.599 z"
       id="path10399"
       inkscape:connector-curvature="0" />
    <path
       style="fill:#fafac7"
       d="m 368.30447,567.8224 c -5.7499,-1.1383 -13.60744,-3.17139 -17.46118,-4.51795 -3.85374,-1.34656 -7.5237,-2.13878 -8.15546,-1.76047 -0.63176,0.3783 -3.39882,-0.63802 -6.14902,-2.25847 -4.85193,-2.85884 -17.72252,-7.05531 -20.04622,-6.53611 -0.63161,0.14119 -0.84141,-0.61155 -0.46621,-1.67262 0.3752,-1.06107 -3.60711,-4.62927 -8.84958,-7.92934 -5.24247,-3.30008 -13.17667,-9.47637 -17.63155,-13.7251 -4.74057,-4.5212 -8.86837,-7.26473 -9.953,-6.61526 -1.14137,0.68345 -1.41605,0.42438 -0.71511,-0.67449 0.62773,-0.98408 -1.4877,-5.11028 -4.71725,-9.20113 -7.56689,-9.5849 -17.5445,-29.74676 -20.74763,-41.92496 -3.81999,-14.52345 -3.42208,-46.5445 0.76009,-61.16681 6.00671,-21.00152 17.44934,-39.15138 35.47031,-56.26164 7.83091,-7.43518 19.63122,-15.94309 24.48144,-17.65091 1.69066,-0.5953 2.43126,-1.7878 1.76195,-2.83706 -0.67197,-1.05344 -0.45623,-1.3919 0.51611,-0.80966 0.9189,0.55024 6.71534,-1.62046 12.88098,-4.82378 11.42002,-5.9332 12.66188,-6.42613 19.72095,-7.82778 2.2115,-0.43911 4.3828,-1.25089 4.8251,-1.80395 2.13369,-2.66798 28.74818,-5.47091 52.27185,-5.50506 19.85018,-0.0288 28.49179,0.62813 37.79657,2.87337 6.6345,1.60091 13.32932,2.87167 14.87737,2.82392 1.54805,-0.0478 2.81464,0.4418 2.81464,1.0879 0,1.00628 5.62693,3.48059 20.10456,8.8405 1.7692,0.65499 4.13288,1.04701 5.25263,0.87114 1.11976,-0.17586 1.84352,0.50173 1.60836,1.50577 -0.23514,1.00403 2.8294,3.47192 6.81011,5.4842 3.9807,2.01228 6.51387,3.69026 5.62927,3.72884 -0.8846,0.0386 0.91634,1.63549 4.00208,3.54868 3.08573,1.91319 7.99891,5.7259 10.91816,8.47267 3.09432,2.91149 6.2957,4.62683 7.67682,4.11333 1.53432,-0.57045 2.08935,-0.13331 1.57518,1.2406 -0.43663,1.16677 0.70362,3.87452 2.53389,6.01721 1.83027,2.1427 2.79125,2.9109 2.1355,1.70713 -0.78639,-1.4436 -0.56014,-1.81016 0.66461,-1.07677 1.02128,0.61155 1.85687,1.71055 1.85687,2.44224 0,2.66725 10.78978,17.12035 11.94523,16.00085 0.65436,-0.634 1.01256,-0.45149 0.796,0.40559 -0.21657,0.85708 0.37309,3.31144 1.31035,5.45413 9.24166,21.12774 13.30019,37.09606 13.26817,52.20382 -0.0113,5.14246 -1.50987,16.01177 -3.33107,24.154 -1.82118,8.14224 -3.37983,15.84247 -3.46366,17.11163 -0.0838,1.26917 -2.74588,6.52851 -5.91571,11.68743 -3.16981,5.15892 -5.78352,10.0811 -5.80822,10.93818 -0.0248,0.85707 -2.05403,3.49262 -4.50958,5.85677 -2.45557,2.36414 -4.01796,4.99877 -3.47196,5.85471 0.54599,0.85595 -0.0421,1.94103 -1.30698,2.41129 -3.09047,1.14903 -18.03417,14.70407 -16.22161,14.71418 0.78627,0.005 -1.31072,1.61526 -4.65996,3.57973 -3.34926,1.96446 -5.52055,4.12303 -4.8251,4.79685 0.69544,0.6738 0.54069,0.9957 -0.34391,0.71533 -2.59204,-0.82153 -13.79113,6.59278 -12.65306,8.37692 0.58994,0.92487 0.0735,1.30762 -1.19625,0.88667 -1.22889,-0.40739 -6.81797,1.60537 -12.42019,4.47281 -5.60223,2.86744 -11.39234,5.21784 -12.86692,5.22312 -1.47458,0.005 -4.85236,1.14358 -7.50616,2.52955 -2.6538,1.38599 -7.35827,2.79228 -10.45437,3.12511 -3.0961,0.33284 -9.10278,1.29827 -13.34817,2.14542 -10.92096,2.17922 -54.61468,1.64355 -67.07006,-0.82227 z m 25.59981,-75.99457 c -0.36859,-0.24253 -2.11769,-1.4697 -3.88689,-2.72707 -2.97549,-2.11466 -3.05118,-2.08159 -1.00934,0.44096 1.21407,1.49989 2.96317,2.72706 3.88688,2.72706 0.92372,0 1.37792,-0.19843 1.00935,-0.44095 z m 7.02694,-5.81662 c -1.29282,-4.78997 -3.67619,-5.339 -3.67619,-0.84685 0,2.38783 0.90754,3.98778 2.26197,3.98778 1.47597,0 1.96739,-1.09145 1.41422,-3.14093 z m 9.77236,0.80344 c -0.50919,-1.28561 -1.66073,-2.33748 -2.559,-2.33748 -0.94139,0 -0.78508,0.99017 0.36901,2.33748 1.10123,1.28562 2.25278,2.33749 2.559,2.33749 0.30622,0 0.14025,-1.05187 -0.36901,-2.33749 z m -22.00005,-4.18799 c -0.51342,-1.24312 -0.89454,-0.87387 -0.9717,0.94149 -0.0698,1.64273 0.31028,2.56312 0.84474,2.0453 0.53444,-0.51781 0.59157,-1.86188 0.1269,-2.98679 z m 6.51898,-3.05677 c 0.18371,-2.36289 -0.24254,-2.86171 -1.44764,-1.6941 -0.9394,0.91017 -1.22171,2.41719 -0.62736,3.34896 1.51196,2.37028 1.77858,2.15765 2.075,-1.65486 z m 10.04834,-6.04806 c -2.62201,-4.74684 -3.71294,-2.76839 -1.3013,2.35993 1.10543,2.35067 2.26511,3.53203 2.57709,2.62526 0.31195,-0.90678 -0.26215,-3.15011 -1.27579,-4.98519 z m -12.86554,-1.90082 c 0.0619,-2.94124 -2.53841,-0.77209 -2.77864,2.31783 -0.21304,2.74016 0.0528,2.99038 1.24147,1.16874 0.83191,-1.2748 1.52363,-2.84377 1.53717,-3.48657 z m 12.26079,-6.67541 c 0.19161,-1.26489 -0.31186,-1.90445 -1.11879,-1.42125 -0.80695,0.4832 -1.46718,2.00592 -1.46718,3.38379 0,2.95313 2.08051,1.37419 2.58597,-1.96254 z m -10.65242,1.22128 c -0.0129,-0.64281 -0.72623,-2.22061 -1.58374,-3.50623 -1.26075,-1.89018 -1.56381,-1.66653 -1.58374,1.16874 -0.0129,1.92843 0.69914,3.50623 1.58374,3.50623 0.8846,0 1.59728,-0.52594 1.58374,-1.16874 z m 9.67481,-9.92345 c 0,-0.85708 -0.72376,-1.12494 -1.60836,-0.59523 -0.8846,0.5297 -1.60837,1.66433 -1.60837,2.52141 0,0.85708 0.72377,1.12494 1.60837,0.59523 0.8846,-0.5297 1.60836,-1.66433 1.60836,-2.52141 z m -6.00816,0.81073 c 1.44985,-1.40472 -0.54652,-5.41311 -2.20219,-4.42169 -0.79191,0.4742 -1.43984,1.87267 -1.43984,3.1077 0,2.29477 1.91623,2.98612 3.64203,1.31399 z m -5.79357,-7.24967 c -0.44617,-1.07135 -0.81124,-0.19479 -0.81124,1.9479 0,2.14269 0.36507,3.01925 0.81124,1.9479 0.44618,-1.07134 0.44618,-2.82446 0,-3.8958 z m 18.21057,0.68718 c -0.0212,-2.27089 -0.24012,-2.31203 -1.58374,-0.2976 -2.03555,3.05177 -2.03555,5.11469 0,3.8958 0.8846,-0.5297 1.59728,-2.14889 1.58374,-3.5982 z m -10.35446,-8.22493 c -4.32432,-1.20176 -4.39065,-1.09016 -2.12126,3.56902 1.92965,3.9617 1.95154,3.96567 3.67725,0.66564 1.46077,-2.7934 1.21405,-3.46485 -1.55599,-4.23466 z m 8.39746,-15.44752 c -1.10488,-1.71415 -2.67072,-3.11664 -3.47963,-3.11664 -0.80893,0 -0.16084,1.40249 1.44034,3.11664 1.60111,1.71416 3.16693,3.11665 3.47963,3.11665 0.3127,0 -0.33546,-1.40249 -1.44034,-3.11665 z m -208.32091,-1.9479 -0.39324,-138.30116 207.88113,0.38365 207.88113,0.38365 -207.06821,0.40139 -207.06821,0.40139 -0.41968,137.51612 -0.41968,137.51612 -0.39324,-138.30116 z"
       id="path10397"
       inkscape:connector-curvature="0" />
    <path
       style="fill:#e2e1ad"
       d="m 371.89892,567.85142 c -44.74686,-7.85887 -80.51943,-29.85153 -102.50597,-63.01976 -14.38498,-21.70076 -19.26157,-40.23239 -18.15428,-68.9885 0.87517,-22.72796 5.35654,-37.6256 16.5429,-54.99446 7.37703,-11.45418 24.48346,-29.65359 35.38413,-37.64492 32.18138,-23.59233 76.66793,-34.88438 119.64102,-30.36855 38.23993,4.01844 71.0218,18.46821 96.68403,42.61691 26.95556,25.36576 38.42608,51.01958 38.54346,86.20247 0.13349,40.00072 -17.77587,72.22939 -55.43129,99.75126 -17.53113,12.81328 -45.08473,23.56243 -69.46776,27.10064 -15.37115,2.23049 -46.71554,1.89517 -61.23624,-0.65509 z m 65.56523,-2.37018 c 8.84113,-1.75021 25.73748,-6.51667 34.2863,-9.67213 3.43482,-1.26782 4.0187,-2.02907 2.41254,-3.14535 -1.53077,-1.06389 -1.29314,-1.21263 0.85604,-0.53582 7.16271,2.25566 51.90725,-30.35423 55.10388,-40.15979 0.59832,-1.83534 2.52934,-4.31965 4.29118,-5.52071 4.02918,-2.74677 16.18478,-27.73229 19.02811,-39.11182 3.0446,-12.18504 2.7169,-42.13192 -0.59133,-54.03828 -3.56277,-12.82247 -9.14579,-24.11502 -11.28817,-22.83215 -1.06155,0.63566 -1.33045,0.0659 -0.70922,-1.50264 2.37652,-6.0004 -22.39181,-33.72606 -41.1724,-46.08838 -34.35537,-22.61443 -59.86685,-29.44582 -103.96659,-27.83986 -26.10062,0.9505 -45.54496,5.41666 -65.85593,15.12641 -22.0456,10.539 -44.44587,28.36605 -42.46228,33.7932 0.36287,0.9928 -0.0939,2.2564 -1.01509,2.808 -1.00665,0.60279 -1.2927,0.0381 -0.717,-1.41552 0.52681,-1.33013 0.1821,-2.41842 -0.76602,-2.41842 -2.04814,0 -5.94168,6.34252 -5.26143,8.57078 0.26165,0.85708 -0.0326,1.06578 -0.65395,0.46379 -2.43197,-2.35631 -11.08703,10.53148 -18.08897,26.93533 -9.00527,21.09716 -10.51786,51.90401 -3.6847,75.04602 3.77308,12.77838 10.84901,26.17112 20.18465,38.20387 6.82017,8.79053 10.89552,12.79602 7.91698,7.78125 -0.67219,-1.13172 -0.54349,-1.40379 0.30717,-0.64931 0.80527,0.71424 1.10225,1.48301 0.65995,1.70841 -0.4423,0.22538 0.18253,1.56172 1.38851,2.96961 1.20599,1.40792 2.94628,2.10859 3.86733,1.55706 0.92105,-0.55152 1.20883,-0.27255 0.63952,0.61995 -2.14474,3.36232 38.51725,29.6295 43.18207,27.89514 1.40652,-0.52295 2.13838,-0.29404 1.62636,0.50865 -1.72397,2.70264 24.16145,9.53991 49.819,13.15897 7.93099,1.11869 41.16,-0.33489 50.66349,-2.21626 z m -58.70531,-15.44103 c -19.93315,-5.74462 -39.12806,-17.32816 -55.36027,-33.40825 -4.79474,-4.7498 -9.43009,-8.20941 -10.30079,-7.68803 -0.90315,0.5408 -1.07207,0.1468 -0.39331,-0.91724 0.71174,-1.11579 -1.67313,-5.12576 -5.93562,-9.9803 -3.91896,-4.4633 -7.99767,-9.71253 -9.06379,-11.66496 -1.07286,-1.96478 -2.73149,-3.07497 -3.71457,-2.48629 -1.01726,0.60915 -1.32459,0.35564 -0.71928,-0.5933 1.35427,-2.12308 -9.27031,-17.87574 -11.02058,-16.3398 -0.72247,0.63401 -0.77335,0.24547 -0.11306,-0.86342 1.47071,-2.46996 -2.01275,-6.90645 -4.33226,-5.51752 -0.92184,0.552 -1.19908,0.25725 -0.61673,-0.6557 1.84232,-2.88818 -0.57318,-6.31979 -3.86195,-5.48652 -1.88328,0.47717 -3.46761,-0.16129 -4.05015,-1.63213 -0.52625,-1.32875 -1.80164,-2.10302 -2.83418,-1.72062 -2.80764,1.03979 -3.1935,-11.12485 -0.48545,-15.30419 1.25039,-1.92972 2.05221,-4.75811 1.78183,-6.2853 -0.27817,-1.57124 1.15338,-3.82101 3.29747,-5.18216 2.08398,-1.32299 8.83446,-8.48841 15.00106,-15.92316 28.76206,-34.67693 57.08628,-52.57026 92.07917,-58.16941 l 11.2659,-1.80263 -1.0704,-8.30063 c -1.38416,-10.7338 0.007,-16.14874 4.1487,-16.14874 1.75234,0 3.18609,0.78711 3.18609,1.74913 0,1.28393 0.5849,1.27881 2.19915,-0.0192 4.80769,-3.86589 8.32361,6.94384 5.12972,15.77133 -1.8223,5.03658 -1.76647,6.07824 0.41764,7.79162 2.0666,1.6212 2.2855,1.59856 1.21414,-0.12559 -1.02164,-1.64411 -0.65007,-1.77266 1.70171,-0.58876 1.65482,0.83303 6.26568,1.97413 10.24638,2.53578 3.9807,0.56164 12.89493,2.7151 19.80942,4.78548 6.91447,2.07037 13.79023,3.38744 15.27947,2.92682 1.81801,-0.56232 2.07319,-0.39058 0.77663,0.52267 -1.31132,0.92365 0.75334,2.5328 6.43346,5.0141 17.94187,7.8377 50.19775,29.02125 67.2279,44.15087 3.18304,2.82783 9.10897,7.58412 13.16874,10.56955 8.51871,6.26438 13.95635,15.76653 10.9985,19.21963 -1.02504,1.19668 -1.60796,3.14121 -1.29539,4.32119 0.31258,1.17998 0.25468,1.59022 -0.12867,0.91163 -0.98168,-1.73775 -5.20925,1.94768 -5.20925,4.54123 0,1.18068 -1.45321,3.55468 -3.22934,5.27555 -1.77614,1.72087 -6.33218,7.21263 -10.12456,12.20393 -18.7948,24.7366 -48.74008,54.82521 -65.23085,65.54311 -31.09767,20.2114 -59.95123,26.55592 -86.27263,18.97024 z m 19.8394,0.3962 c -3.03345,-0.77839 -5.05658,-4.70365 -3.60069,-6.98605 0.53332,-0.83607 1.20428,-5.28691 1.49103,-9.89072 0.58818,-9.44324 2.41113,-8.27026 -18.20281,-11.71262 -11.92403,-1.99121 -33.6547,-10.5441 -41.47678,-16.32465 -3.03371,-2.24195 -6.34717,-3.57844 -7.36324,-2.97001 -1.08585,0.65021 -1.41098,0.42206 -0.78871,-0.55348 0.58764,-0.92124 -5.56352,-7.18487 -13.82469,-14.07747 -8.18586,-6.82977 -18.72412,-16.35931 -23.41835,-21.17675 -4.69423,-4.81744 -8.86327,-8.75898 -9.26452,-8.75898 -0.95095,0 9.02624,14.83536 19.9123,29.60814 10.51276,14.26621 44.94131,47.22912 48.10178,46.05406 1.22338,-0.45485 1.80489,-0.16945 1.29224,0.63423 -1.16881,1.83233 20.01473,11.77423 29.71559,13.94618 10.7853,2.41473 25.49605,4.2787 17.42685,2.20812 z m 33.23663,-5.03377 c 18.83966,-6.45314 55.68905,-31.89589 52.78634,-36.44646 -0.55728,-0.87364 -0.22316,-1.11366 0.74404,-0.53449 1.97717,1.18394 16.21261,-12.1773 28.00165,-26.282 4.29818,-5.14247 8.70099,-10.37554 9.784,-11.62904 2.76917,-3.20508 9.91518,-12.85004 11.58899,-15.64162 0.77084,-1.28561 -1.95742,1.24423 -6.06281,5.62187 -4.1054,4.37766 -12.55092,11.99138 -18.76784,16.91939 -6.21693,4.928 -10.83514,9.69428 -10.26269,10.5917 0.57247,0.89744 0.36347,1.22609 -0.4644,0.73035 -0.82789,-0.49573 -6.09125,2.55152 -11.69638,6.77168 -5.60512,4.22017 -10.87242,7.67303 -11.7051,7.67303 -0.83268,0 -1.07178,0.69322 -0.53134,1.54048 0.58368,0.91501 -0.13784,1.12384 -1.77729,0.51434 -1.89885,-0.706 -2.3894,-0.4453 -1.57235,0.83562 0.65317,1.02395 0.59096,1.72327 -0.13816,1.55402 -0.7292,-0.16927 -7.01738,2.26419 -13.9737,5.40767 -15.89933,7.18468 -31.72784,11.96439 -39.6214,11.96439 -4.02199,0 -6.41743,0.82175 -7.0498,2.41842 -0.6258,1.58006 -0.31193,2.03165 0.90543,1.30268 1.22945,-0.7362 1.52732,-0.26747 0.87562,1.37793 -0.54319,1.37151 0.24085,4.11622 1.74234,6.09936 4.76361,6.29165 2.63357,13.4925 -3.11012,10.5142 -3.29524,-1.70868 -8.662,0.67343 -7.08545,3.14498 1.11553,1.74881 16.67534,-0.77827 27.39042,-4.4485 z m -34.25582,-27.08711 c -0.63877,-1.89808 -1.15393,-6.60667 -1.14481,-10.46352 0.0161,-6.78769 0.19704,-7.04333 5.64589,-7.97605 4.7606,-0.81491 4.14012,-1.02596 -4.02091,-1.36762 -13.25812,-0.55507 -14.64647,-0.76002 -26.53802,-3.91779 -11.59082,-3.07793 -42.77836,-16.43878 -51.33426,-21.99181 -3.02272,-1.96183 -6.21055,-3.139 -7.08405,-2.61595 -0.96084,0.57536 -1.06815,0.13573 -0.27166,-1.11289 0.96391,-1.51112 0.57732,-1.78908 -1.4434,-1.03778 -1.63937,0.6095 -2.36096,0.40067 -1.77729,-0.51434 0.54046,-0.84726 0.32024,-1.54048 -0.48936,-1.54048 -0.8096,0 -4.80629,-2.46672 -8.88154,-5.48159 -7.38058,-5.46015 -18.90939,-9.40088 -16.51327,-5.64451 0.64097,1.00485 2.0201,1.35251 3.06473,0.77258 1.04462,-0.57993 1.38196,-0.49918 0.74963,0.17947 -1.76429,1.89352 1.83694,7.29939 4.04502,6.07204 1.06137,-0.58995 1.38032,-0.4863 0.70878,0.23034 -1.51774,1.61966 5.17953,8.76792 7.1239,7.60362 0.77793,-0.46583 1.21555,-0.15749 0.97248,0.68521 -0.24307,0.84271 5.71006,6.92764 13.22916,13.52211 7.51911,6.59445 13.91235,12.61892 14.20722,13.38771 0.29487,0.7688 1.16329,1.3978 1.92983,1.3978 0.76653,0 4.59407,2.0927 8.50563,4.65044 13.50165,8.82864 31.45082,15.43325 50.14628,18.45193 9.6539,1.55876 10.67788,1.19151 9.17002,-3.28892 z m 33.48397,1.9148 c 14.61796,-3.89423 36.91978,-14.19819 46.20815,-21.34924 3.75956,-2.89446 6.83555,-4.80273 6.83555,-4.24063 0,1.15635 5.13276,-2.89312 22.51711,-17.76477 18.67684,-15.97736 25.74514,-22.96312 25.60685,-25.30784 -0.0939,-1.59365 -0.33859,-1.64439 -0.94155,-0.19533 -0.44801,1.07669 -1.58834,1.49427 -2.53407,0.92796 -1.02923,-0.6163 -1.24892,-0.2919 -0.54727,0.80807 0.64473,1.01073 0.57562,1.6793 -0.1536,1.48569 -0.7292,-0.19361 -7.47781,3.52137 -14.99692,8.2555 -25.36544,15.97041 -53.4338,27.08594 -83.63496,33.12084 l -16.88783,3.3746 0.14186,5.42215 c 0.078,2.98219 -0.44692,6.99997 -1.16647,8.9284 -0.897,2.40397 -0.68876,3.5449 0.66238,3.62925 1.51284,0.0944 1.50359,0.30562 -0.0399,0.90902 -1.10575,0.43229 -2.01046,1.77943 -2.01046,2.99361 0,3.11681 6.69461,2.79799 20.94107,-0.99728 z m 3.7696,-27.82737 c 12.93637,-2.98062 24.69596,-6.44566 33.91853,-9.99429 11.91498,-4.58462 39.50631,-19.05421 48.97192,-25.68211 5.74315,-4.02141 11.04049,-7.71381 11.77185,-8.20534 0.73136,-0.49154 1.63151,-2.41189 2.00032,-4.26748 0.65913,-3.31605 0.56903,-3.33148 -5.26485,-0.90205 -22.73541,9.46781 -40.40238,15.47625 -54.99058,18.70201 -20.23757,4.47496 -64.39513,8.96324 -66.65377,6.77487 -0.98228,-0.95171 1.05735,-1.49295 5.62619,-1.49295 11.92034,0 48.05285,-4.53329 62.34435,-7.82191 12.64642,-2.91007 57.45572,-19.03437 60.31129,-21.70257 0.72291,-0.67548 0.1425,-1.66385 -1.28981,-2.19637 -1.79318,-0.6667 -2.23159,-0.36717 -1.40774,0.96182 0.91238,1.47178 0.64579,1.51474 -1.12273,0.18093 -3.35391,-2.5295 -126.47574,-4.02334 -130.54139,-1.58386 -2.30054,1.38036 -3.2687,1.29042 -4.35751,-0.40482 -1.15256,-1.79447 -5.90283,-1.98759 -26.89104,-1.09321 -24.01043,1.02317 -62.12909,4.42078 -74.48071,6.63865 -4.94154,0.88731 -5.1781,1.13721 -2.11559,2.23486 1.89643,0.67971 4.29135,2.7625 5.32203,4.62843 1.28018,2.31762 1.3135,3.05698 0.10514,2.33342 -0.97285,-0.58255 -1.76883,-0.31656 -1.76883,0.5911 0,0.90766 0.22214,1.6503 0.49364,1.6503 0.2715,0 11.60017,2.4705 25.17482,5.49 26.53626,5.90266 53.94627,10.09323 66.01853,10.09323 l 7.4921,0 -0.72743,-8.4988 c -1.2205,-14.25964 2.20933,-20.55994 6.10281,-11.21036 0.98707,2.37031 1.42345,2.60678 1.49565,0.8105 0.0561,-1.39493 1.22392,-3.43842 2.59522,-4.54109 2.04642,-1.64553 2.91319,-1.59799 4.83626,0.26524 2.05176,1.98792 1.84822,3.49337 -1.63749,12.11107 -4.79375,11.85161 -4.2875,17.75268 2.65346,30.9297 1.0151,1.92713 1.42405,3.91237 0.90874,4.41165 -1.73012,1.67628 -7.7818,-2.6102 -9.6589,-6.84152 l -1.85906,-4.19065 -0.58569,5.15908 c -0.48576,4.27895 -1.1844,5.07647 -4.09531,4.67497 -4.20482,-0.57999 -5.4449,-6.78587 -2.81599,-14.09249 0.95337,-2.64974 1.49389,-5.04976 1.20119,-5.33338 -0.29272,-0.2836 -8.07645,-1.24709 -17.29718,-2.1411 -18.1093,-1.75581 -32.65349,-4.17673 -55.36571,-9.21575 -7.96141,-1.76635 -16.2847,-3.61148 -18.4962,-4.10028 -7.038,-1.55559 13.9913,11.75295 34.57984,21.88409 16.81273,8.27315 34.35056,14.84359 45.03421,16.87179 1.7692,0.33587 11.80336,0.72746 22.29813,0.8702 14.05071,0.19111 22.53139,-0.53536 32.16729,-2.75553 z M 325.41474,469.74165 c 0,-1.24792 0.61495,-1.9007 1.36654,-1.45064 0.7516,0.45006 0.95014,1.47107 0.4412,2.26893 -1.30056,2.03888 -1.80774,1.80931 -1.80774,-0.81829 z m 69.80777,9.82824 c 0.18371,-2.36289 -0.24254,-2.86171 -1.44764,-1.6941 -0.9394,0.91017 -1.22171,2.41719 -0.62736,3.34896 1.51196,2.37028 1.77858,2.15765 2.075,-1.65486 z m 8.46598,-23.32646 c 0,-0.85708 -0.72376,-1.12494 -1.60836,-0.59523 -0.8846,0.5297 -1.60837,1.66433 -1.60837,2.52141 0,0.85708 0.72377,1.12494 1.60837,0.59523 0.8846,-0.5297 1.60836,-1.66433 1.60836,-2.52141 z m -6.00816,0.81073 c 1.44985,-1.40472 -0.54652,-5.41311 -2.20219,-4.42169 -0.79191,0.4742 -1.43984,1.87267 -1.43984,3.1077 0,2.29477 1.91623,2.98612 3.64203,1.31399 z m -98.11614,-20.03513 c 17.73349,-2.70509 58.2179,-5.52484 79.32259,-5.52484 16.8846,0 15.54958,1.08827 15.8966,-12.95835 l 0.18539,-7.50421 -12.12587,0.99472 c -16.33919,1.34034 -49.23506,7.94404 -66.06748,13.26274 -13.2169,4.17627 -35.81771,13.58638 -33.29487,13.8627 0.67297,0.0737 7.91061,-0.88603 16.08364,-2.13276 z m -14.04628,-2.96112 c 4.8275,-3.21263 33.90314,-12.83849 49.98335,-16.54763 11.29557,-2.60549 52.26938,-9.33189 57.14264,-9.38073 1.54083,-0.0154 -3.35381,-12.9055 -5.96776,-15.71614 -1.25841,-1.3531 -2.28802,-3.28152 -2.28802,-4.28538 0,-2.97458 6.06305,-2.0801 9.39609,1.3862 l 3.08797,3.2114 1.71612,-4.76973 c 0.97353,-2.70579 2.85746,-4.76972 4.35372,-4.76972 2.136,0 2.46602,1.11126 1.73544,5.84371 -0.49618,3.21404 -1.10151,8.64869 -1.34519,12.077 l -0.44306,6.2333 33.77322,0.97868 c 27.96407,0.81035 37.16943,1.6929 53.51835,5.13096 10.85984,2.28375 20.56154,3.66341 21.55934,3.06593 1.05968,-0.63455 1.37055,-0.39086 0.74745,0.58595 -1.2377,1.94035 5.27866,3.58822 16.98691,4.29568 l 7.99637,0.48318 -10.19633,-9.22137 c -5.60798,-5.07176 -11.13861,-8.87732 -12.29031,-8.45679 -1.15169,0.42053 -1.7192,0.17704 -1.26114,-0.54107 1.47471,-2.31188 -10.89273,-11.75814 -31.22471,-23.84945 -28.33443,-16.85031 -58.74727,-27.79217 -77.24826,-27.79217 l -4.28106,0 1.93594,7.38729 c 1.41777,5.41007 1.46292,8.12112 0.16865,10.12909 -2.1518,3.33838 -3.28172,3.41882 -6.34416,0.45167 -2.07934,-2.01465 -2.64446,-1.88046 -4.69759,1.11553 -2.28826,3.33908 -2.36612,3.34578 -3.98239,0.34224 -0.96889,-1.80053 -1.18769,-6.43612 -0.53072,-11.24462 l 1.11774,-8.1812 -4.93883,0.0267 c -13.96132,0.0755 -42.09531,10.757 -57.21069,21.72093 -18.09423,13.12463 -41.48019,37.11399 -38.89609,39.89967 0.60474,0.65191 0.25663,0.71787 -0.77357,0.14658 -2.77042,-1.53633 -9.52969,9.59339 -7.19816,11.85239 1.31576,1.27482 2.75691,0.89309 5.43113,-1.43861 2.00206,-1.74564 7.09289,-5.42645 11.31295,-8.17957 4.4078,-2.87561 7.21079,-5.73 6.58704,-6.70785 -0.62551,-0.9806 -0.34661,-1.25955 0.65793,-0.65802 0.95904,0.57428 5.39505,-1.04178 9.85779,-3.59124 9.38292,-5.36024 25.22124,-12.55459 27.63884,-12.55459 0.9106,0 1.32014,-0.52594 0.91011,-1.16874 -0.41004,-0.64281 0.81384,-1.27802 2.71972,-1.41159 1.90587,-0.13356 10.34099,-2.14546 18.74469,-4.47088 12.41547,-3.43553 19.66924,-4.36981 38.69895,-4.98437 26.18326,-0.84559 39.98423,1.11229 64.23639,9.1129 7.51911,2.4805 14.39487,4.73011 15.27947,4.99914 0.8846,0.26903 4.41087,1.665 7.83614,3.10215 3.42529,1.43715 6.56879,2.613 6.98556,2.613 1.57311,0 27.18791,12.94672 31.51139,15.92707 2.48357,1.71205 4.12954,3.48686 3.65768,3.94403 -0.47185,0.45717 -1.92935,-0.0303 -3.23888,-1.08332 -1.30953,-1.05299 -3.24825,-1.3952 -4.30828,-0.76044 -1.1506,0.68898 -1.50681,0.49484 -0.88387,-0.48172 1.25259,-1.96368 -3.33826,-3.95909 -5.76519,-2.50583 -0.9893,0.5924 -1.24231,0.2891 -0.5995,-0.71863 1.09803,-1.72138 -9.88272,-7.96487 -18.30722,-10.40921 -2.21151,-0.64166 -6.94695,-2.43693 -10.52321,-3.98948 -30.43702,-13.21354 -50.36432,-17.59401 -80.3494,-17.66262 -21.62406,-0.0495 -25.86174,0.40457 -40.87144,4.37913 -24.88496,6.58953 -50.76295,17.13935 -48.96305,19.96104 0.44514,0.69785 0.21273,1.1251 -0.51647,0.94944 -1.9723,-0.47511 -13.38856,5.29253 -13.38856,6.76407 0,0.69834 -1.12836,1.2697 -2.50747,1.2697 -1.4858,0 -2.03987,0.73304 -1.35985,1.7991 0.6646,1.04189 0.44565,1.37876 -0.52022,0.80039 -1.79606,-1.07549 -8.20639,3.17989 -15.31492,10.16654 -6.51527,6.40355 -5.68095,9.99368 1.25049,5.38092 z m 237.3206,-3.73246 c -0.82752,-1.49989 -1.85679,-3.85378 -2.28727,-5.23087 -0.84512,-2.70349 -10.42545,-5.40843 -38.33434,-10.82345 -21.19005,-4.1114 -81.03693,-6.30868 -76.70452,-2.81621 3.26663,2.63333 12.65139,15.35991 12.65139,17.15643 0,2.98084 -5.81115,1.00991 -10.77988,-3.65614 l -5.30376,-4.98066 0,5.73306 0,5.73307 40.6112,0.44432 c 22.33617,0.24438 49.84533,0.60704 61.13148,0.80592 19.10599,0.33667 20.41659,0.17364 19.0157,-2.36547 z m -55.24433,102.26636 c 1.09101,-1.06499 2.3888,-1.54379 2.884,-1.06399 0.4952,0.47979 -0.39744,1.35114 -1.98364,1.93634 -2.29224,0.84567 -2.47698,0.66668 -0.90036,-0.87235 z m -267.77476,-107.72049 -0.39324,-138.30116 207.88113,0.38365 207.88113,0.38365 -207.06821,0.40139 -207.06821,0.40139 -0.41968,137.51612 -0.41968,137.51612 -0.39324,-138.30116 z"
       id="path10395"
       inkscape:connector-curvature="0" />
    <path
       style="fill:#b7b8a1"
       d="m 381.97557,569.2411 c -23.6079,-3.37581 -48.37622,-11.22098 -63.94941,-20.25549 -11.27905,-6.54335 -29.90027,-20.87814 -30.04507,-23.129 -0.0522,-0.81093 2.25738,0.66813 5.13233,3.28683 25.88743,23.57995 61.98129,37.17492 103.33743,38.92267 67.89251,2.8692 125.62065,-28.38544 150.61497,-81.54459 6.13602,-13.05038 7.98235,-21.44862 9.35689,-42.56075 l 1.16675,-17.92071 0.25102,13.49824 c 1.08314,58.24428 -42.86079,108.90771 -108.78676,125.42139 -12.30222,3.08157 -20.55286,4.02268 -38.93177,4.44081 -12.82671,0.29181 -25.49258,0.22008 -28.14638,-0.1594 z M 200.19585,426.04006 c -1e-4,-75.42283 0.19613,-106.5057 0.43607,-69.07305 0.23994,37.43264 0.24003,99.14223 1.9e-4,137.13241 -0.23984,37.99019 -0.43616,7.36347 -0.43626,-68.05936 z m 196.6859,125.87396 c 2.89079,-0.34682 7.23338,-0.33967 9.65019,0.0159 2.4168,0.35558 0.0516,0.63933 -5.256,0.63059 -5.3076,-0.009 -7.28499,-0.29966 -4.39419,-0.64648 z m -12.89573,-1.46101 c 1.10576,-0.43229 2.91517,-0.43229 4.02092,0 1.10575,0.43229 0.20104,0.786 -2.01046,0.786 -2.2115,0 -3.11621,-0.35371 -2.01046,-0.786 z m 30.55893,0 c 1.10575,-0.43229 2.91516,-0.43229 4.02091,0 1.10576,0.43229 0.20105,0.786 -2.01045,0.786 -2.2115,0 -3.11621,-0.35371 -2.01046,-0.786 z m -42.21957,-2.80749 c -6.2116,-2.75574 -3.3224,-2.79618 4.02091,-0.0563 3.0961,1.1552 4.54363,2.1221 3.21673,2.14865 -1.3269,0.0265 -4.58384,-0.91502 -7.23764,-2.09237 z m 50.36192,1.21671 c 1.16103,-0.45016 2.54824,-0.3948 3.0827,0.12295 0.53445,0.51781 -0.4155,0.88612 -2.11098,0.81846 -1.87366,-0.0748 -2.25476,-0.44403 -0.97172,-0.94148 z m -26.19011,-7.00353 c 0.50924,-3.70482 1.28275,-9.01508 1.71892,-11.80058 0.54747,-3.49627 0.14797,-5.07194 -1.29029,-5.08841 -1.68964,-0.0193 -1.68579,-0.26816 0.0204,-1.31657 1.20882,-0.74279 1.76504,-2.88705 1.30756,-5.04069 -0.4379,-2.06139 -1.22584,-6.81102 -1.75098,-10.55474 l -0.95483,-6.80677 4.94526,0.70324 c 2.71989,0.38678 5.31799,0.1189 5.77356,-0.59528 1.20221,-1.88469 7.0719,-1.5951 7.0719,0.34893 0,3.09894 -3.42805,16.26959 -4.94541,19.00035 -1.33852,2.40888 -0.62238,2.75437 6.13806,2.96111 l 7.65336,0.23406 -6.75597,0.93468 -6.75597,0.9347 3.94133,7.50684 c 5.03811,9.5958 5.18768,13.92544 0.45777,13.24932 -2.31734,-0.33125 -4.14086,-2.32388 -5.44692,-5.95209 -2.02765,-5.63277 -3.29388,-4.70631 -4.25965,3.11664 -0.33166,2.68647 -1.61602,4.05187 -4.13747,4.39855 -3.43476,0.47227 -3.60036,0.0943 -2.73062,-6.23329 z m 32.92514,5.21429 c 1.3269,-0.79432 4.22195,-1.91315 6.43345,-2.4863 2.79451,-0.72423 3.28507,-0.60156 1.60837,0.40217 -1.3269,0.79432 -4.22196,1.91315 -6.43346,2.4863 -2.7945,0.72423 -3.28507,0.60156 -1.60836,-0.40217 z m -70.36596,-4.92079 c -2.87495,-1.69836 -5.22718,-3.50604 -5.22718,-4.01708 0,-0.73349 9.67515,4.28771 12.73289,6.6081 2.52201,1.91384 -3.25691,-0.081 -7.50571,-2.59102 z m 81.62451,0.9288 c 0,-0.33684 1.12323,-1.03005 2.49608,-1.54048 1.43132,-0.53215 2.07692,-0.27091 1.51344,0.61244 -0.94453,1.48074 -4.00952,2.19015 -4.00952,0.92804 z m 7.61292,-4.2559 c 1.09102,-1.06499 2.38881,-1.54378 2.88401,-1.06399 0.4952,0.47979 -0.39745,1.35114 -1.98365,1.93634 -2.29224,0.84567 -2.47698,0.66668 -0.90036,-0.87235 z m -106.00185,-7.13042 c -2.94283,-2.31394 -5.65216,-4.41767 -6.02074,-4.67497 -0.36859,-0.25731 -0.36859,-0.7484 0,-1.09132 0.36858,-0.34293 3.50485,1.76081 6.96949,4.67497 7.47377,6.2863 6.73658,7.13426 -0.94875,1.09132 z m 113.66839,3.14621 c 0.8846,-0.8271 5.58907,-4.11199 10.45437,-7.29975 6.3941,-4.18944 7.43105,-4.58987 3.74109,-1.44469 -4.7648,4.06135 -17.72601,12.04547 -14.19546,8.74444 z M 331.31208,522.93175 c -1.3269,-1.07948 -4.9406,-4.73872 -8.03044,-8.13164 -4.47659,-4.91567 -3.90477,-4.59791 2.81463,1.5641 7.62514,6.99262 9.25158,8.7303 8.03045,8.5798 -0.22115,-0.0273 -1.48774,-0.93278 -2.81464,-2.01226 z m -54.67405,-8.98356 c -7.88904,-9.18471 -16.09878,-23.02516 -18.40567,-31.02934 -0.61755,-2.1427 1.77314,1.71415 5.31264,8.57077 3.53949,6.85662 10.09943,16.84937 14.57763,22.20611 4.4782,5.35673 7.80963,9.73951 7.40317,9.73951 -0.40646,0 -4.40596,-4.26918 -8.88777,-9.48705 z m 109.79115,8.40715 c 1.56489,-0.3951 3.73618,-0.36912 4.82509,0.0578 1.08891,0.42688 -0.19144,0.75013 -2.84524,0.71838 -2.6538,-0.0318 -3.54474,-0.38101 -1.97985,-0.77611 z m 41.38478,-0.47842 c 5.49927,-1.70638 9.72774,-1.70638 5.62928,0 -1.7692,0.7366 -4.66426,1.31865 -6.43346,1.29346 -2.58591,-0.0368 -2.4282,-0.29048 0.80418,-1.29346 z m -50.26139,-1.03205 c 1.10575,-0.43229 2.91516,-0.43229 4.02091,0 1.10575,0.4323 0.20104,0.78601 -2.01046,0.78601 -2.2115,0 -3.1162,-0.35371 -2.01045,-0.78601 z m -10.05228,-2.0846 c -2.02757,-0.84417 -2.32486,-1.33926 -0.80419,-1.33926 1.32691,0 3.86008,0.60266 5.62928,1.33926 2.02757,0.84418 2.32486,1.33927 0.80418,1.33927 -1.3269,0 -3.86007,-0.60266 -5.62927,-1.33927 z m 76.39732,-1.55832 c 1.3269,-0.83083 3.13631,-1.51059 4.02091,-1.51059 0.8846,0 0.52272,0.67976 -0.80418,1.51059 -1.3269,0.83084 -3.13631,1.51059 -4.02091,1.51059 -0.88461,0 -0.52272,-0.67975 0.80418,-1.51059 z m -92.48097,-4.67497 c -5.3076,-2.43994 -8.92642,-4.45543 -8.04182,-4.47887 0.8846,-0.0235 5.95095,1.96639 11.25855,4.42187 5.3076,2.45548 8.92642,4.47097 8.04182,4.47888 -0.8846,0.008 -5.95095,-1.98193 -11.25855,-4.42188 z m 99.75533,1.89665 c 2.56336,-2.12796 10.70042,-5.15896 9.71888,-3.62023 -0.49702,0.77918 -3.24073,2.20606 -6.09712,3.17081 -2.85637,0.96476 -4.48618,1.167 -3.62176,0.44942 z m 12.8302,-6.57162 c 0.54671,-0.85707 1.71778,-1.55832 2.60238,-1.55832 0.8846,0 1.16106,0.70125 0.61435,1.55832 -0.54672,0.85708 -1.71779,1.55833 -2.60239,1.55833 -0.8846,0 -1.16106,-0.70125 -0.61434,-1.55833 z M 303.14103,492.13522 c -6.63984,-8.64423 -12.80938,-17.23449 -13.71008,-19.08945 l -1.63763,-3.37267 2.5342,3.3297 c 1.39382,1.83133 7.0239,9.13017 12.51129,16.21965 5.48739,7.08948 10.97006,14.18136 12.18371,15.75976 1.21365,1.57839 1.7531,2.8698 1.19879,2.8698 -0.55431,0 -6.44043,-7.07255 -13.08028,-15.71679 z m 189.74905,12.6672 c 3.50336,-3.75069 4.30618,-4.00068 3.10455,-0.9667 -0.48294,1.21935 -2.04811,2.65201 -3.47817,3.18371 -2.1361,0.79419 -2.06942,0.39854 0.37362,-2.21701 z m -23.25864,0.97286 c 0,-0.42492 3.43788,-2.8329 7.63973,-5.35106 4.20186,-2.51816 11.62044,-7.97419 16.48574,-12.1245 11.21061,-9.56316 15.96559,-12.72729 7.34447,-4.88729 -12.59764,11.45626 -31.46994,24.86709 -31.46994,22.36285 z m 32.97486,-10.38206 c 2.65193,-2.9955 5.00265,-5.74204 5.2238,-6.10343 0.22115,-0.36141 0.75314,-0.31697 1.18218,0.0988 0.42905,0.4157 -1.92167,3.16225 -5.2238,6.10342 l -6.00392,5.34762 4.82174,-5.44634 z m -123.84746,0.73229 c -0.8846,-0.3147 -4.75741,-1.3573 -8.60626,-2.31688 -3.84885,-0.95957 -6.70322,-2.03022 -6.34302,-2.37919 0.36017,-0.34897 3.50922,0.12997 6.99789,1.06451 3.48866,0.93445 9.59996,2.23544 13.58067,2.89111 6.59817,1.08679 6.74028,1.19744 1.60836,1.25237 -3.0961,0.0332 -6.35304,-0.19722 -7.23764,-0.51192 z m 41.446,-0.26166 c 1.56489,-0.3951 3.73618,-0.36912 4.82509,0.0578 1.08891,0.42687 -0.19144,0.75013 -2.84525,0.71837 -2.6538,-0.0318 -3.54473,-0.38101 -1.97984,-0.77611 z m 8.81539,-1.51047 c 1.10576,-0.43229 2.91517,-0.43229 4.02092,0 1.10575,0.4323 0.20104,0.78601 -2.01046,0.78601 -2.2115,0 -3.11621,-0.35371 -2.01046,-0.78601 z m -24.74144,-4.93354 c -1.83736,-1.43286 -3.9531,-4.00768 -4.70163,-5.72183 -1.17263,-2.68538 -1.44155,-2.41585 -1.94344,1.9479 -0.43786,3.80706 -1.36841,5.06455 -3.74779,5.06455 -4.58391,0 -5.40554,-3.76361 -3.00592,-13.76907 1.16428,-4.85463 2.17026,-14.0229 2.23549,-20.37392 0.1224,-11.91798 2.77894,-16.44178 5.48818,-9.34589 l 1.34464,3.52183 0.91534,-3.39132 c 1.13635,-4.21026 7.64993,-4.75711 7.64993,-0.64225 0,1.51198 -1.44753,6.58611 -3.21673,11.27584 -4.07816,10.8102 -4.03975,12.12439 0.68329,23.38624 4.16461,9.93024 3.67602,12.2414 -1.70136,8.04792 z m -9.05628,-9.84995 c 0.18371,-2.36289 -0.24254,-2.86171 -1.44764,-1.6941 -0.9394,0.91017 -1.22171,2.41719 -0.62736,3.34896 1.51196,2.37028 1.77858,2.15765 2.075,-1.65486 z m 8.46598,-23.32646 c 0,-0.85708 -0.72376,-1.12494 -1.60836,-0.59523 -0.8846,0.5297 -1.60837,1.66433 -1.60837,2.52141 0,0.85708 0.72377,1.12494 1.60837,0.59523 0.8846,-0.5297 1.60836,-1.66433 1.60836,-2.52141 z m -6.00816,0.81073 c 1.44985,-1.40472 -0.54652,-5.41311 -2.20219,-4.42169 -0.79191,0.4742 -1.43984,1.87267 -1.43984,3.1077 0,2.29477 1.91623,2.98612 3.64203,1.31399 z m 44.20682,34.18258 c 1.10575,-0.4323 2.91516,-0.4323 4.02091,0 1.10575,0.43229 0.20105,0.786 -2.01045,0.786 -2.2115,0 -3.11621,-0.35371 -2.01046,-0.786 z m -92.88306,-5.20125 c -3.0961,-1.6423 -4.90551,-2.98601 -4.02091,-2.98601 0.8846,0 4.14154,1.34371 7.23764,2.98601 3.0961,1.6423 4.90551,2.98601 4.02091,2.98601 -0.8846,0 -4.14153,-1.34371 -7.23764,-2.98601 z m 106.95625,1.64734 c 8.08294,-3.73332 27.19492,-10.88024 27.7242,-10.36745 0.69778,0.67608 -21.12292,9.50417 -26.92001,10.89115 -3.41043,0.81597 -3.53252,0.73645 -0.80419,-0.5237 z m 60.60931,-7.88063 c 16.56329,-20.04396 19.30427,-24.51075 17.12006,-27.89942 -1.92214,-2.98207 -2.18919,-3.00641 -5.2409,-0.47755 -1.79859,1.49043 -1.29146,0.3802 1.15083,-2.51948 4.76726,-5.66003 5.46323,-8.0486 2.35593,-8.08548 -1.34215,-0.0159 -1.21295,-0.51238 0.38865,-1.49344 5.80703,-3.55709 -1.47526,-5.0027 -25.94805,-5.15093 l -24.70199,-0.14962 22.5171,-0.87646 c 14.21666,-0.55338 21.47955,-1.36876 19.70247,-2.21193 -1.54805,-0.73451 -2.81464,-2.96214 -2.81464,-4.95029 0,-2.15715 -1.13499,-3.87591 -2.81464,-4.26228 -1.54805,-0.35611 0.0804,-0.54314 3.61882,-0.41564 3.53841,0.1275 8.14927,1.13865 10.24638,2.24699 6.83409,3.6119 2.04819,-0.96027 -7.29424,-6.96848 -5.01408,-3.2246 -16.41468,-8.87686 -25.33469,-12.56058 -8.92,-3.68373 -15.44332,-6.72442 -14.49625,-6.7571 3.67966,-0.12697 31.81532,12.51535 40.82247,18.34296 5.22041,3.37759 12.07788,6.61116 15.23882,7.1857 4.34485,0.78974 5.74717,1.81502 5.74717,4.20197 0,1.73654 1.09981,4.22295 2.44403,5.52534 2.18648,2.11845 1.93225,3.0423 -2.41254,8.76646 -2.67113,3.51916 -4.85659,7.27734 -4.85659,8.35152 0,1.07418 -0.93037,2.51384 -2.0675,3.19924 -1.13713,0.6854 -5.43262,5.80427 -9.54555,11.37527 -4.11291,5.57101 -10.49968,13.28471 -14.19281,17.14155 l -6.71479,7.01246 7.08245,-8.57078 z m -181.23666,0.11312 c -2.6538,-1.50994 -10.42889,-5.78139 -17.27798,-9.49213 -6.84908,-3.71075 -12.11108,-7.07795 -11.69333,-7.48271 0.41775,-0.40476 3.53752,1.04526 6.93282,3.22225 3.3953,2.17701 10.46671,6.10755 15.71425,8.73456 5.24754,2.62702 10.62662,5.49581 11.95352,6.37511 4.01804,2.66263 -0.46301,1.58237 -5.62928,-1.35708 z m -81.22241,-9.46306 c -1.08397,-4.3779 -1.65103,-8.26972 -1.26013,-8.64845 0.3909,-0.37874 1.57037,2.9197 2.62105,7.32988 1.05068,4.41016 1.61774,8.30196 1.26013,8.64844 -0.35761,0.3465 -1.53708,-2.95196 -2.62105,-7.32987 z m 243.34588,-0.73312 c 6.90004,-3.8188 15.92142,-9.15071 20.04749,-11.84873 4.12607,-2.69802 6.48253,-3.71537 5.23658,-2.2608 -2.59032,3.02404 -33.56797,21.08191 -36.13516,21.06435 -0.93195,-0.006 3.95104,-3.13605 10.85109,-6.95482 z m 14.79665,3.79708 c 1.7692,-2.11372 4.0606,-4.37091 5.092,-5.01599 1.03139,-0.64508 5.28898,-4.50193 9.4613,-8.57078 6.00293,-5.85405 6.61852,-6.20684 2.94982,-1.69053 -2.54992,3.13906 -8.25503,8.72532 -12.67803,12.4139 -4.423,3.68858 -6.5943,4.97711 -4.82509,2.8634 z M 283.9024,464.99813 c -1.34729,-2.14269 -3.55195,-5.64892 -4.89925,-7.79161 -1.55195,-2.46818 -3.90951,-3.89581 -6.43346,-3.89581 -2.61985,0 -3.98383,-0.87487 -3.98383,-2.55527 0,-1.40539 -1.26659,-3.47433 -2.81464,-4.59763 -2.68061,-1.9451 -2.68061,-2.27467 0,-6.92095 1.54805,-2.68323 2.81464,-6.1669 2.81464,-7.7415 0,-4.9907 1.851,-7.79278 5.14775,-7.79278 1.82988,0 3.55043,1.31607 4.0265,3.07991 0.77082,2.8559 1.31554,2.69889 7.48916,-2.15875 12.59875,-9.91316 44.79422,-29.00957 48.81338,-28.95314 0.69869,0.01 -3.43412,2.53582 -9.18403,5.61337 -14.84673,7.94646 -35.88242,21.48484 -40.82793,26.27648 -2.31345,2.24147 -4.20628,5.47069 -4.20628,7.17605 0,2.68555 0.48446,2.87068 3.61882,1.3829 3.3091,-1.57072 3.27468,-1.43435 -0.40209,1.59336 l -4.02091,3.31111 5.62928,-0.96359 c 4.17088,-0.71394 5.00425,-0.54154 3.21673,0.66543 -1.99888,1.3497 -1.80832,1.63311 1.11135,1.65288 4.18031,0.0283 5.97879,2.36671 6.31055,8.20506 0.26423,4.65009 -1.03433,5.20523 -6.06908,2.59456 -3.8662,-2.00475 -11.62084,-0.53845 -10.06356,1.90288 0.62746,0.98366 1.48731,1.0829 2.07623,0.23961 0.55288,-0.79166 3.14172,1.06189 5.75298,4.11902 l 4.74774,5.55841 -5.14984,-4.57693 c -5.87194,-5.21872 -6.59004,-3.96409 -1.95073,3.40819 1.75289,2.7855 2.85252,5.06455 2.44361,5.06455 -0.4089,0 -1.84579,-1.75311 -3.19309,-3.89581 z m 91.25973,2.77759 c 2.44481,-0.3582 6.06363,-0.34861 8.04183,0.0212 1.97819,0.36989 -0.0222,0.66294 -4.44512,0.65126 -4.423,-0.0125 -6.04152,-0.31435 -3.59671,-0.67253 z m 36.97028,0.002 c 2.43265,-0.35706 6.41335,-0.35706 8.846,0 2.43265,0.35704 0.4423,0.64918 -4.423,0.64918 -4.8653,0 -6.85566,-0.29214 -4.423,-0.64918 z m -49.05513,-1.47422 c 1.10575,-0.4323 2.91516,-0.4323 4.02092,0 1.10575,0.43229 0.20104,0.786 -2.01046,0.786 -2.2115,0 -3.11621,-0.35371 -2.01046,-0.786 z m 69.98598,-0.0862 c 2.44481,-0.35819 6.06363,-0.34861 8.04182,0.0212 1.9782,0.36988 -0.022,0.66294 -4.44511,0.65125 -4.42301,-0.0125 -6.04152,-0.31434 -3.59671,-0.67253 z m -82.75237,-1.50409 c 1.16104,-0.45015 2.54825,-0.3948 3.0827,0.12295 0.53444,0.51783 -0.4155,0.88613 -2.11098,0.81846 -1.87365,-0.0748 -2.25477,-0.44403 -0.97172,-0.94147 z m 97.23615,-0.0156 c 1.56489,-0.3951 3.73618,-0.36912 4.82509,0.0577 1.08891,0.42688 -0.19144,0.75013 -2.84525,0.71838 -2.6538,-0.0318 -3.54474,-0.38101 -1.97984,-0.77611 z m -105.27797,-1.54274 c 1.16103,-0.45016 2.54825,-0.3948 3.0827,0.12295 0.53444,0.51783 -0.4155,0.88612 -2.11098,0.81846 -1.87366,-0.0748 -2.25477,-0.44403 -0.97172,-0.94148 z m 114.09336,0.0324 c 1.10575,-0.43229 2.91516,-0.43229 4.02092,0 1.10575,0.43229 0.20104,0.786 -2.01046,0.786 -2.2115,0 -3.11621,-0.35371 -2.01046,-0.786 z M 334.22724,461.5961 c 1.16104,-0.45016 2.54826,-0.3948 3.0827,0.12295 0.53445,0.51783 -0.41549,0.88612 -2.11098,0.81846 -1.87365,-0.0748 -2.25476,-0.44403 -0.97172,-0.94148 z m 131.8859,0 c 1.16103,-0.45016 2.54825,-0.3948 3.08271,0.12295 0.53444,0.51783 -0.41551,0.88612 -2.11098,0.81846 -1.87366,-0.0748 -2.25477,-0.44403 -0.97173,-0.94148 z m -167.17351,-3.08639 c -2.00158,-2.35088 -1.86999,-2.41842 1.41143,-0.72434 3.7426,1.93218 4.66415,3.31696 2.20739,3.31696 -0.77628,0 -2.40475,-1.16667 -3.61882,-2.59262 z m 27.24579,1.52811 c 1.16104,-0.45015 2.54825,-0.3948 3.0827,0.12295 0.53444,0.51783 -0.4155,0.88613 -2.11098,0.81846 -1.87365,-0.0748 -2.25477,-0.44402 -0.97172,-0.94147 z m 155.50876,-2.06997 c 5.3076,-1.68105 10.37395,-3.0166 11.25855,-2.96784 2.57932,0.14212 -9.23365,4.06029 -15.33709,5.08704 -3.0644,0.51551 -1.22907,-0.43812 4.07854,-2.1192 z m -161.94222,0.51165 c 1.16104,-0.45015 2.54825,-0.3948 3.0827,0.12295 0.53445,0.51783 -0.41549,0.88612 -2.11098,0.81846 -1.87365,-0.0748 -2.25476,-0.44403 -0.97172,-0.94147 z m -68.11327,-19.97286 c 0.33028,-15.8008 1.20442,-22.60574 3.97285,-30.92747 1.95217,-5.8681 3.83134,-10.39609 4.17595,-10.06221 0.34461,0.33389 -0.88514,5.13506 -2.73276,10.66927 -2.22512,6.66494 -3.77801,16.90193 -4.59941,30.32041 l -1.24009,20.2582 0.42346,-20.2582 z m 53.53747,16.88867 c 1.10575,-0.43229 2.91516,-0.43229 4.02091,0 1.10575,0.4323 0.20104,0.786 -2.01046,0.786 -2.2115,0 -3.1162,-0.3537 -2.01045,-0.786 z m -6.33294,-1.59078 c 1.16104,-0.45015 2.54825,-0.3948 3.0827,0.12295 0.53444,0.51783 -0.4155,0.88613 -2.11098,0.81846 -1.87365,-0.0748 -2.25477,-0.44403 -0.97172,-0.94147 z m 199.87281,-1.11719 c 1.38435,-1.28774 21.34152,-8.69683 21.91892,-8.13741 0.3315,0.3212 -4.14052,2.42377 -9.93784,4.67238 -9.94886,3.85889 -13.51244,4.8895 -11.98108,3.46503 z m 25.59981,-10.28489 c 1.3269,-0.83083 3.13631,-1.5106 4.02091,-1.5106 0.8846,0 0.52272,0.67977 -0.80418,1.5106 -1.3269,0.83084 -3.13631,1.51059 -4.02091,1.51059 -0.8846,0 -0.52272,-0.67975 0.80418,-1.51059 z M 294.7524,438.2059 c 1.56488,-0.3951 3.73617,-0.36912 4.82509,0.0577 1.08891,0.42686 -0.19145,0.75013 -2.84525,0.71837 -2.6538,-0.0317 -3.54473,-0.381 -1.97984,-0.77611 z m 9.61957,-1.55261 c 1.54805,-0.39196 4.08123,-0.39196 5.62928,0 1.54805,0.39196 0.28146,0.71266 -2.81464,0.71266 -3.0961,0 -4.36269,-0.3207 -2.81464,-0.71266 z m 16.08365,-1.55832 c 1.54805,-0.39196 4.08123,-0.39196 5.62928,0 1.54805,0.39196 0.28146,0.71265 -2.81464,0.71265 -3.0961,0 -4.36269,-0.32069 -2.81464,-0.71265 z m 75.06159,0.99627 c -0.0712,-0.38568 -0.25687,-7.01245 -0.41258,-14.72615 -0.24616,-12.19403 -0.93089,-15.30425 -5.24515,-23.82495 -2.72912,-5.39002 -4.32105,-10.18387 -3.53761,-10.653 2.20346,-1.31944 9.30995,3.83613 9.44716,6.85364 0.0672,1.48013 1.03608,0.23679 2.15283,-2.76298 2.58817,-6.95215 7.67488,-8.53132 6.63211,-2.05894 -2.82908,17.55985 -2.68259,18.66383 3.41378,25.72735 10.03062,11.62192 11.56429,19.27422 2.52996,12.62338 -2.95312,-2.17401 -4.26305,-4.44214 -3.98971,-6.90809 0.32102,-2.89604 0.0714,-3.17774 -1.18165,-1.33389 -0.87372,1.28561 -1.70239,1.63624 -1.84146,0.77916 -0.13913,-0.85708 -0.69298,1.24666 -1.23092,4.67497 l -0.97803,6.23329 21.71293,0.84643 21.71292,0.84644 -22.59752,0.32231 c -15.02419,0.21429 -23.24436,0.94901 -24.52756,2.19229 -1.06152,1.02849 -1.9883,1.55443 -2.0595,1.16874 z m 4.41844,-14.6576 c 0,-1.24791 -0.60314,-1.90777 -1.34032,-1.46635 -0.73716,0.44141 -1.3403,1.46244 -1.3403,2.26893 0,0.8065 0.60314,1.46636 1.3403,1.46636 0.73718,0 1.34032,-1.02102 1.34032,-2.26894 z m -5.71641,-24.67057 c -1.3135,-1.27263 -1.7893,-1.09824 -1.7893,0.65579 0,3.09773 2.16277,5.19321 2.96208,2.86991 0.33909,-0.98563 -0.18867,-2.5722 -1.17278,-3.5257 z m 5.74285,1.71415 c -0.51342,-1.24312 -0.89454,-0.87387 -0.97171,0.94149 -0.0698,1.64273 0.31028,2.56312 0.84474,2.0453 0.53445,-0.51782 0.59158,-1.86187 0.1269,-2.98679 z m -104.43232,32.1389 c 4.64625,-2.05666 10.43636,-4.14041 12.86692,-4.63058 2.43056,-0.49016 -1.00903,1.24743 -7.64354,3.86132 -14.28371,5.62755 -17.15382,6.05024 -5.22338,0.76926 z m 43.42204,2.86743 c 2.87496,-0.34567 7.57942,-0.34567 10.45437,0 2.87496,0.34568 0.52272,0.62851 -5.22718,0.62851 -5.7499,0 -8.10214,-0.28283 -5.22719,-0.62851 z m 28.95057,-1.5799 c 4.64415,-0.31478 12.24367,-0.31478 16.88783,0 4.64415,0.31479 0.84439,0.57234 -8.44392,0.57234 -9.2883,0 -13.08807,-0.25755 -8.44391,-0.57234 z m 185.84288,-15.70389 c -4.02652,-20.52228 -17.39377,-41.99852 -38.64257,-62.08433 -9.82641,-9.28861 -10.06754,-9.65314 -2.46596,-3.7279 9.34906,7.28735 19.34623,17.8169 26.04752,27.4346 9.25633,13.28474 18.61418,37.18012 17.50787,44.7065 -0.2839,1.93129 -1.38497,-0.9167 -2.44686,-6.32887 z m -224.15688,3.47143 c 3.91727,-1.19071 9.70739,-2.51566 12.86692,-2.94433 3.15954,-0.42868 0.67826,0.59886 -5.51394,2.2834 -12.75237,3.4692 -18.20387,3.95921 -7.35298,0.66093 z m 177.83963,-0.64358 c -2.02757,-0.84417 -2.32486,-1.33927 -0.80418,-1.33927 1.3269,0 3.86007,0.60267 5.62928,1.33927 2.02756,0.84416 2.32485,1.33927 0.80418,1.33927 -1.3269,0 -3.86008,-0.60267 -5.62928,-1.33927 z m -227.5836,-2.14668 c 0,-0.32359 1.26659,-1.55077 2.81464,-2.72706 2.55096,-1.93836 2.60785,-1.88324 0.60725,0.58835 -2.10112,2.59577 -3.42189,3.42127 -3.42189,2.13871 z m 218.3355,-0.44369 c 1.10576,-0.4323 2.91517,-0.4323 4.02092,0 1.10575,0.4323 0.20104,0.78599 -2.01046,0.78599 -2.2115,0 -3.11621,-0.35369 -2.01046,-0.78599 z m -147.96954,-1.55833 c 1.10575,-0.43229 2.91516,-0.43229 4.02091,0 1.10575,0.4323 0.20104,0.786 -2.01046,0.786 -2.2115,0 -3.1162,-0.3537 -2.01045,-0.786 z m 141.63661,-0.0325 c 1.16103,-0.45015 2.54824,-0.39479 3.0827,0.12303 0.53445,0.51782 -0.4155,0.88613 -2.11098,0.81847 -1.87366,-0.0748 -2.25476,-0.44403 -0.97172,-0.94149 z m -129.17179,-2.14153 c 3.5384,-0.70913 8.24287,-1.24908 10.45437,-1.19991 2.57932,0.0573 1.71436,0.55165 -2.41254,1.37871 -3.53841,0.70912 -8.24287,1.24908 -10.45437,1.19991 -2.57931,-0.0574 -1.71436,-0.55165 2.41254,-1.37871 z m 121.12997,0.58321 c 1.16103,-0.45016 2.54824,-0.39479 3.0827,0.12303 0.53444,0.51781 -0.4155,0.88612 -2.11098,0.81846 -1.87366,-0.0748 -2.25476,-0.44403 -0.97172,-0.94149 z m -9.75071,-1.52586 c 1.10575,-0.4323 2.91516,-0.4323 4.02091,0 1.10575,0.4323 0.20104,0.78599 -2.01046,0.78599 -2.2115,0 -3.11621,-0.35369 -2.01045,-0.78599 z m -90.842,-1.60618 c 1.56489,-0.3951 3.73618,-0.36912 4.82509,0.0577 1.08891,0.42686 -0.19144,0.75012 -2.84524,0.71836 -2.6538,-0.0318 -3.54474,-0.381 -1.97985,-0.77611 z m 47.81824,-0.47842 -26.53802,-0.89665 24.92966,-0.21533 c 13.7113,-0.11843 28.18659,0.34617 32.16729,1.03244 8.40856,1.44963 9.87801,1.4458 -30.55893,0.0795 z m -139.92772,-5.68202 c 0,-0.83958 2.35223,-3.58612 5.22718,-6.10343 l 5.22719,-4.57694 -4.8251,5.44634 c -2.6538,2.99549 -5.00603,5.74204 -5.22718,6.10344 -0.22115,0.36139 -0.40209,-0.0298 -0.40209,-0.86941 z m -30.55893,-8.93971 c 0,-1.67237 4.78549,-10.31144 5.71188,-10.31144 0.4423,0 -0.3921,2.27905 -1.85421,5.06455 -2.98551,5.68773 -3.85767,6.87398 -3.85767,5.24689 z m 77.2015,-0.9615 c 1.3269,-0.83083 3.13631,-1.5106 4.02091,-1.5106 0.8846,0 0.52272,0.67977 -0.80418,1.5106 -1.3269,0.83083 -3.13631,1.5106 -4.02091,1.5106 -0.8846,0 -0.52272,-0.67977 0.80418,-1.5106 z m 136.711,0 c -1.3269,-0.83083 -1.68879,-1.5106 -0.80419,-1.5106 0.8846,0 2.69401,0.67977 4.02092,1.5106 1.3269,0.83083 1.68878,1.5106 0.80418,1.5106 -0.8846,0 -2.69401,-0.67977 -4.02091,-1.5106 z m -171.17201,-3.50623 c 0.45214,-1.07134 2.78165,-3.28905 5.17671,-4.92823 4.3478,-2.97564 4.34721,-2.97258 -0.36927,1.9479 -5.15891,5.38206 -6.05562,5.93797 -4.80744,2.98033 z m 159.91345,-0.38958 c -3.0961,-1.1552 -4.54363,-2.12209 -3.21673,-2.14864 1.32691,-0.0265 4.58384,0.91502 7.23765,2.09237 6.2116,2.75575 3.32239,2.79618 -4.02092,0.0563 z m 33.55174,-2.42997 -3.79699,-3.20913 4.423,2.60919 c 2.43265,1.43506 4.42301,2.87917 4.42301,3.20914 0,1.2168 -1.34378,0.52238 -5.04902,-2.6092 z M 359.96108,386.7966 c 1.16103,-0.45016 2.54824,-0.39479 3.0827,0.12303 0.53445,0.51782 -0.4155,0.88612 -2.11098,0.81846 -1.87366,-0.0748 -2.25477,-0.44403 -0.97172,-0.94149 z m 6.43346,-1.55833 c 1.16103,-0.45015 2.54824,-0.39479 3.0827,0.12303 0.53444,0.51782 -0.4155,0.88613 -2.11098,0.81847 -1.87366,-0.0748 -2.25476,-0.44403 -0.97172,-0.94149 z m 80.31771,0.0325 c 1.10575,-0.43229 2.91516,-0.43229 4.02091,0 1.10575,0.4323 0.20104,0.786 -2.01046,0.786 -2.2115,0 -3.1162,-0.3537 -2.01045,-0.786 z m -73.98478,-1.55832 c 1.10575,-0.4323 2.91516,-0.4323 4.02091,0 1.10575,0.4323 0.20105,0.786 -2.01045,0.786 -2.2115,0 -3.11621,-0.3537 -2.01046,-0.786 z m 67.65184,-0.0325 c 1.16103,-0.45015 2.54824,-0.39479 3.0827,0.12303 0.53445,0.51782 -0.4155,0.88613 -2.11097,0.81846 -1.87367,-0.0748 -2.25477,-0.44403 -0.97173,-0.94148 z m -59.50949,-1.55832 c 1.16103,-0.45016 2.54824,-0.39479 3.0827,0.12303 0.53445,0.51782 -0.4155,0.88612 -2.11098,0.81846 -1.87366,-0.0748 -2.25476,-0.44403 -0.97172,-0.94149 z m 51.46767,0 c 1.16103,-0.45016 2.54824,-0.39479 3.0827,0.12303 0.53444,0.51782 -0.4155,0.88612 -2.11098,0.81846 -1.87366,-0.0748 -2.25476,-0.44403 -0.97172,-0.94149 z m -117.46753,-2.32808 c 2.51067,-3.0346 22.97609,-16.46099 27.1191,-17.79154 1.64677,-0.52888 -0.80633,1.39153 -5.45134,4.26756 -4.645,2.87603 -11.88264,7.6541 -16.08364,10.61793 -4.20101,2.96382 -6.71386,4.27155 -5.58412,2.90605 z m 82.84589,0.68099 c 5.11874,-0.31019 13.08015,-0.30731 17.69201,0.006 4.61185,0.3137 0.42378,0.56748 -9.30682,0.56397 -9.73061,-0.004 -13.50394,-0.26018 -8.38519,-0.57037 z m 79.55532,-4.41301 c -6.01277,-3.1605 -5.64677,-4.47684 0.4021,-1.44617 2.6538,1.32964 4.82509,2.75014 4.82509,3.15667 0,1.00277 -0.17282,0.94622 -5.22719,-1.7105 z m -89.13058,-6.23696 c -0.53441,-1.34932 -0.21193,-6.89542 0.71662,-12.32466 1.1021,-6.44403 1.15856,-12.15554 0.16261,-16.45027 -1.52793,-6.58873 0.51704,-17.07977 3.32928,-17.07977 0.70295,0 1.87421,2.98029 2.60282,6.62287 l 1.32473,6.62287 0.58628,-5.84371 c 0.64412,-6.42015 2.58841,-7.48618 5.16061,-2.82951 2.40094,4.34663 2.05028,10.44351 -0.92083,16.01025 -2.13358,3.99751 -2.25974,5.82351 -0.7214,10.4413 2.94107,8.82857 2.90112,14.74397 -0.10374,15.35043 -1.5983,0.32259 -3.04008,-0.85944 -3.72707,-3.05558 -1.11356,-3.55992 -1.13031,-3.55564 -2.75451,0.7037 -1.82318,4.78107 -4.1845,5.54602 -5.65545,1.83208 z m 4.15111,-9.62369 c -0.13735,-5.80627 -0.14717,-5.81462 -1.53996,-1.30226 -1.27418,4.12827 -0.865,7.14597 0.96894,7.14597 0.39009,0 0.64705,-2.62967 0.57102,-5.84371 z m 8.15544,1.55832 c -0.0129,-1.49989 -0.74083,-3.77893 -1.61618,-5.06455 -1.19603,-1.75661 -1.50458,-1.07892 -1.24163,2.72707 0.35815,5.18371 2.9023,7.26465 2.85781,2.33748 z m -6.43346,-23.46681 c -0.0135,-1.4493 -0.72623,-3.68697 -1.58374,-4.97258 -1.15736,-1.73517 -1.56545,-0.80799 -1.58374,3.59819 -0.0145,3.56541 0.61764,5.55109 1.58374,4.97258 0.8846,-0.5297 1.59728,-2.14889 1.58374,-3.59819 z m 7.66436,-1.04836 c 0,-2.15832 -0.54892,-3.92422 -1.21982,-3.92422 -1.43038,0 -3.11508,7.35754 -1.94442,8.49178 1.59085,1.54136 3.16424,-0.72981 3.16424,-4.56756 z M 276.62768,369.7125 c 0,-0.83957 2.35224,-3.58611 5.22719,-6.10343 l 5.22718,-4.57693 -4.82509,5.44634 c -2.6538,2.99549 -5.00604,5.74203 -5.22719,6.10343 -0.22115,0.3614 -0.40209,-0.0298 -0.40209,-0.86941 z m 69.15968,-9.24167 c 0,-1.05203 8.35469,-3.99249 9.15117,-3.22079 0.36477,0.35342 -1.54501,1.38843 -4.24397,2.30002 -2.69896,0.91159 -4.9072,1.32593 -4.9072,0.92077 z M 296.9592,349.38965 c 12.04709,-11.04719 23.17306,-17.66638 42.96947,-25.56393 21.96653,-8.76328 39.32381,-11.25736 71.80164,-10.31723 14.59591,0.42251 28.70931,1.51018 31.36312,2.41705 3.96402,1.3546 3.24645,1.45475 -4.02092,0.56122 -15.78289,-1.94052 -62.78283,-1.24382 -73.98477,1.09671 -22.68832,4.7405 -47.80515,16.8152 -67.34815,32.37706 l -10.65754,8.48648 9.87715,-9.05736 z m 132.46313,5.74672 c -1.3269,-0.83083 -1.68879,-1.5106 -0.80419,-1.5106 0.8846,0 2.69401,0.67977 4.02092,1.5106 1.3269,0.83083 1.68878,1.5106 0.80418,1.5106 -0.8846,0 -2.69401,-0.67977 -4.02091,-1.5106 z m -64.58701,-1.66053 c 2.07269,-0.80464 7.8628,-1.8033 12.86692,-2.21925 l 9.09842,-0.75627 -11.25855,2.19492 c -13.2712,2.5873 -15.84383,2.77486 -10.70679,0.7806 z m 46.89499,-1.45612 -7.23764,-1.09022 6.43346,-0.12453 c 3.5384,-0.0685 7.88099,0.47815 9.65019,1.21475 3.72631,1.55143 1.45343,1.55143 -8.84601,0 z m 83.4298,-13.63532 c -2.00059,-2.47159 -1.9437,-2.52671 0.60726,-0.58836 2.67913,2.03575 3.53113,3.31542 2.20738,3.31542 -0.33397,0 -1.60056,-1.22718 -2.81464,-2.72706 z m -14.67221,-7.50017 c -5.97105,-2.96943 -10.85646,-5.74874 -10.85646,-6.17624 0,-0.42749 5.06635,1.69473 11.25855,4.71605 6.19221,3.02132 11.25856,5.83512 11.25856,6.25288 0,1.04508 0.45048,1.23024 -11.66065,-4.79269 z m -24.52756,-10.20472 c -6.136,-2.21361 -6.74385,-2.6795 -2.56492,-1.9659 5.99336,1.02344 16.90907,5.21613 13.01929,5.00068 -1.3269,-0.0735 -6.03136,-1.43915 -10.45437,-3.03478 z M 302.76361,286.95994 c 57.27789,-0.22688 151.00534,-0.22688 208.28322,0 57.27789,0.22688 10.41416,0.41251 -104.14161,0.41251 -114.55577,0 -161.4195,-0.18563 -104.14161,-0.41251 z"
       id="path10393"
       inkscape:connector-curvature="0" />
    <path
       style="fill:#6a9eb9"
       d="m 397.70565,569.03758 c 4.22855,-0.32207 10.74243,-0.31817 14.47528,0.009 3.73287,0.32682 0.27315,0.59033 -7.68826,0.58558 -7.9614,-0.005 -11.01556,-0.27215 -6.78702,-0.59421 z m 0.0365,-43.97098 c 0.0419,-21.68795 0.2667,-23.44788 2.99579,-23.44788 2.11136,0 2.9918,1.21883 3.0956,4.28539 0.14202,4.1942 0.17718,4.17761 1.65435,-0.77916 1.3939,-4.67737 5.00011,-6.71447 6.82418,-3.8549 0.84257,1.32088 -2.78757,17.76136 -4.52229,20.48085 -0.59093,0.92639 -0.26522,1.68434 0.7238,1.68434 0.98901,0 1.37026,0.67089 0.84722,1.49087 -0.52306,0.81997 0.95852,5.02913 3.29238,9.35369 2.33387,4.32455 3.82746,8.913 3.31911,10.19656 -1.63512,4.12845 -5.54701,2.49188 -7.45871,-3.1204 -2.41514,-7.09025 -4.50397,-6.93691 -5.13009,0.37661 -0.33108,3.86711 -1.37268,5.99093 -3.09286,6.30633 -2.29441,0.4207 -2.58845,-2.22988 -2.54845,-22.9723 z m 12.35115,9.22511 c -2.69726,-4.88309 -3.44803,-2.89632 -1.1497,3.04245 1.16838,3.019 2.18937,4.13021 2.48628,2.70596 0.27709,-1.32915 -0.32438,-3.91594 -1.33658,-5.74841 z m -8.01318,2.38928 c 0,-2.1427 -0.72377,-3.89581 -1.60837,-3.89581 -1.79681,0 -2.20458,5.13617 -0.53611,6.75273 1.77296,1.7178 2.14448,1.22286 2.14448,-2.85692 z m 6.40883,-22.98526 c -0.0199,-2.83528 -0.32299,-3.05893 -1.58374,-1.16875 -2.01515,3.02122 -2.01515,4.67497 0,4.67497 0.8846,0 1.59728,-1.5778 1.58374,-3.50622 z m -6.40883,-1.07677 c 0,-1.66358 -0.72377,-3.45808 -1.60837,-3.98778 -0.9122,-0.54623 -1.60836,0.76298 -1.60836,3.02467 0,2.19328 0.72376,3.98778 1.60836,3.98778 0.8846,0 1.60837,-1.3611 1.60837,-3.02467 z M 507.428,535.90183 c 1.60111,-1.71416 3.27299,-3.11665 3.71529,-3.11665 0.4423,0 -0.50581,1.40249 -2.10692,3.11665 -1.60111,1.71415 -3.27299,3.11664 -3.71529,3.11664 -0.4423,0 0.50581,-1.40249 2.10692,-3.11664 z m 8.84601,-6.72091 c 0,-0.26819 2.35223,-2.54723 5.22718,-5.06455 l 5.22719,-4.57693 -4.72391,5.06455 c -4.40335,4.72087 -5.73046,5.78083 -5.73046,4.57693 z m -14.47528,-32.82553 c 0,-0.32358 1.26658,-1.55076 2.81463,-2.72706 2.55097,-1.93835 2.60785,-1.88323 0.60726,0.58836 -2.10112,2.59578 -3.42189,3.42127 -3.42189,2.1387 z m -110.91508,-7.90993 c -1.63931,-1.9138 -1.56541,-4.39326 0.38473,-12.90806 1.3276,-5.7966 2.0506,-12.81369 1.6067,-15.59353 -1.68639,-10.56027 3.18591,-21.5228 5.59641,-12.59178 l 0.91534,3.39132 1.29481,-3.39132 c 1.43409,-3.75607 5.86072,-4.56238 7.15176,-1.30268 0.45497,1.14876 -0.79524,6.23279 -2.77824,11.29784 -4.06412,10.38071 -4.03433,12.67859 0.31382,24.20448 1.69675,4.49768 2.74096,8.51092 2.32047,8.91833 -1.21139,1.17371 -7.01657,-4.51289 -8.31618,-8.1463 -1.01943,-2.85008 -1.29951,-2.57301 -2.05152,2.02954 -0.9848,6.0273 -3.44243,7.58941 -6.4381,4.09216 z m 4.76301,-8.73523 c 0,-1.76474 -0.72377,-2.77522 -1.60837,-2.24551 -0.8846,0.5297 -1.60836,1.97358 -1.60836,3.20862 0,1.23503 0.72376,2.24551 1.60836,2.24551 0.8846,0 1.60837,-1.44388 1.60837,-3.20862 z m 6.6144,-1.91437 c -1.31351,-1.27263 -1.78931,-1.09824 -1.78931,0.65579 0,3.09773 2.16277,5.1932 2.96208,2.86992 0.33909,-0.98564 -0.18866,-2.5722 -1.17277,-3.52571 z m 1.4028,-21.85006 c 0.0135,-0.69339 -0.69914,-0.82731 -1.58374,-0.2976 -0.8846,0.5297 -1.59729,2.14889 -1.58374,3.5982 0.0212,2.27089 0.24011,2.31203 1.58374,0.2976 0.85751,-1.28561 1.57019,-2.9048 1.58374,-3.5982 z m -5.98354,1.10836 c 1.2885,-1.24839 -0.39787,-5.30177 -2.20574,-5.30177 -0.78995,0 -1.43629,1.40249 -1.43629,3.11664 0,3.03747 1.70595,4.06099 3.64203,2.18513 z m -107.38155,-3.72575 c -1.7692,-0.72686 -7.00163,-0.93334 -11.62763,-0.45883 -7.23814,0.74243 -8.56981,0.45308 -9.55052,-2.07514 -0.62678,-1.61582 -2.27011,-3.77962 -3.65183,-4.80842 -2.26695,-1.68795 -2.23743,-2.34685 0.30242,-6.74916 1.54805,-2.68323 2.82572,-6.39957 2.83927,-8.25854 0.0718,-9.85778 8.01626,-9.69625 10.48832,0.21325 0.96323,3.86121 2.29881,6.15787 3.16371,5.44027 0.82321,-0.68301 0.44917,0.0765 -0.83121,1.68789 -2.20184,2.771 -2.02469,2.87142 3.26975,1.85335 3.61698,-0.6955 4.83225,-0.56444 3.43444,0.3704 -1.63495,1.09343 -1.10199,1.70485 2.18218,2.50348 3.71854,0.90426 4.24569,1.71538 3.65388,5.62219 -0.38038,2.51102 0.0852,4.87787 1.03454,5.25966 0.96707,0.38891 1.01886,0.7001 0.11779,0.70768 -0.88461,0.008 -3.0559,-0.58121 -4.8251,-1.30808 z m 243.7087,-1.50097 c -0.93609,-1.69468 -1.33191,-5.93492 -0.8796,-9.42279 0.71543,-5.51695 0.35282,-6.51352 -2.78857,-7.66389 -1.98601,-0.72727 -4.26558,-0.94568 -5.0657,-0.48534 -0.80013,0.46033 -0.9352,0.0224 -0.30016,-0.97314 0.64631,-1.01319 0.0476,-2.22169 -1.35985,-2.74498 -1.38297,-0.51418 -2.51449,-2.53118 -2.51449,-4.48221 0,-4.71305 5.57865,-6.06216 11.06116,-2.67497 3.82342,2.36217 4.02361,2.36731 2.13851,0.0549 -1.88268,-2.30941 -1.50158,-2.42115 4.02091,-1.17902 3.35539,0.75471 6.64353,1.38892 7.30698,1.40937 0.66345,0.0204 1.20628,1.79029 1.20628,3.93298 0,2.1427 0.72376,3.89581 1.60836,3.89581 2.90598,0 1.68296,5.52982 -2.41255,10.90826 -2.2115,2.90426 -4.02091,6.17143 -4.02091,7.26038 0,1.08894 -1.41714,2.71474 -3.14919,3.61287 -2.53569,1.31483 -3.48078,1.03268 -4.85118,-1.44826 z M 251.43459,440.84413 c 0,-6.42808 0.28391,-9.05775 0.6309,-5.84371 0.347,3.21404 0.347,8.47338 0,11.68742 -0.34699,3.21404 -0.6309,0.58437 -0.6309,-5.84371 z m 305.59991,-0.77916 c 0.006,-6.85662 0.2886,-9.46776 0.62837,-5.80252 0.33975,3.66523 0.33497,9.27519 -0.0113,12.46658 -0.34559,3.19138 -0.62358,0.19256 -0.61774,-6.66406 z M 395.17125,428.76713 c 1.17586,-7.38294 2.06884,-8.46928 2.13493,-2.59721 0.0487,4.33337 0.16116,4.40419 2.41255,1.5202 2.75089,-3.52384 2.98462,-2.66199 0.79284,2.92346 -0.86271,2.19849 -2.62661,3.99726 -3.91979,3.99726 -1.8102,0 -2.13707,-1.34468 -1.42053,-5.84371 z m 16.15791,-1.7808 c -2.67935,-2.63233 -2.67935,-2.76546 0,-2.78833 2.70578,-0.0231 5.15009,2.124 5.20162,4.56913 0.0407,1.92779 -2.21159,1.15674 -5.20162,-1.7808 z m -158.69997,-7.30942 c 0.0772,-1.81536 0.45829,-2.18461 0.97172,-0.94149 0.46461,1.12492 0.40747,2.46897 -0.12698,2.98679 -0.53445,0.51782 -0.91458,-0.40257 -0.84475,-2.0453 z m 157.4605,0.0922 c -1.11898,-1.30633 -1.72301,-2.67693 -1.34233,-3.04578 0.3807,-0.36885 1.57562,0.69997 2.65538,2.37514 2.33504,3.62267 1.5563,4.02041 -1.31305,0.67064 z m -5.49361,-6.51801 c -0.87283,-2.22092 -0.6881,-2.39991 0.90036,-0.87234 1.09919,1.05706 1.59336,2.31448 1.09816,2.79427 -0.4952,0.47979 -1.39454,-0.38508 -1.99852,-1.92193 z m -8.82243,-1.36581 c 0.0772,-1.81536 0.45829,-2.18461 0.97171,-0.94149 0.46461,1.12492 0.40748,2.46897 -0.1269,2.98679 -0.53446,0.51782 -0.91458,-0.40257 -0.84475,-2.0453 z m 1.73879,-9.60966 c 0.25526,-5.79537 0.26277,-5.80157 0.90835,-0.74958 0.35804,2.80177 1.32785,4.68881 2.15515,4.19342 0.82731,-0.49539 1.50419,-0.15808 1.50419,0.74958 0,0.90766 -1.08565,1.65029 -2.41255,1.65029 -1.76135,0 -2.34307,-1.57735 -2.15514,-5.84371 z m -7.89714,-10.83928 c -4.38852,-0.81897 -4.83116,-3.57521 -0.57417,-3.57521 1.67457,0 3.46125,1.05187 3.97044,2.33748 0.50918,1.28562 0.76755,2.24199 0.57417,2.12527 -0.19339,-0.11672 -1.98009,-0.51611 -3.97044,-0.88754 z m 9.69702,-2.77815 c 0.2157,-1.70432 1.59373,-3.32295 3.06228,-3.59697 2.01996,-0.3769 2.45065,0.31482 1.76885,2.84091 -0.60391,2.2375 -1.29401,2.72337 -2.09178,1.47273 -0.89571,-1.40422 -1.43084,-1.34037 -2.16104,0.25784 -0.55942,1.22446 -0.80438,0.81167 -0.57831,-0.97451 z m -11.5209,-23.00316 c 0.10261,-2.7855 0.51757,-3.83737 0.92212,-2.33749 1.32725,4.92092 3.71883,2.85239 3.60335,-3.11664 -0.0941,-4.8684 -0.36682,-5.32355 -1.63362,-2.72707 -1.15312,2.36347 -1.36355,1.56261 -0.8708,-3.31392 0.35736,-3.53682 0.0886,-9.40409 -0.59736,-13.03838 -1.25776,-6.66416 0.6285,-17.15164 3.08487,-17.15164 0.72996,0 1.91743,2.98029 2.63885,6.62287 1.29769,6.5525 1.31805,6.56906 1.91582,1.55833 0.3437,-2.88107 1.52619,-5.06455 2.74276,-5.06455 4.60737,0 5.47212,10.03381 1.5053,17.46612 -2.20657,4.13428 -2.28637,5.72378 -0.54411,10.83862 1.12291,3.29661 1.56275,6.45786 0.97742,7.02498 -0.58535,0.56713 -1.06426,-0.44684 -1.06426,-2.25325 0,-1.80642 -0.79445,-3.76013 -1.76545,-4.34157 -1.20882,-0.72384 -1.51362,0.75338 -0.96674,4.68522 0.76928,5.53081 2.73219,9.63001 2.73219,5.7057 0,-1.0505 0.69216,-1.49554 1.53813,-0.98897 2.06778,1.23819 0.25491,5.49619 -2.34003,5.49619 -1.13635,0 -2.59569,-1.92843 -3.24296,-4.28539 l -1.17684,-4.28539 -1.54409,4.28539 c -2.20152,6.10998 -6.14918,5.58993 -5.91455,-0.77916 z m 5.55759,-30.10903 c -1.43507,-5.53982 -4.17223,-2.84952 -2.99886,2.94751 0.5911,2.92034 1.42731,3.87344 2.49274,2.84116 0.88178,-0.85435 1.10954,-3.45925 0.50612,-5.78867 z m 8.32903,1.69805 c 0,-2.15832 -0.54892,-3.92422 -1.21982,-3.92422 -1.43038,0 -3.11508,7.35754 -1.94442,8.49178 1.59085,1.54136 3.16424,-0.72981 3.16424,-4.56756 z m -18.46559,-23.704 c 1.56489,-0.3951 3.73618,-0.36912 4.82509,0.0577 1.08891,0.42687 -0.19144,0.75013 -2.84524,0.71837 -2.6538,-0.0318 -3.54474,-0.381 -1.97985,-0.77611 z m 39.47485,0.0154 c 1.16103,-0.45016 2.54824,-0.3948 3.0827,0.12303 0.53445,0.51781 -0.4155,0.88612 -2.11098,0.81846 -1.87366,-0.0748 -2.25476,-0.44403 -0.97172,-0.94149 z"
       id="path10391"
       inkscape:connector-curvature="0" />
    <path
       style="fill:#bca55d"
       d="m 397.70565,569.03758 c 4.22855,-0.32207 10.74243,-0.31817 14.47528,0.009 3.73287,0.32682 0.27315,0.59033 -7.68826,0.58558 -7.9614,-0.005 -11.01556,-0.27215 -6.78702,-0.59421 z m 0.0365,-43.97098 c 0.0419,-21.68795 0.2667,-23.44788 2.99579,-23.44788 2.11136,0 2.9918,1.21883 3.0956,4.28539 0.14202,4.1942 0.17718,4.17761 1.65435,-0.77916 1.3939,-4.67737 5.00011,-6.71447 6.82418,-3.8549 0.84257,1.32088 -2.78757,17.76136 -4.52229,20.48085 -0.59093,0.92639 -0.26522,1.68434 0.7238,1.68434 0.98901,0 1.37026,0.67089 0.84722,1.49087 -0.52306,0.81997 0.95852,5.02913 3.29238,9.35369 2.33387,4.32455 3.82746,8.913 3.31911,10.19656 -1.63512,4.12845 -5.54701,2.49188 -7.45871,-3.1204 -2.41514,-7.09025 -4.50397,-6.93691 -5.13009,0.37661 -0.33108,3.86711 -1.37268,5.99093 -3.09286,6.30633 -2.29441,0.4207 -2.58845,-2.22988 -2.54845,-22.9723 z m 12.35115,9.22511 c -2.69726,-4.88309 -3.44803,-2.89632 -1.1497,3.04245 1.16838,3.019 2.18937,4.13021 2.48628,2.70596 0.27709,-1.32915 -0.32438,-3.91594 -1.33658,-5.74841 z m -8.01318,2.38928 c 0,-2.1427 -0.72377,-3.89581 -1.60837,-3.89581 -1.79681,0 -2.20458,5.13617 -0.53611,6.75273 1.77296,1.7178 2.14448,1.22286 2.14448,-2.85692 z m 6.40883,-22.98526 c -0.0199,-2.83528 -0.32299,-3.05893 -1.58374,-1.16875 -2.01515,3.02122 -2.01515,4.67497 0,4.67497 0.8846,0 1.59728,-1.5778 1.58374,-3.50622 z m -6.40883,-1.07677 c 0,-1.66358 -0.72377,-3.45808 -1.60837,-3.98778 -0.9122,-0.54623 -1.60836,0.76298 -1.60836,3.02467 0,2.19328 0.72376,3.98778 1.60836,3.98778 0.8846,0 1.60837,-1.3611 1.60837,-3.02467 z M 507.428,535.90183 c 1.60111,-1.71416 3.27299,-3.11665 3.71529,-3.11665 0.4423,0 -0.50581,1.40249 -2.10692,3.11665 -1.60111,1.71415 -3.27299,3.11664 -3.71529,3.11664 -0.4423,0 0.50581,-1.40249 2.10692,-3.11664 z m 8.84601,-6.72091 c 0,-0.26819 2.35223,-2.54723 5.22718,-5.06455 l 5.22719,-4.57693 -4.72391,5.06455 c -4.40335,4.72087 -5.73046,5.78083 -5.73046,4.57693 z m -14.47528,-32.82553 c 0,-0.32358 1.26658,-1.55076 2.81463,-2.72706 2.55097,-1.93835 2.60785,-1.88323 0.60726,0.58836 -2.10112,2.59578 -3.42189,3.42127 -3.42189,2.1387 z M 290.29878,453.32841 c -1.7692,-0.72686 -7.00163,-0.93334 -11.62763,-0.45883 -7.23814,0.74243 -8.56981,0.45308 -9.55052,-2.07514 -0.62678,-1.61582 -2.27011,-3.77962 -3.65183,-4.80842 -2.26695,-1.68795 -2.23743,-2.34685 0.30242,-6.74916 1.54805,-2.68323 2.82572,-6.39957 2.83927,-8.25854 0.0718,-9.85778 8.01626,-9.69625 10.48832,0.21325 0.96323,3.86121 2.29881,6.15787 3.16371,5.44027 0.82321,-0.68301 0.44917,0.0765 -0.83121,1.68789 -2.20184,2.771 -2.02469,2.87142 3.26975,1.85335 3.61698,-0.6955 4.83225,-0.56444 3.43444,0.3704 -1.63495,1.09343 -1.10199,1.70485 2.18218,2.50348 3.71854,0.90426 4.24569,1.71538 3.65388,5.62219 -0.38038,2.51102 0.0852,4.87787 1.03454,5.25966 0.96707,0.38891 1.01886,0.7001 0.11779,0.70768 -0.88461,0.008 -3.0559,-0.58121 -4.8251,-1.30808 z m 243.7087,-1.50097 c -0.93609,-1.69468 -1.33191,-5.93492 -0.8796,-9.42279 0.71543,-5.51695 0.35282,-6.51352 -2.78857,-7.66389 -1.98601,-0.72727 -4.26558,-0.94568 -5.0657,-0.48534 -0.80013,0.46033 -0.9352,0.0224 -0.30016,-0.97314 0.64631,-1.01319 0.0476,-2.22169 -1.35985,-2.74498 -1.38297,-0.51418 -2.51449,-2.53118 -2.51449,-4.48221 0,-4.71305 5.57865,-6.06216 11.06116,-2.67497 3.82342,2.36217 4.02361,2.36731 2.13851,0.0549 -1.88268,-2.30941 -1.50158,-2.42115 4.02091,-1.17902 3.35539,0.75471 6.64353,1.38892 7.30698,1.40937 0.66345,0.0204 1.20628,1.79029 1.20628,3.93298 0,2.1427 0.72376,3.89581 1.60836,3.89581 2.90598,0 1.68296,5.52982 -2.41255,10.90826 -2.2115,2.90426 -4.02091,6.17143 -4.02091,7.26038 0,1.08894 -1.41714,2.71474 -3.14919,3.61287 -2.53569,1.31483 -3.48078,1.03268 -4.85118,-1.44826 z M 251.43459,440.84413 c 0,-6.42808 0.28391,-9.05775 0.6309,-5.84371 0.347,3.21404 0.347,8.47338 0,11.68742 -0.34699,3.21404 -0.6309,0.58437 -0.6309,-5.84371 z m 305.59991,-0.77916 c 0.006,-6.85662 0.2886,-9.46776 0.62837,-5.80252 0.33975,3.66523 0.33497,9.27519 -0.0113,12.46658 -0.34559,3.19138 -0.62358,0.19256 -0.61774,-6.66406 z M 395.17125,428.76713 c 1.17586,-7.38294 2.06884,-8.46928 2.13493,-2.59721 0.0487,4.33337 0.16116,4.40419 2.41255,1.5202 2.75089,-3.52384 2.98462,-2.66199 0.79284,2.92346 -0.86271,2.19849 -2.62661,3.99726 -3.91979,3.99726 -1.8102,0 -2.13707,-1.34468 -1.42053,-5.84371 z m 16.15791,-1.7808 c -2.67935,-2.63233 -2.67935,-2.76546 0,-2.78833 2.70578,-0.0231 5.15009,2.124 5.20162,4.56913 0.0407,1.92779 -2.21159,1.15674 -5.20162,-1.7808 z m -158.69997,-7.30942 c 0.0772,-1.81536 0.45829,-2.18461 0.97172,-0.94149 0.46461,1.12492 0.40747,2.46897 -0.12698,2.98679 -0.53445,0.51782 -0.91458,-0.40257 -0.84475,-2.0453 z m 157.4605,0.0922 c -1.11898,-1.30633 -1.72301,-2.67693 -1.34233,-3.04578 0.3807,-0.36885 1.57562,0.69997 2.65538,2.37514 2.33504,3.62267 1.5563,4.02041 -1.31305,0.67064 z m -5.49361,-6.51801 c -0.87283,-2.22092 -0.6881,-2.39991 0.90036,-0.87234 1.09919,1.05706 1.59336,2.31448 1.09816,2.79427 -0.4952,0.47979 -1.39454,-0.38508 -1.99852,-1.92193 z m -8.82243,-1.36581 c 0.0772,-1.81536 0.45829,-2.18461 0.97171,-0.94149 0.46461,1.12492 0.40748,2.46897 -0.1269,2.98679 -0.53446,0.51782 -0.91458,-0.40257 -0.84475,-2.0453 z m 1.73879,-9.60966 c 0.25526,-5.79537 0.26277,-5.80157 0.90835,-0.74958 0.35804,2.80177 1.32785,4.68881 2.15515,4.19342 0.82731,-0.49539 1.50419,-0.15808 1.50419,0.74958 0,0.90766 -1.08565,1.65029 -2.41255,1.65029 -1.76135,0 -2.34307,-1.57735 -2.15514,-5.84371 z m -7.89714,-10.83928 c -4.38852,-0.81897 -4.83116,-3.57521 -0.57417,-3.57521 1.67457,0 3.46125,1.05187 3.97044,2.33748 0.50918,1.28562 0.76755,2.24199 0.57417,2.12527 -0.19339,-0.11672 -1.98009,-0.51611 -3.97044,-0.88754 z m 9.69702,-2.77815 c 0.2157,-1.70432 1.59373,-3.32295 3.06228,-3.59697 2.01996,-0.3769 2.45065,0.31482 1.76885,2.84091 -0.60391,2.2375 -1.29401,2.72337 -2.09178,1.47273 -0.89571,-1.40422 -1.43084,-1.34037 -2.16104,0.25784 -0.55942,1.22446 -0.80438,0.81167 -0.57831,-0.97451 z m -11.5209,-23.00316 c 0.10261,-2.7855 0.51757,-3.83737 0.92212,-2.33749 1.32725,4.92092 3.71883,2.85239 3.60335,-3.11664 -0.0941,-4.8684 -0.36682,-5.32355 -1.63362,-2.72707 -1.15312,2.36347 -1.36355,1.56261 -0.8708,-3.31392 0.35736,-3.53682 0.0886,-9.40409 -0.59736,-13.03838 -1.25776,-6.66416 0.6285,-17.15164 3.08487,-17.15164 0.72996,0 1.91743,2.98029 2.63885,6.62287 1.29769,6.5525 1.31805,6.56906 1.91582,1.55833 0.3437,-2.88107 1.52619,-5.06455 2.74276,-5.06455 4.60737,0 5.47212,10.03381 1.5053,17.46612 -2.20657,4.13428 -2.28637,5.72378 -0.54411,10.83862 1.12291,3.29661 1.56275,6.45786 0.97742,7.02498 -0.58535,0.56713 -1.06426,-0.44684 -1.06426,-2.25325 0,-1.80642 -0.79445,-3.76013 -1.76545,-4.34157 -1.20882,-0.72384 -1.51362,0.75338 -0.96674,4.68522 0.76928,5.53081 2.73219,9.63001 2.73219,5.7057 0,-1.0505 0.69216,-1.49554 1.53813,-0.98897 2.06778,1.23819 0.25491,5.49619 -2.34003,5.49619 -1.13635,0 -2.59569,-1.92843 -3.24296,-4.28539 l -1.17684,-4.28539 -1.54409,4.28539 c -2.20152,6.10998 -6.14918,5.58993 -5.91455,-0.77916 z m 5.55759,-30.10903 c -1.43507,-5.53982 -4.17223,-2.84952 -2.99886,2.94751 0.5911,2.92034 1.42731,3.87344 2.49274,2.84116 0.88178,-0.85435 1.10954,-3.45925 0.50612,-5.78867 z m 8.32903,1.69805 c 0,-2.15832 -0.54892,-3.92422 -1.21982,-3.92422 -1.43038,0 -3.11508,7.35754 -1.94442,8.49178 1.59085,1.54136 3.16424,-0.72981 3.16424,-4.56756 z m -18.46559,-23.704 c 1.56489,-0.3951 3.73618,-0.36912 4.82509,0.0577 1.08891,0.42687 -0.19144,0.75013 -2.84524,0.71837 -2.6538,-0.0318 -3.54474,-0.381 -1.97985,-0.77611 z m 39.47485,0.0154 c 1.16103,-0.45016 2.54824,-0.3948 3.0827,0.12303 0.53445,0.51781 -0.4155,0.88612 -2.11098,0.81846 -1.87366,-0.0748 -2.25476,-0.44403 -0.97172,-0.94149 z"
       id="path10389"
       inkscape:connector-curvature="0" />
    <path
       style="fill:#69a436"
       d="m 397.91654,537.84973 c 0.56992,-5.78527 1.05732,-12.81445 1.08309,-15.62038 0.0257,-2.80593 0.72942,-4.69297 1.56368,-4.19342 0.86546,0.51824 1.51682,-2.14253 1.51682,-6.19614 0,-8.54684 -2.76387,-9.50058 -3.65345,-1.26071 -0.57802,5.35385 -0.65358,5.22322 -0.90128,-1.55832 -0.23561,-6.45048 0.14314,-7.40204 2.94636,-7.40204 2.50746,0 3.26987,1.11671 3.45771,5.06455 0.21626,4.54501 0.30857,4.63664 0.89966,0.8932 0.72601,-4.59783 4.30342,-8.29246 6.66189,-6.8802 1.62135,0.97087 -0.12625,10.96592 -3.23711,18.51473 -1.52233,3.69402 -1.18171,5.44856 2.26892,11.68743 6.27584,11.34689 6.89286,14.35333 2.94582,14.35333 -2.26326,0 -4.15715,-1.84017 -6.01432,-5.84371 -2.54313,-5.48227 -2.74639,-5.60276 -3.2865,-1.9479 -1.27405,8.62164 -2.26311,10.90826 -4.71826,10.90826 -2.20205,0 -2.42116,-1.50345 -1.53303,-10.51868 z m 4.45071,-0.50607 c 0.64425,-6.54539 -0.81288,-9.53964 -2.53115,-5.20124 -1.47762,3.73084 -1.16165,11.55102 0.46672,11.55102 0.7917,0 1.72068,-2.8574 2.06443,-6.34978 z m 10.13741,0.58611 c -2.74824,-6.37284 -3.62664,-7.57546 -4.74302,-6.4938 -1.50332,1.45655 2.95918,12.25747 5.06429,12.25747 1.75556,0 1.69488,-1.08847 -0.32127,-5.76367 z m -3.36391,-25.79237 c 0.57337,-2.35696 0.38934,-4.28539 -0.40894,-4.28539 -1.47421,0 -3.37302,5.15844 -3.413,9.27203 -0.0333,3.42843 2.61564,-0.0277 3.82194,-4.98664 z M 272.6144,451.74044 c 1.30781,-2.05026 -2.67416,-5.87959 -5.24917,-5.04796 -1.3015,0.42033 -1.9961,-1.02732 -1.9961,-4.16017 0,-4.54403 1.20623,-5.52823 6.03137,-4.92115 1.2325,0.15507 2.01045,-1.61808 2.01045,-4.5823 0,-2.82668 -0.66811,-4.43518 -1.60836,-3.87215 -0.8846,0.5297 -1.60837,-0.52956 -1.60837,-2.3539 0,-2.5447 0.83875,-3.20106 3.60239,-2.81904 1.98132,0.27388 3.74253,1.54984 3.91381,2.83545 1.73403,13.01535 2.00298,13.49355 8.6791,15.43153 7.05498,2.04796 9.36859,5.16556 6.40286,8.62786 -1.47426,1.7211 -2.94799,1.84488 -6.73525,0.56571 -3.48531,-1.17718 -5.35633,-1.145 -6.65625,0.11439 -2.24518,2.17534 -8.15919,2.33363 -6.78648,0.18165 z m 16.8802,-5.89815 c 0,-1.29266 -12.53427,-5.20716 -19.08428,-5.96009 -6.37903,-0.73328 -2.49527,1.22261 8.17276,4.11587 5.55904,1.50764 10.28828,2.81727 10.50943,2.91027 0.22115,0.093 0.40209,-0.38673 0.40209,-1.06605 z m -13.36659,-15.51684 c -0.40455,-1.49989 -0.73555,-0.27271 -0.73555,2.72706 0,2.99978 0.331,4.22696 0.73555,2.72707 0.40454,-1.49989 0.40454,-3.95425 0,-5.45413 z m 258.31067,21.03736 c -1.65155,-2.10325 -0.81419,-17.273 0.90178,-16.33654 0.57097,0.31159 3.2588,1.42163 5.97296,2.46674 l 4.93485,1.90021 -3.32648,6.95752 c -3.39122,7.09291 -5.75327,8.48848 -8.48311,5.01207 z m 7.54455,-8.57078 c 0.0135,-1.07134 -0.69914,-1.9479 -1.58374,-1.9479 -0.8846,0 -1.59729,1.92842 -1.58374,4.28539 0.0191,3.33939 0.36881,3.76938 1.58374,1.9479 0.85751,-1.28562 1.5702,-3.21404 1.58374,-4.28539 z m -5.34365,-2.33748 c -0.44618,-1.07135 -0.81124,-0.19479 -0.81124,1.9479 0,2.1427 0.36506,3.01925 0.81124,1.94791 0.44618,-1.07135 0.44618,-2.82446 0,-3.89581 z m -1.41996,-8.11058 c -5.06043,-2.95652 -9.58846,-4.76772 -10.0623,-4.02489 -0.47384,0.74283 0.0478,1.70575 1.15896,2.13983 1.25886,0.49173 1.33687,0.8356 0.20694,0.91226 -2.84769,0.19318 -5.58281,-3.89636 -4.47559,-6.69192 1.1283,-2.84884 7.93121,-3.44522 9.59245,-0.84092 0.59433,0.93175 2.41177,1.35681 4.03871,0.94459 1.62696,-0.41222 3.29755,0.0526 3.71243,1.03299 0.51957,1.22774 0.79382,1.17626 0.88129,-0.16543 0.0698,-1.07135 0.89346,-1.9479 1.83027,-1.9479 0.93681,0 1.20704,0.77794 0.60054,1.72875 -0.60651,0.95082 0.86526,3.36719 3.27058,5.36972 4.19936,3.49614 4.379,6.93083 0.36203,6.92243 -1.05354,-0.002 -6.05588,-2.42298 -11.11631,-5.37951 z m 13.22169,3.21275 c 0,-0.33684 -1.08565,-1.01608 -2.41255,-1.50941 -1.3269,-0.49334 -2.41254,-0.21774 -2.41254,0.61244 0,0.83017 1.08564,1.50941 2.41254,1.50941 1.3269,0 2.41255,-0.2756 2.41255,-0.61244 z m -12.86692,-6.34519 c 0,-0.39838 -1.62847,-1.48893 -3.61882,-2.42345 -3.47508,-1.63162 -3.4948,-1.60285 -0.49677,0.72434 3.28148,2.54721 4.11559,2.89157 4.11559,1.69911 z m -6.43346,3.84098 c 0,-0.85707 0.68105,-1.55832 1.51344,-1.55832 0.8324,0 1.96076,0.70125 2.50748,1.55832 0.54671,0.85708 -0.1343,1.55833 -1.51344,1.55833 -1.37911,0 -2.50748,-0.70125 -2.50748,-1.55833 z M 391.10574,349.42179 c 0.286,-1.42886 1.60566,-2.88474 2.93256,-3.23528 1.98299,-0.52387 2.01789,-0.36978 0.19603,0.86538 -1.21908,0.82651 -1.71918,2.28238 -1.11135,3.23528 0.60784,0.9529 0.28562,1.73255 -0.71606,1.73255 -1.00165,0 -1.5872,-1.16907 -1.30118,-2.59793 z"
       id="path10387"
       inkscape:connector-curvature="0" />
    <path
       style="fill:#ad6f26"
       d="m 272.6144,451.74044 c 1.30781,-2.05026 -2.67416,-5.87959 -5.24917,-5.04796 -1.3015,0.42033 -1.9961,-1.02732 -1.9961,-4.16017 0,-4.54403 1.20623,-5.52823 6.03137,-4.92115 1.2325,0.15507 2.01045,-1.61808 2.01045,-4.5823 0,-2.82668 -0.66811,-4.43518 -1.60836,-3.87215 -0.8846,0.5297 -1.60837,-0.52956 -1.60837,-2.3539 0,-2.5447 0.83875,-3.20106 3.60239,-2.81904 1.98132,0.27388 3.74253,1.54984 3.91381,2.83545 1.73403,13.01535 2.00298,13.49355 8.6791,15.43153 7.05498,2.04796 9.36859,5.16556 6.40286,8.62786 -1.47426,1.7211 -2.94799,1.84488 -6.73525,0.56571 -3.48531,-1.17718 -5.35633,-1.145 -6.65625,0.11439 -2.24518,2.17534 -8.15919,2.33363 -6.78648,0.18165 z m 16.8802,-5.89815 c 0,-1.29266 -12.53427,-5.20716 -19.08428,-5.96009 -6.37903,-0.73328 -2.49527,1.22261 8.17276,4.11587 5.55904,1.50764 10.28828,2.81727 10.50943,2.91027 0.22115,0.093 0.40209,-0.38673 0.40209,-1.06605 z m -13.36659,-15.51684 c -0.40455,-1.49989 -0.73555,-0.27271 -0.73555,2.72706 0,2.99978 0.331,4.22696 0.73555,2.72707 0.40454,-1.49989 0.40454,-3.95425 0,-5.45413 z m 258.31067,21.03736 c -1.65155,-2.10325 -0.81419,-17.273 0.90178,-16.33654 0.57097,0.31159 3.2588,1.42163 5.97296,2.46674 l 4.93485,1.90021 -3.32648,6.95752 c -3.39122,7.09291 -5.75327,8.48848 -8.48311,5.01207 z m 7.54455,-8.57078 c 0.0135,-1.07134 -0.69914,-1.9479 -1.58374,-1.9479 -0.8846,0 -1.59729,1.92842 -1.58374,4.28539 0.0191,3.33939 0.36881,3.76938 1.58374,1.9479 0.85751,-1.28562 1.5702,-3.21404 1.58374,-4.28539 z m -5.34365,-2.33748 c -0.44618,-1.07135 -0.81124,-0.19479 -0.81124,1.9479 0,2.1427 0.36506,3.01925 0.81124,1.94791 0.44618,-1.07135 0.44618,-2.82446 0,-3.89581 z m -1.41996,-8.11058 c -5.06043,-2.95652 -9.58846,-4.76772 -10.0623,-4.02489 -0.47384,0.74283 0.0478,1.70575 1.15896,2.13983 1.25886,0.49173 1.33687,0.8356 0.20694,0.91226 -2.84769,0.19318 -5.58281,-3.89636 -4.47559,-6.69192 1.1283,-2.84884 7.93121,-3.44522 9.59245,-0.84092 0.59433,0.93175 2.41177,1.35681 4.03871,0.94459 1.62696,-0.41222 3.29755,0.0526 3.71243,1.03299 0.51957,1.22774 0.79382,1.17626 0.88129,-0.16543 0.0698,-1.07135 0.89346,-1.9479 1.83027,-1.9479 0.93681,0 1.20704,0.77794 0.60054,1.72875 -0.60651,0.95082 0.86526,3.36719 3.27058,5.36972 4.19936,3.49614 4.379,6.93083 0.36203,6.92243 -1.05354,-0.002 -6.05588,-2.42298 -11.11631,-5.37951 z m 13.22169,3.21275 c 0,-0.33684 -1.08565,-1.01608 -2.41255,-1.50941 -1.3269,-0.49334 -2.41254,-0.21774 -2.41254,0.61244 0,0.83017 1.08564,1.50941 2.41254,1.50941 1.3269,0 2.41255,-0.2756 2.41255,-0.61244 z m -12.86692,-6.34519 c 0,-0.39838 -1.62847,-1.48893 -3.61882,-2.42345 -3.47508,-1.63162 -3.4948,-1.60285 -0.49677,0.72434 3.28148,2.54721 4.11559,2.89157 4.11559,1.69911 z m -6.43346,3.84098 c 0,-0.85707 0.68105,-1.55832 1.51344,-1.55832 0.8324,0 1.96076,0.70125 2.50748,1.55832 0.54671,0.85708 -0.1343,1.55833 -1.51344,1.55833 -1.37911,0 -2.50748,-0.70125 -2.50748,-1.55833 z M 391.10574,349.42179 c 0.286,-1.42886 1.60566,-2.88474 2.93256,-3.23528 1.98299,-0.52387 2.01789,-0.36978 0.19603,0.86538 -1.21908,0.82651 -1.71918,2.28238 -1.11135,3.23528 0.60784,0.9529 0.28562,1.73255 -0.71606,1.73255 -1.00165,0 -1.5872,-1.16907 -1.30118,-2.59793 z"
       id="path10385"
       inkscape:connector-curvature="0" />
  </g>
</svg>
