<?xml version="1.0" encoding="UTF-8" standalone="no"?>
<!-- Created with Inkscape (http://www.inkscape.org/) -->

<svg
   xmlns:dc="http://purl.org/dc/elements/1.1/"
   xmlns:cc="http://creativecommons.org/ns#"
   xmlns:rdf="http://www.w3.org/1999/02/22-rdf-syntax-ns#"
   xmlns:svg="http://www.w3.org/2000/svg"
   xmlns="http://www.w3.org/2000/svg"
   xmlns:sodipodi="http://sodipodi.sourceforge.net/DTD/sodipodi-0.dtd"
   xmlns:inkscape="http://www.inkscape.org/namespaces/inkscape"
   width="210mm"
   height="297mm"
   viewBox="0 0 744.09448819 1052.3622047"
   id="svg4728"
   version="1.1"
   inkscape:version="0.91 r13725"
   sodipodi:docname="replication.svg">
  <defs
     id="defs4730" />
  <sodipodi:namedview
     id="base"
     pagecolor="#ffffff"
     bordercolor="#666666"
     borderopacity="1.0"
     inkscape:pageopacity="0.0"
     inkscape:pageshadow="2"
     inkscape:zoom="0.98994949"
     inkscape:cx="489.24553"
     inkscape:cy="730.98094"
     inkscape:document-units="px"
     inkscape:current-layer="layer1"
     showgrid="false"
     inkscape:window-width="1366"
     inkscape:window-height="705"
     inkscape:window-x="-8"
     inkscape:window-y="-8"
     inkscape:window-maximized="1" />
  <metadata
     id="metadata4733">
    <rdf:RDF>
      <cc:Work
         rdf:about="">
        <dc:format>image/svg+xml</dc:format>
        <dc:type
           rdf:resource="http://purl.org/dc/dcmitype/StillImage" />
        <dc:title></dc:title>
      </cc:Work>
    </rdf:RDF>
  </metadata>
  <g
     inkscape:label="Layer 1"
     inkscape:groupmode="layer"
     id="layer1">
    <path
       style="fill:#000000"
       d="M 350.20312 143.8125 C 350.20628 143.83285 350.21283 143.85604 350.2168 143.87695 C 350.27718 143.85714 350.27001 143.83569 350.20312 143.8125 z M 369.19531 171.88867 C 369.50394 171.94064 369.83178 171.93571 370.16016 171.88867 L 369.40039 171.88867 L 369.19531 171.88867 z M 372.30664 175.37891 C 357.86962 175.40201 349.96924 177.70365 337.87109 185.41406 C 322.48801 195.21803 311.1049 209.90872 303.45703 229.82422 C 297.64268 244.96511 296.57556 251.57615 296.60156 272.25 C 296.62293 289.24196 296.86542 291.80091 299.34961 301.17578 C 305.96551 326.14295 319.16387 345.93868 336.94141 357.55859 C 344.30472 362.37147 356.68809 367.38477 361.21094 367.38477 C 361.78531 367.38477 362.36565 367.53237 362.94727 367.80859 C 363.02854 367.78745 363.10993 367.76115 363.19336 367.75781 C 363.86071 367.7308 364.03516 367.76037 364.54688 368.03906 C 364.68185 368.0437 364.81464 368.06767 364.94727 368.09375 C 365.0617 368.10484 365.19784 368.12924 365.27344 368.14648 C 365.59204 368.21908 365.90691 368.33071 366.19531 368.48438 C 366.24415 368.5104 366.32043 368.57265 366.39258 368.62695 C 366.49935 368.65624 366.59922 368.67319 366.62891 368.68164 C 366.80373 368.74384 366.98489 368.79339 367.1543 368.86914 C 367.18308 368.88201 367.23748 368.90301 367.28125 368.91992 C 367.58174 368.90695 367.82925 368.96389 368.08594 369.05273 C 368.18855 369.08317 368.28393 369.10886 368.58398 369.21289 C 368.63918 369.24353 368.69285 369.2768 368.75 369.30469 C 368.89684 369.33682 369.03816 369.38559 369.17773 369.43555 C 369.23065 369.43557 369.28302 369.43553 369.33594 369.43555 C 369.59272 369.43551 369.85064 369.43447 370.10742 369.43555 C 370.35861 369.43755 370.61025 369.43773 370.86133 369.42773 C 370.95043 369.42968 371.2885 369.42342 371.38281 369.45898 C 371.98327 368.7375 372.63389 368.80428 373.37695 368.80469 L 374.12695 368.80469 L 375.33398 368.80469 C 375.826 368.80469 376.23737 368.88403 376.58594 369.00781 C 377.56523 368.63071 378.80774 368.34899 380.4668 368.0957 C 384.13774 367.53526 387.85605 366.58648 391.54492 365.29492 C 391.55231 365.1869 391.5566 365.07872 391.56445 364.9707 C 391.66022 363.65429 393.78451 363.71877 395.31055 363.83984 C 404.93327 359.83781 414.16028 353.57099 421.54883 345.79297 C 442.29984 323.9481 452.71485 285.65608 446.9707 252.32227 C 446.11778 247.37262 445.23507 242.16614 445.00977 240.75195 C 444.94037 240.3164 444.95391 239.88329 445.04297 239.4375 L 445.01367 239.32617 C 445.01368 239.32487 445.01366 239.32357 445.01367 239.32227 C 444.94168 239.18273 444.87053 239.04102 444.82227 238.88672 C 444.73614 238.77526 444.66715 238.67301 444.61523 238.57617 C 444.4105 238.34238 444.24048 238.06687 444.07617 237.76367 C 444.02337 237.66617 444.01863 237.54856 443.99023 237.44141 C 443.9773 237.16944 443.98472 237.33607 443.97656 237.17969 C 443.93327 237.1344 443.89062 237.08855 443.84766 237.04297 C 443.82438 236.93489 443.79924 236.82716 443.77734 236.71875 C 443.75747 236.70837 443.72851 236.6004 443.71289 236.54688 C 443.69619 236.48961 443.67683 236.43216 443.6582 236.375 C 443.63121 236.34739 443.56294 236.27313 443.58789 236.30469 C 443.14469 235.80484 443.46846 236.21271 443.03906 234.82031 C 443.02657 234.77984 443.0509 234.92597 443.07812 235.0625 C 443.10066 235.12694 443.12378 235.19148 443.14648 235.25586 C 443.14325 235.35612 443.10891 235.21441 443.07812 235.0625 C 443.04119 234.9569 443.00251 234.85144 442.96484 234.74609 C 442.9811 234.79364 442.99291 234.82643 443.00586 234.86719 C 443.01386 234.89159 442.98552 234.82137 442.97852 234.79688 C 442.9737 234.78001 442.96959 234.76297 442.96484 234.74609 C 442.96304 234.74081 442.96233 234.73651 442.96094 234.73242 C 442.9349 234.63948 442.91005 234.54627 442.88477 234.45312 C 442.88364 234.45128 442.88204 234.44914 442.88086 234.44727 C 442.05266 234.38309 441.35945 234.25466 442.57227 234.09766 C 442.35203 233.64799 442.1416 233.19306 441.91211 232.74805 C 441.85998 232.2193 441.81126 231.68882 441.78125 231.1582 C 441.34154 230.13426 440.84264 228.92677 440.31055 227.55469 C 433.55804 210.1421 421.12343 194.56283 406.74219 185.49609 C 394.23512 177.61093 386.56104 175.35611 372.30664 175.37891 z M 373.53906 181.26758 C 391.64699 181.21803 407.60719 189.21448 421.04883 205.10938 C 426.8588 211.97971 434.57459 225.78461 437.20898 234.02344 L 438.63672 238.49023 L 437.08984 240.0918 C 437.52338 240.49523 437.83669 241.20097 437.83789 242.21875 C 437.83809 242.38582 437.83618 242.55168 437.83594 242.71875 C 437.83686 243.00824 437.85008 243.29875 437.83008 243.58789 C 437.82848 243.60891 437.82853 243.62942 437.82617 243.65039 C 437.91277 243.86723 437.84077 243.50718 437.73633 244.94336 L 437.41797 245.42188 C 437.44607 245.37887 437.53271 245.25183 437.50195 245.29297 C 437.3887 245.44434 437.29954 245.61449 437.17188 245.75391 C 437.12847 245.80131 437.28267 245.52469 437.24414 245.57617 C 437.24375 245.5767 437.18612 245.6925 437.13281 245.79688 C 437.14909 245.88798 437.11395 245.96564 437.02148 246.47461 C 437.00731 246.50458 437.00407 246.51126 436.99219 246.53711 C 437.06641 246.48615 437.084 246.47398 437.1875 246.4043 C 437.23928 246.35997 437.27651 246.33987 437.33203 246.28906 C 437.39723 246.22936 437.25968 246.35494 437.23828 246.36914 C 437.20907 246.38861 437.21457 246.38608 437.1875 246.4043 C 437.11179 246.46911 437.04811 246.51342 436.98047 246.56445 C 436.92167 246.69381 436.86716 246.80391 436.82617 246.88281 C 438.48222 245.26266 439.72247 244.16082 440.04883 244.08008 C 440.08746 244.07052 440.11321 244.07579 440.12695 244.09375 C 440.34686 244.3811 441.28506 249.51069 442.21289 255.49414 C 445.26025 275.14635 442.8201 295.37211 434.99219 315.31836 C 429.66132 328.90193 416.24743 345.87183 405.26562 352.92578 C 400.6661 355.88056 394.0251 359.17789 390.50781 360.25195 C 386.99052 361.32603 382.84525 362.21431 381.29492 362.22461 L 379.93945 362.23242 L 378.47656 362.24219 L 378.53125 362.13086 C 378.31782 362.14597 378.10476 362.15199 377.89062 362.08594 C 377.88899 362.08553 377.75221 362.03526 377.66406 362.00586 C 377.36266 361.99107 377.18187 361.94718 376.94922 361.85938 L 376.73242 361.85938 L 376.60352 361.85938 C 376.37611 361.98755 376.09745 362.02141 375.84375 361.94922 C 375.8162 361.95234 375.78767 361.96367 375.76172 361.95508 C 375.6152 361.90448 375.60329 361.90417 375.52344 361.88086 C 375.44269 361.89692 375.34872 361.89518 375.27148 361.89648 C 375.13224 361.89301 375.09279 361.8852 375.02344 361.85938 C 374.97982 361.8593 374.93616 361.85953 374.89258 361.85938 C 374.58248 361.85838 374.27298 361.86433 373.96289 361.86133 C 373.96186 361.85114 373.96279 361.83934 373.96289 361.82812 L 373.92969 361.82812 C 373.92653 361.82891 373.92357 361.83001 373.91992 361.83008 C 373.92042 361.83707 373.92343 361.84662 373.92383 361.85352 C 373.92583 361.88932 373.79725 361.87816 373.81641 361.84766 C 373.83515 361.8179 373.88146 361.83074 373.91992 361.83008 L 373.91992 361.82812 L 373.85742 361.82812 C 373.72524 361.86372 373.59315 361.89867 373.45703 361.90625 C 373.31725 361.91405 373.18784 361.89749 373.0625 361.87109 C 372.35747 362.14383 371.51099 362.19611 370.33008 362.20703 C 369.42047 362.21544 368.69142 362.19016 368.06055 362.04297 C 368.02883 362.04384 368.00135 362.04884 367.96875 362.04883 C 367.81225 362.04877 367.65455 362.04881 367.49805 362.04883 C 367.32194 362.04866 367.14682 362.04921 366.9707 362.05078 C 366.81444 362.05162 366.65808 362.05061 366.50195 362.04297 C 366.21617 362.05407 365.96413 362.09781 365.67578 362.00391 C 365.65304 361.9965 365.63329 361.98194 365.61133 361.97266 C 365.49825 361.96415 365.38569 361.95114 365.28125 361.91016 C 365.25835 361.90117 365.23792 361.88363 365.21484 361.87305 C 364.94345 361.86373 364.6759 361.82257 364.41797 361.7168 C 364.37197 361.6983 364.32472 361.68591 364.28125 361.66211 C 364.27325 361.65811 364.31514 361.65825 364.30664 361.65625 C 364.23228 361.63287 364.12908 361.64639 364.07422 361.60352 C 363.9002 361.60358 363.7248 361.60396 363.55078 361.60352 C 363.4147 361.60313 363.27866 361.60333 363.14258 361.60547 C 363.07338 361.60347 362.98356 361.61615 362.91797 361.59375 C 362.90077 361.58775 362.9761 361.59768 362.9707 361.58008 C 362.9677 361.56898 362.94715 361.58298 362.93555 361.58398 C 362.62256 361.64688 362.39492 361.71552 362.03711 361.5625 C 361.95243 361.52628 361.88151 361.46659 361.80859 361.41016 C 361.7542 361.40333 361.69378 361.39427 361.62109 361.37891 C 361.77593 361.84958 361.85152 362.1728 361.76562 362.14062 C 361.61131 362.08443 358.82876 361.27344 355.58203 360.33789 C 321.87638 350.62569 299.30881 311.89758 301.25586 267.10742 C 302.26464 243.90157 309.05443 224.11998 321.55469 207.96875 C 333.64643 192.34536 345.54862 184.96823 363.25977 182.12305 C 366.75801 181.56108 370.18574 181.27675 373.53906 181.26758 z M 388.41406 194.02148 C 384.07186 194.03485 382.95177 198.3452 382.15625 215.69141 C 381.31576 234.01779 380.41794 238.76814 375.99023 248.33203 L 372.48242 255.91211 L 369.67578 248.66016 C 367.52963 243.11409 366.28215 236.50239 364.37109 220.53711 C 361.69699 198.19743 360.67966 195.11133 355.99023 195.11133 C 350.78422 195.11133 349.82576 198.02555 350.50195 211.77344 C 351.5499 233.07954 353.72036 244.58091 359.00391 256.82227 C 361.59805 262.83256 363.63291 269.00856 363.52734 270.54688 C 363.42178 272.08517 361.76851 276.42649 359.85352 280.19531 C 352.2195 295.21949 351.56505 297.91779 349.67188 322.25391 C 348.09548 342.50331 348.61042 346.69407 352.8418 348.04688 C 352.97475 348.08938 353.11764 348.15769 353.26562 348.24414 C 353.53826 348.17575 353.81469 348.13142 354.08984 348.16016 C 354.17855 348.16941 354.26459 348.19684 354.35156 348.2168 C 354.75759 347.94153 354.9649 347.80856 355.14062 347.74609 C 355.48657 347.51024 355.69166 347.45409 356.01172 347.44531 C 356.01897 347.44033 356.04503 347.4322 356.0625 347.42773 C 356.1712 347.40003 356.27972 347.36826 356.39062 347.35156 C 356.49658 347.33563 356.59884 347.33348 356.70117 347.33008 C 357.07509 347.12578 357.30246 347.07894 357.55078 347.07031 C 357.57014 347.03819 357.62829 346.94226 357.66406 346.88867 C 357.70775 346.74955 357.82091 346.51479 357.74023 346.67383 C 357.82193 346.49994 357.85971 346.29857 357.98438 346.15234 C 358.20907 345.88873 358.51165 345.70255 358.76367 345.46484 C 358.65515 345.52063 358.84273 345.42938 358.61133 345.54688 C 358.55198 345.57672 358.83296 345.40107 358.78516 345.44727 C 358.77852 345.45367 358.77038 345.45852 358.76367 345.46484 C 359.46079 345.10652 358.3303 345.65241 359.27539 345.1875 C 359.24979 345.1935 359.19772 345.23138 359.19922 345.20508 C 359.20122 345.17298 359.24914 345.16589 359.27734 345.15039 C 359.38014 345.09402 359.48589 345.04248 359.58984 344.98828 C 359.59943 344.97749 359.59783 344.98137 359.60742 344.9707 C 359.57615 344.9847 359.56836 344.98786 359.54883 344.99609 C 359.57101 344.9852 359.59298 344.97364 359.61523 344.96289 C 359.62798 344.9488 359.62624 344.95296 359.63867 344.93945 C 359.61696 344.26122 359.70343 343.68813 359.90039 343.20312 C 360.38592 342.00768 361.08268 335.24476 361.44727 328.17383 C 362.46342 308.46597 363.5352 302.42893 367.51758 293.99805 L 371.13477 286.3418 L 374.47266 294.21289 C 377.42061 301.1631 378.03524 304.35338 379.7207 321.46094 C 380.77061 332.11765 381.88571 341.89284 382.19922 343.18359 C 382.34489 343.78335 382.36655 344.31754 382.30078 344.73438 C 382.68961 345.42756 382.57945 345.2294 382.5 345.08789 C 382.54472 345.07296 382.63931 345.23718 382.67773 345.3125 C 382.71049 345.37669 382.73322 345.44557 382.76172 345.51172 C 382.98044 345.68554 383.18444 345.88306 383.31055 346.09766 C 383.47304 346.37415 383.49136 346.42731 383.50977 346.47852 C 383.44788 346.3265 383.45951 346.23983 383.62305 346.50195 C 383.59645 346.4126 383.92151 346.69278 384.04688 346.79297 C 384.15408 346.87865 384.22537 346.96187 384.2832 347.02734 C 384.29955 347.03441 384.28729 347.02421 384.32422 347.04297 C 384.33728 347.06393 384.33615 347.06202 384.34375 347.07422 C 384.45004 347.09098 384.31084 347.06353 384.55664 347.10547 C 384.57129 347.10791 384.58524 347.11339 384.59961 347.11719 C 384.93185 347.22886 385.14202 347.29284 385.26172 347.33398 C 385.28274 347.33374 385.3263 347.32721 385.33594 347.32812 C 385.7009 347.40358 385.83999 347.43081 385.96484 347.46289 C 385.97778 347.46235 386.0045 347.46131 386.01367 347.46094 C 386.42635 347.07181 387.09987 346.81445 387.86133 346.81445 C 389.11071 346.81445 390.99258 345.9945 392.04297 344.99023 C 394.40474 342.73218 394.30209 335.47105 391.58789 312.47656 C 389.89519 298.13604 389.30161 295.76031 384.71094 284.98047 C 381.9473 278.49087 379.68555 272.97135 379.68555 272.71484 C 379.68555 272.51459 380.75459 272.34853 382.22656 272.2832 C 380.59316 270.86831 380.596 271.4262 380.625 269.79492 C 380.626 269.75362 380.60498 269.47108 380.64258 269.42188 C 380.64558 269.41787 380.67446 269.5162 380.67188 269.5 C 380.64637 269.34267 380.61434 269.18614 380.58594 269.0293 C 380.68883 268.1075 380.58731 268.23047 380.78125 267.73047 C 380.82255 267.62389 380.82464 267.33623 380.91016 267.41211 C 380.92442 267.42477 380.9279 267.44277 380.93359 267.45898 L 380.95898 267.4668 C 380.96722 267.29757 380.98051 267.12777 381.00586 266.95703 C 381.01596 266.88883 381.06019 266.68718 381.05469 266.75586 C 381.04769 266.83856 381.02091 266.91683 381.00391 266.99805 L 381.51367 266.05273 C 381.49715 265.84073 381.88208 265.03242 382.58984 263.74609 L 382.58984 263.43359 C 382.58984 261.2131 383.63391 260.03921 384.75 259.88477 C 390.94915 248.60923 392.35325 242.08048 393.99805 220.64844 C 395.76258 197.65641 395.24547 194.7183 389.32617 194.07422 C 389.00719 194.03951 388.70354 194.02059 388.41406 194.02148 z M 384.34375 347.07422 C 384.33693 347.07314 384.33641 347.07325 384.33008 347.07227 L 384.33203 347.07422 C 384.34099 347.07985 384.34209 347.08008 384.35156 347.08594 C 384.34942 347.08245 384.34665 347.07888 384.34375 347.07422 z M 389.55273 197.04102 L 391.98438 197.04102 L 391.79688 211.82422 C 391.50146 235.22149 389.61284 245.07667 382.86523 258.40039 C 381.51436 261.0678 380.13473 263.2364 379.80078 263.2207 C 379.46685 263.20498 378.08718 262.07417 376.73438 260.70703 C 374.47451 258.42319 374.38997 257.98151 375.6875 255.27148 C 382.36165 241.33166 383.32524 237.26331 384.05664 219.98242 C 384.84645 201.32129 385.87209 197.04102 389.55273 197.04102 z M 356.21484 197.68359 C 358.86858 197.68359 359.67454 200.98857 362.35742 222.86328 C 364.21753 238.02963 365.4143 244.01351 367.84766 250.3125 C 369.55913 254.74279 370.8211 258.51886 370.65039 258.70508 C 370.47967 258.89129 369.33034 259.73001 368.09766 260.56836 C 366.86498 261.40671 366.11593 262.64283 366.43359 263.31445 C 367.12025 264.76626 366.78258 264.83968 365.35938 263.55078 C 364.03404 262.35167 357.48109 248.02009 356.69727 244.60742 C 355.63311 239.97417 353.177 220.11349 352.51172 210.75977 C 351.81081 200.90509 352.72274 197.68359 356.21484 197.68359 z M 321.49023 202.82617 C 321.76079 202.82617 320.94082 204.27132 319.66992 206.03906 C 318.39902 207.80679 317.13775 209.25391 316.86719 209.25391 C 316.59663 209.25391 317.4166 207.80679 318.6875 206.03906 C 319.9584 204.27132 321.21967 202.82617 321.49023 202.82617 z M 443.1543 231.1582 C 443.05076 231.144 443.02218 231.17078 443.11719 231.27734 C 443.54113 231.75283 443.87726 232.086 444.16406 232.34375 C 444.17529 232.24242 444.19734 232.1667 444.22852 232.11328 C 444.25112 231.85589 444.27596 231.55194 444.27344 231.44141 C 443.85167 231.37375 443.35793 231.18614 443.1543 231.1582 z M 442.94336 234.45117 C 442.94439 234.45367 442.9462 234.45655 442.94727 234.45898 C 443.0242 234.52533 443.15624 234.65636 443.10742 234.60352 C 442.99772 234.48477 443.02022 234.51363 442.95703 234.45117 C 442.95222 234.45083 442.94816 234.45152 442.94336 234.45117 z M 443.67578 236.24023 C 443.67349 236.23137 443.68087 236.27018 443.67969 236.26758 C 443.68235 236.27635 443.685 236.28892 443.6875 236.29688 C 443.68288 236.27816 443.6806 236.2589 443.67578 236.24023 z M 443.70117 236.43359 C 443.71008 236.48841 443.70716 236.50074 443.71484 236.5332 C 443.72148 236.56129 443.7399 236.58676 443.75586 236.61328 C 443.74576 236.56439 443.73534 236.51554 443.72461 236.4668 C 443.71813 236.4562 443.70618 236.44285 443.70117 236.43359 z M 444.24805 237.46875 C 444.36112 237.61364 444.4837 237.75217 444.60156 237.89258 C 444.62686 237.92268 444.72922 237.98057 444.70312 237.95117 C 444.55647 237.78573 444.40107 237.62837 444.24805 237.46875 z M 444.93164 239.01953 C 444.93728 239.03073 444.93939 239.04363 444.94531 239.05469 C 444.96127 239.08443 444.97842 239.09273 445.01367 239.12891 C 445.0137 239.12565 445.01365 239.1224 445.01367 239.11914 C 444.98813 239.08705 444.95873 239.05265 444.93164 239.01953 z M 437.76367 243.47461 C 437.78418 243.54634 437.79046 243.54957 437.80469 243.58984 C 437.80287 243.58193 437.80116 243.57419 437.79883 243.56641 C 437.78983 243.53491 437.75457 243.44293 437.76367 243.47461 z M 436.90625 244.9375 C 436.96146 245.20949 437.00344 245.35521 437.03906 245.47656 C 437.04262 245.4179 437.05432 245.40095 437.05469 245.33594 C 437.05513 245.25724 437.01763 245.18319 436.99023 245.10938 C 436.96813 245.04968 436.89355 244.87515 436.90625 244.9375 z M 432.91406 248.79297 C 432.77314 248.87215 432.63165 248.94892 432.50195 249.00586 C 432.55264 249.122 432.59228 249.19354 432.64453 249.31641 C 432.73034 249.19009 432.82263 249.04893 432.91406 248.91016 C 432.91406 248.8711 432.91398 248.83203 432.91406 248.79297 z M 432.91211 249.7168 C 432.89062 249.78511 432.8752 249.81705 432.85156 249.90039 C 432.7333 250.3174 432.60518 250.73601 432.41797 251.12695 C 432.30196 251.36919 432.16592 251.60086 432.02539 251.83008 L 432.36914 251.46094 C 432.56075 251.25544 432.72914 251.0854 432.91797 250.88477 C 432.9617 250.56641 432.92168 250.25106 432.91016 249.91992 C 432.90849 249.8521 432.91166 249.78457 432.91211 249.7168 z M 432.26758 249.82031 C 432.17761 249.84646 432.07941 249.87152 431.97461 249.89258 C 431.90599 249.99423 431.83185 250.09098 431.75391 250.18164 C 431.93099 250.13554 432.09927 250.01157 432.26562 249.82227 L 432.26758 249.82031 z M 431.66797 249.95117 C 431.50882 249.98047 431.35694 250.01242 431.21094 250.05078 C 431.24068 250.07195 431.26992 250.09292 431.29883 250.10938 C 431.38327 250.08131 431.48641 250.05539 431.53711 250.03125 C 431.58281 250.00948 431.62376 249.97716 431.66797 249.95117 z M 419.45312 260.89844 C 419.43213 260.89992 419.41402 260.90306 419.39258 260.9043 C 419.37673 260.91211 419.36112 260.92007 419.3457 260.92773 L 419.45312 260.89844 z M 376.03516 262.24414 C 376.20514 262.28542 376.54927 262.56886 377.03711 263.08594 C 378.80592 264.9608 379.3323 266.48038 377.77734 265.22461 C 377.22786 264.78085 377.08001 266.32944 377.41602 269.03516 C 377.83092 272.37601 377.51325 274.27129 376.22266 276.13477 C 372.60081 281.36439 365.91211 277.865 365.91211 270.74023 C 365.91211 265.81341 369.09378 262.75255 373.29102 263.64258 C 375.83848 264.18277 376.58951 263.96969 376.07617 262.85156 C 375.8702 262.40293 375.86517 262.20286 376.03516 262.24414 z M 298.38477 264.98047 C 298.47424 264.99817 298.57949 265.19548 298.69727 265.58008 C 298.98155 266.50814 298.94607 267.61771 298.61914 268.04492 C 298.29221 268.47212 298.06082 267.71267 298.10352 266.35742 C 298.13302 265.42137 298.23564 264.95096 298.38477 264.98047 z M 384.49805 266.74609 C 384.26445 266.78377 384.16723 267.0986 384.13477 267.54492 C 384.19546 267.59415 384.25693 267.64222 384.31641 267.69336 C 384.3251 267.69427 384.33126 267.69637 384.33984 267.69727 C 384.82679 267.38591 385.03223 267.24107 385.19531 267.11328 C 384.89293 266.8512 384.65659 266.72053 384.49805 266.74609 z M 384.31641 267.69336 C 384.2584 267.68727 384.19262 267.67638 384.13086 267.66797 C 384.12842 267.72161 384.12593 267.77521 384.125 267.83203 C 384.13861 267.8248 384.15296 267.81881 384.16602 267.81055 C 384.2469 267.75933 384.25936 267.74902 384.32812 267.70508 C 384.32396 267.70148 384.32059 267.69695 384.31641 267.69336 z M 446.11328 267.82031 C 446.17257 267.82735 446.23988 268.11977 446.31055 268.73047 C 446.53673 270.6847 446.53035 273.57892 446.29688 275.16016 C 446.06333 276.7414 445.87972 275.14093 445.88672 271.60547 C 445.8918 269.17483 445.98286 267.80483 446.11328 267.82031 z M 80.613281 270.77148 C 80.601637 270.78923 80.59544 270.80084 80.583984 270.81836 C 80.583793 270.82942 80.584173 270.8405 80.583984 270.85156 C 80.592764 270.82508 80.604224 270.798 80.613281 270.77148 z M 298.38477 276.55078 C 298.47424 276.56848 298.57949 276.7658 298.69727 277.15039 C 298.98155 278.07844 298.94607 279.18801 298.61914 279.61523 C 298.29221 280.04243 298.06082 279.28298 298.10352 277.92773 C 298.13302 276.99168 298.23564 276.52128 298.38477 276.55078 z M 379.39258 278.90234 L 383.39453 288.10938 C 386.96352 296.3197 387.62008 299.22335 389.44531 314.89648 C 391.79611 335.08272 391.96685 340.53941 390.3125 342.70117 C 388.59402 344.94674 385.79443 344.58917 384.77734 341.99414 C 384.29236 340.75672 383.12692 331.6454 382.18945 321.74609 C 380.81127 307.19305 379.90039 302.14738 377.43164 295.39062 C 375.75233 290.79452 374.06207 286.10407 373.67383 284.96875 C 373.15518 283.45207 373.81941 282.37507 376.17969 280.9043 L 379.39258 278.90234 z M 363.5332 279.19336 C 364.28207 279.14175 365.52381 279.73209 366.83203 280.81445 L 369.84375 283.30469 L 366.42773 290.3125 C 361.60075 300.21336 360.24432 306.77225 359.5 323.82031 C 359.14146 332.03276 358.32284 340.128 357.68164 341.80859 C 356.2607 345.53288 353.87156 346.33074 352.16797 343.64844 C 350.58755 341.16007 351.55132 317.02688 353.74414 304.1875 C 354.98662 296.91258 360.04397 283.35346 362.96484 279.46484 C 363.089 279.29955 363.28358 279.21056 363.5332 279.19336 z M 369.54297 279.98242 C 370.18744 279.97159 370.98784 280.54095 371.32227 281.24805 C 372.07719 282.84419 371.73776 282.84419 369.84766 281.24805 C 368.96091 280.49922 368.83891 279.99402 369.54297 279.98242 z M 423.95898 339.10156 C 424.00977 339.16792 423.71346 339.68945 423.10156 340.70898 C 421.81628 342.85051 421.00781 343.53078 421.00781 342.47266 C 421.00781 342.2057 421.78351 341.19312 422.73047 340.22266 C 423.5107 339.42308 423.9082 339.0352 423.95898 339.10156 z M 359.74023 345.91797 C 359.682 346.00045 359.63826 346.0961 359.61914 346.21484 C 359.61654 346.23101 359.61868 346.24086 359.61719 346.25586 C 359.6675 346.27756 359.72707 346.27543 359.79297 346.25781 C 359.77077 346.14019 359.75773 346.03062 359.74023 345.91797 z M 383.05664 346.09961 C 383.04692 346.11117 383.03706 346.1302 383.02734 346.14258 C 383.02986 346.14847 383.03261 346.15427 383.03516 346.16016 C 383.05928 346.17107 383.06413 346.16847 383.09375 346.18359 C 383.08588 346.13251 383.07467 346.07837 383.05664 346.09961 z M 383.09375 346.18359 C 383.09886 346.21676 383.09619 346.21037 383.0957 346.23633 C 383.21494 346.28527 383.34731 346.34436 383.42578 346.36523 C 383.33425 346.31318 383.2044 346.24011 383.09375 346.18359 z M 383.0957 346.23633 C 383.08301 346.23112 383.07334 346.22794 383.06055 346.22266 C 383.06814 346.23939 383.07417 346.25683 383.08203 346.27344 C 383.0865 346.27739 383.08699 346.27902 383.0918 346.2832 C 383.09766 346.28893 383.09526 346.25989 383.0957 346.23633 z M 383.06055 346.22266 C 383.05126 346.20219 383.04409 346.18079 383.03516 346.16016 C 383.02878 346.15727 383.0254 346.1568 383.01953 346.1543 C 383.01114 346.16519 383.00253 346.17994 382.99414 346.19141 C 382.99609 346.1937 383.00356 346.19864 383.00586 346.20117 C 383.02581 346.20941 383.04062 346.21443 383.06055 346.22266 z M 380.86719 346.17188 C 380.8488 346.20895 380.82656 346.24204 380.81055 346.28125 C 380.8822 346.32576 380.94514 346.36119 381.01172 346.40039 C 380.96311 346.3248 380.91591 346.25234 380.86719 346.17188 z M 359.61719 346.26367 C 359.59862 346.47772 359.69274 346.57302 359.86523 346.58789 C 359.85691 346.54944 359.84575 346.50865 359.83789 346.4707 C 359.75933 346.39619 359.68744 346.32838 359.61719 346.26367 z M 383.22852 346.40234 C 383.34718 346.49646 383.60397 346.68494 383.81445 346.8418 C 383.8688 346.94898 383.65173 346.57287 383.52344 346.5 C 383.54941 346.55913 383.57878 346.62149 383.61133 346.6582 C 383.52615 346.55788 383.54173 346.56203 383.52148 346.5 C 383.43462 346.45148 383.33237 346.42398 383.22852 346.40234 z M 383.64453 346.54102 C 383.69444 346.62351 383.73525 346.68514 383.81641 346.8418 C 383.90867 346.91054 383.95979 346.95265 384.07227 347.03516 C 384.06951 347.0342 384.11504 347.04145 384.11523 347.04102 C 383.95462 346.89996 383.74856 346.70545 383.64453 346.54102 z M 357.84375 346.60156 C 357.85075 346.58996 357.8188 346.61691 357.8125 346.62891 C 357.80671 346.63991 357.80535 346.65724 357.80078 346.66992 C 357.82568 346.62981 357.8144 346.65019 357.84375 346.60156 z M 384.08984 347.04688 C 384.16016 347.09841 384.16949 347.10889 384.24805 347.16602 C 384.33282 347.22766 384.21494 347.12825 384.13086 347.05469 C 384.11335 347.05107 384.10709 347.05047 384.08984 347.04688 z M 384.35742 347.10352 C 384.36361 347.11059 384.36686 347.11192 384.36328 347.10547 C 384.36206 347.1052 384.35871 347.1038 384.35742 347.10352 z M 384.39844 347.11133 C 384.49352 347.16813 384.60873 347.23812 384.57812 347.21289 C 384.53352 347.17609 384.4867 347.13664 384.43164 347.11914 C 384.42984 347.11857 384.40284 347.11239 384.39844 347.11133 z M 354.57227 348.11133 C 354.57727 348.10833 354.55723 348.10928 354.55273 348.11328 C 354.54601 348.1194 354.53981 348.12654 354.5332 348.13281 C 354.546 348.12528 354.55951 348.11893 354.57227 348.11133 z M 354.72266 348.28125 C 354.71931 348.28511 354.71626 348.28914 354.71289 348.29297 C 354.74278 348.29978 354.77268 348.30662 354.80273 348.3125 C 354.82223 348.3165 354.76695 348.29536 354.74805 348.28906 C 354.73964 348.28628 354.73113 348.28379 354.72266 348.28125 z M 360.50977 348.80859 C 360.49665 348.83472 360.47087 348.88341 360.45117 348.91797 C 360.45929 348.90646 360.46627 348.89416 360.47461 348.88281 C 360.5251 348.81413 360.3741 349.06986 360.35156 349.10742 C 360.36212 349.10557 360.37223 349.10136 360.38281 349.09961 C 360.45216 349.08811 360.52187 349.08647 360.5918 349.07617 C 360.55736 348.97908 360.54232 348.90338 360.50977 348.80859 z M 360.35156 349.10742 C 360.41293 349.00181 360.41719 348.97758 360.45117 348.91797 C 360.40569 348.98246 360.36165 349.04778 360.32031 349.11523 C 360.33086 349.11329 360.341 349.10927 360.35156 349.10742 z M 362.69727 356.63086 C 362.70574 356.65609 362.7098 356.67041 362.74805 356.77539 C 362.75178 356.78105 362.75416 356.78745 362.75781 356.79297 C 362.76249 356.79076 362.76788 356.78985 362.77539 356.79102 C 362.75326 356.73937 362.73768 356.7028 362.7168 356.6543 C 362.70958 356.64781 362.70371 356.63597 362.69727 356.63086 z M 362.75781 356.79297 C 362.75679 356.79345 362.75477 356.79229 362.75391 356.79297 C 362.7565 356.79527 362.7637 356.80246 362.76562 356.80469 C 362.763 356.80065 362.76037 356.79684 362.75781 356.79297 z M 362.75391 356.79297 C 362.74889 356.77917 362.75267 356.78809 362.74805 356.77539 C 362.74573 356.77189 362.74258 356.76919 362.74023 356.76562 C 362.74294 356.7733 362.74527 356.7814 362.74805 356.78906 C 362.74914 356.79004 362.75282 356.79201 362.75391 356.79297 z M 362.83398 356.86719 C 362.94423 356.95827 362.94971 356.94667 362.91797 356.89062 C 362.90914 356.88768 362.91295 356.88908 362.90625 356.88672 C 362.88594 356.87956 362.85929 356.87357 362.83398 356.86719 z M 374.34766 361.82812 C 374.39477 361.83202 374.44088 361.83488 374.47852 361.82812 C 374.43492 361.82842 374.39125 361.828 374.34766 361.82812 z M 375.62695 361.85938 C 375.65127 361.87081 375.69331 361.89164 375.72656 361.9082 L 375.77344 361.91992 C 375.72487 361.90189 375.67519 361.88415 375.63086 361.85938 L 375.62695 361.85938 z M 379.60352 364.97266 C 379.94531 364.99104 380.23888 365.10867 380.40234 365.32227 C 380.72927 365.74947 380.14847 366.05385 379.11133 365.99805 C 377.96519 365.93636 377.73273 365.63109 378.51758 365.2207 C 378.87269 365.03499 379.26173 364.95427 379.60352 364.97266 z M 371.94141 369.34766 C 371.85116 369.35001 371.76255 369.36551 371.63867 369.41016 C 371.636 369.41495 371.63558 369.42104 371.63281 369.42578 C 371.73796 369.39933 371.80415 369.38643 371.94141 369.34766 z M 371.37891 369.46289 C 371.36601 369.46493 371.34197 369.46311 371.32422 369.4668 C 371.02837 369.53492 370.94215 369.54988 370.85547 369.59961 C 370.94435 369.57997 371.1121 369.5491 371.35156 369.49609 C 371.36096 369.48432 371.36948 369.47427 371.37891 369.46289 z M 374.33789 370.22461 L 374.25781 370.5957 C 374.27331 370.57748 374.28703 370.55702 374.30273 370.53906 C 374.31261 370.4334 374.3156 370.32424 374.33789 370.22461 z "
       id="path5289" />
    <ellipse
       style="fill:none;fill-opacity:1;stroke:#000000;stroke-width:2.99999952;stroke-miterlimit:4;stroke-dasharray:none;stroke-opacity:1"
       id="path7423"
       cx="370.7142"
       cy="273.79077"
       rx="123.57142"
       ry="144.28572" />
    <ellipse
       style="fill:#0f0000;fill-opacity:1;stroke:#000000;stroke-width:3;stroke-miterlimit:4;stroke-dasharray:none;stroke-opacity:1"
       id="path7425"
       cx="340.71429"
       cy="163.07649"
       rx="13.571428"
       ry="3.5714285" />
    <path
       style="fill:none;fill-rule:evenodd;stroke:#000000;stroke-width:1px;stroke-linecap:butt;stroke-linejoin:miter;stroke-opacity:1"
       d="m 340.42141,147.26552 c 0,12.12183 1.01015,29.29443 1.01015,29.29443"
       id="path7427"
       inkscape:connector-curvature="0" />
    <path
       style="fill:none;fill-rule:evenodd;stroke:#000000;stroke-width:1px;stroke-linecap:butt;stroke-linejoin:miter;stroke-opacity:1"
       d="m 333.35034,163.42796 -6.06092,14.14214"
       id="path7429"
       inkscape:connector-curvature="0" />
    <path
       style="fill:none;fill-rule:evenodd;stroke:#000000;stroke-width:1px;stroke-linecap:butt;stroke-linejoin:miter;stroke-opacity:1"
       d="m 354.56354,149.28583 -5.05076,11.11168"
       id="path7431"
       inkscape:connector-curvature="0" />
    <path
       style="fill:none;fill-rule:evenodd;stroke:#000000;stroke-width:1px;stroke-linecap:butt;stroke-linejoin:miter;stroke-opacity:1"
       d="m 326.27927,149.28583 8.08122,11.11168"
       id="path7433"
       inkscape:connector-curvature="0" />
    <path
       style="fill:none;fill-rule:evenodd;stroke:#000000;stroke-width:1px;stroke-linecap:butt;stroke-linejoin:miter;stroke-opacity:1"
       d="m 314.15744,164.43812 14.14214,-2.02031"
       id="path7435"
       inkscape:connector-curvature="0" />
    <path
       style="fill:none;fill-rule:evenodd;stroke:#000000;stroke-width:1px;stroke-linecap:butt;stroke-linejoin:miter;stroke-opacity:1"
       d="m 367.69553,164.43812 -15.15229,0"
       id="path7437"
       inkscape:connector-curvature="0" />
    <path
       style="fill:none;fill-rule:evenodd;stroke:#000000;stroke-width:1px;stroke-linecap:butt;stroke-linejoin:miter;stroke-opacity:1"
       d="m 353.55339,174.53964 -6.06091,-10.10152"
       id="path7439"
       inkscape:connector-curvature="0" />
  </g>
</svg>
