<?xml version="1.0" encoding="UTF-8" standalone="no"?>
<!-- Created with Inkscape (http://www.inkscape.org/) -->

<svg
   xmlns:dc="http://purl.org/dc/elements/1.1/"
   xmlns:cc="http://creativecommons.org/ns#"
   xmlns:rdf="http://www.w3.org/1999/02/22-rdf-syntax-ns#"
   xmlns:svg="http://www.w3.org/2000/svg"
   xmlns="http://www.w3.org/2000/svg"
   xmlns:sodipodi="http://sodipodi.sourceforge.net/DTD/sodipodi-0.dtd"
   xmlns:inkscape="http://www.inkscape.org/namespaces/inkscape"
   width="210mm"
   height="297mm"
   viewBox="0 0 744.09448819 1052.3622047"
   id="svg2"
   version="1.1"
   inkscape:version="0.91 r13725"
   sodipodi:docname="rest2.svg">
  <defs
     id="defs4" />
  <sodipodi:namedview
     id="base"
     pagecolor="#ffffff"
     bordercolor="#666666"
     borderopacity="1.0"
     inkscape:pageopacity="0.0"
     inkscape:pageshadow="2"
     inkscape:zoom="0.7"
     inkscape:cx="228.93836"
     inkscape:cy="581.31138"
     inkscape:document-units="px"
     inkscape:current-layer="layer1"
     showgrid="false"
     inkscape:window-width="1366"
     inkscape:window-height="705"
     inkscape:window-x="-8"
     inkscape:window-y="-8"
     inkscape:window-maximized="1" />
  <metadata
     id="metadata7">
    <rdf:RDF>
      <cc:Work
         rdf:about="">
        <dc:format>image/svg+xml</dc:format>
        <dc:type
           rdf:resource="http://purl.org/dc/dcmitype/StillImage" />
        <dc:title></dc:title>
      </cc:Work>
    </rdf:RDF>
  </metadata>
  <g
     inkscape:label="Layer 1"
     inkscape:groupmode="layer"
     id="layer1">
    <path
       style="fill:#000000"
       d="m 274.11546,709.04831 c -5.69662,-6.88467 -8.7802,-14.89927 -12.83586,-33.36195 -6.57807,-29.94551 -8.25962,-47.82875 -8.19367,-87.13942 0.0694,-41.35354 -0.86229,-44.91628 -8.16777,-31.23344 -4.97087,9.31021 -10.46936,8.72755 -15.47792,-1.64015 -2.4499,-5.0713 -8.04312,-10.67009 -17.37566,-17.39301 -23.06332,-16.61419 -41.95808,-45.06987 -53.66307,-80.81705 -2.95396,-9.02143 -7.44346,-18.69299 -9.97666,-21.49236 -2.53321,-2.79937 -4.60583,-7.32041 -4.60583,-10.04675 0,-5.26666 5.84847,-11.15815 11.07668,-11.15815 1.6858,0 5.39634,-2.5762 8.24565,-5.72489 4.8417,-5.35043 5.03659,-6.16471 2.97934,-12.44849 -1.21068,-3.69798 -2.28873,-10.30876 -2.39568,-14.69063 -0.10694,-4.38187 -1.38525,-9.70685 -2.84069,-11.83329 -4.23394,-6.18593 -3.21984,-15.65239 2.59697,-24.24242 10.218,-15.08954 12.34349,-16.88801 19.54854,-16.54083 3.75069,0.18073 10.69236,-1.66275 15.62263,-4.14885 10.79995,-5.4459 25.71966,-4.72778 35.28163,1.69818 3.75208,2.52152 7.75291,3.70376 10.21914,3.01974 2.55458,-0.70852 6.01621,0.42071 9.36322,3.0544 2.92063,2.29818 6.93784,4.17851 8.92713,4.17851 1.9893,0 5.7323,2.77815 8.31778,6.17366 2.60317,3.41875 5.79947,5.70778 7.16282,5.12965 4.27019,-1.8108 10.08532,4.36969 10.08532,10.71897 0,5.09464 0.66175,5.86234 5.05326,5.86234 2.77928,0 9.06509,2.13087 13.96845,4.73527 4.90336,2.6044 10.43346,5.30707 12.28911,6.00595 2.71298,1.02175 3.15409,2.53273 2.25184,7.71321 -1.72475,9.90283 -12.74056,33.34607 -20.16928,42.92314 -4.33865,5.59338 -6.05286,9.27543 -4.90749,10.54115 1.14537,1.26571 2.56612,0.87208 4.06738,-1.12689 1.26894,-1.68963 4.33008,-3.07205 6.80254,-3.07205 3.99834,0 4.36043,0.6056 3.27485,5.47733 -2.20488,9.8948 -3.22466,16.43251 -2.55844,16.40202 0.36034,-0.0165 3.89945,-1.32159 7.86468,-2.90022 8.40903,-3.34776 26.65857,-3.94125 31.58585,-1.02719 2.911,1.72162 4.46264,0.44618 10.56822,-8.68704 18.60585,-27.8321 42.49533,-40.75607 71.52989,-38.69696 25.71996,1.82403 49.38754,21.03768 61.18604,49.6716 l 5.3681,13.02793 23.43095,1.24437 c 25.46981,1.35265 49.61348,5.21516 71.92174,11.50606 16.84942,4.75151 18.83227,3.68604 21.82242,-11.72605 1.41424,-7.28937 2.62604,-9.42554 5.40715,-9.53171 1.97142,-0.0753 5.40768,-0.80731 7.63612,-1.62676 5.83282,-2.14489 18.82921,-3.28873 22.63665,-1.99231 1.79158,0.61002 4.00195,3.27317 4.91194,5.91809 0.90998,2.64493 2.89121,4.80897 4.40271,4.80897 1.51149,0 2.74818,0.76541 2.74818,1.70091 0,0.93551 1.82491,3.98663 4.05536,6.78027 9.27871,11.62161 9.92221,13.33063 9.40455,24.97649 -0.75796,17.05186 -3.86387,34.39105 -7.93824,44.31638 -2.00207,4.87708 -3.65794,11.26822 -3.67971,14.20249 -0.0638,8.60265 -4.62417,12.06183 -14.26988,10.82421 -21.43651,-2.75047 -48.92387,-3.23441 -78.67209,-1.38508 -57.16304,3.55361 -107.70447,11.21738 -119.31054,18.09143 -3.99258,2.36474 -10.16761,3.98191 -15.2046,3.98191 -4.6649,0 -8.9829,0.89629 -9.59557,1.99176 -1.70135,3.04209 -31.53579,2.37045 -41.61369,-0.93681 -4.90816,-1.61071 -14.17991,-6.57348 -20.60392,-11.02836 -19.51236,-13.53135 -26.81323,-16.66502 -40.84783,-17.53271 l -12.94638,-0.80041 -2.27773,8.67594 c -1.46028,5.56228 -2.27763,21.54246 -2.27748,44.52757 2.2e-4,33.1837 0.29485,36.44232 3.95923,43.78918 2.17745,4.36565 3.95899,10.34439 3.95899,13.28612 0,4.30447 1.03901,5.60075 5.32251,6.64042 6.58134,1.59737 14.50368,8.26935 14.50368,12.21456 0,3.76253 -5.29343,15.23972 -7.9116,17.15392 -1.10082,0.80483 -4.02917,1.50555 -6.50744,1.55715 -2.47828,0.0516 -6.08035,1.40979 -8.00461,3.01814 -4.12135,3.44476 -14.12892,3.83176 -19.3431,0.74802 -2.66118,-1.57387 -4.22491,-1.57387 -5.64913,0 -3.11051,3.43732 -7.51413,2.5575 -11.53768,-2.30518 z m 9.79514,-8.2266 c -0.5005,-4.51297 -1.49192,-9.77392 -2.20315,-11.69098 -0.7555,-2.0364 -0.49248,-3.48558 0.6326,-3.48558 1.05916,0 2.78596,3.80924 3.83734,8.46497 2.69878,11.95081 4.15139,14.16937 10.61978,16.21939 13.5035,4.27967 19.97425,-8.2988 7.74175,-15.04913 -8.2498,-4.55254 -9.46717,-6.48817 -3.01156,-4.78839 6.08839,1.60311 13.51785,8.43484 13.51785,12.43029 0,3.66832 6.34754,3.30847 9.84657,-0.55821 3.83489,-4.23783 1.08076,-7.95293 -9.82104,-13.24784 -4.47493,-2.17343 -7.18659,-4.34275 -6.02591,-4.8207 1.16068,-0.47796 6.18699,1.41385 11.16959,4.20401 6.07635,3.40266 9.45939,4.35759 10.27448,2.90018 1.77118,-3.16696 -4.44388,-9.19665 -12.74011,-12.36014 -6.51017,-2.48244 -7.30669,-3.53453 -8.21116,-10.84582 -0.55091,-4.45319 -2.17305,-9.65648 -3.60477,-11.56285 -2.08106,-2.77099 -2.5975,-11.4936 -2.57511,-43.49311 0.0292,-41.63185 1.96902,-56.3602 8.98078,-68.18589 4.03947,-6.81277 5.48254,-4.59582 1.93839,2.97792 -3.93917,8.41791 -3.59904,9.67656 2.354,8.71103 8.81713,-1.43004 24.54759,3.37526 35.61171,10.87855 20.48997,13.8956 25.22441,16.44122 36.53154,19.64234 12.87783,3.64579 24.5541,2.52531 22.91365,-2.19882 -0.54301,-1.56371 -1.95908,-18.36563 -3.14685,-37.3376 -1.91892,-30.65041 -1.81723,-36.56243 0.91251,-53.05065 5.0308,-30.38707 15.00866,-52.77432 32.98827,-74.01563 l 7.95916,-9.40301 -6.5856,-2.4018 c -4.03556,-1.4718 -13.34028,-2.10199 -24.03017,-1.62751 -14.45425,0.64155 -19.17104,1.7077 -27.51598,6.21948 -13.69364,7.40362 -24.96542,18.81905 -34.91823,35.3632 -8.54665,14.20681 -10.97404,16.88196 -8.96212,9.87685 1.32394,-4.60965 -4.56348,-7.96858 -13.9671,-7.96858 -8.36705,0 -26.58602,6.13587 -26.58602,8.95377 0,3.93435 -9.31442,13.12202 -14.45482,14.25812 -3.36639,0.74402 -5.19641,2.84404 -6.39538,7.33895 -1.30533,4.89368 -2.68356,6.29669 -6.18551,6.29669 -3.93185,0 -4.57889,-0.98247 -5.0784,-7.71099 -0.41411,-5.57806 -2.00676,-9.04468 -5.75777,-12.53259 -13.01734,-12.10424 -18.25729,-32.528 -13.55234,-52.82288 3.38706,-14.61012 7.70841,-22.91514 19.32621,-37.14222 9.9769,-12.21765 12.30524,-19.0764 8.06613,-23.76093 -2.32825,-2.57288 -3.72359,-2.74285 -7.38455,-0.89954 -5.7193,2.87969 -15.55553,17.70855 -14.24663,21.47787 0.54406,1.56678 0.26912,2.8487 -0.61099,2.8487 -0.88011,0 -2.79179,-3.79945 -4.24819,-8.44322 -1.48498,-4.7349 -3.97849,-8.72395 -5.67731,-9.08239 -4.04396,-0.85325 -17.63403,12.91431 -20.67717,20.94721 -1.33542,3.52508 -2.42804,9.55797 -2.42804,13.40642 0,5.64516 0.78359,7.18196 4.05535,7.95346 2.23045,0.52595 5.6775,1.33535 7.66012,1.79866 1.98262,0.46331 0.52297,0.94635 -3.24367,1.07343 -9.49235,0.32024 -16.79987,-4.42165 -21.07079,-13.67296 -4.00774,-8.68124 -4.29496,-9.9971 -2.18214,-9.9971 0.79217,0 2.43801,3.04901 3.65743,6.77558 1.21942,3.72657 3.41003,7.86962 4.86803,9.20679 2.22792,2.04328 2.65372,1.51832 2.66851,-3.29 0.0332,-10.77957 8.09879,-26.09482 17.04405,-32.36379 8.51436,-5.967 7.99779,-8.21319 -1.88883,-8.21319 -5.61765,0 -5.54546,-2.36487 0.16148,-5.28994 3.39851,-1.7419 4.49531,-1.7419 4.50595,0 0.008,1.26626 2.00235,3.3211 4.43249,4.56629 3.84144,1.96835 4.77479,1.66296 7.14744,-2.33864 1.50096,-2.53144 4.38455,-5.18328 6.40797,-5.89296 5.69779,-1.99842 2.40675,-4.98706 -5.49167,-4.98706 -4.65256,0 -6.9477,-0.84263 -6.65256,-2.44241 0.58274,-3.15864 -7.47662,-4.53234 -10.03085,-1.70974 -2.55716,2.82585 -4.95841,2.76395 -4.38819,-0.1131 0.24782,-1.25043 -2.34669,-4.12591 -5.76559,-6.38996 -9.07662,-6.01069 -24.39871,-5.17718 -36.28864,1.97407 -8.72366,5.24689 -21.4797,18.62863 -21.4797,22.53331 0,1.03957 2.96317,5.0703 6.58482,8.95717 3.62165,3.88687 5.58694,7.06703 4.36731,7.06703 -1.21964,0 -4.68712,-2.72909 -7.70554,-6.06465 -3.01841,-3.33555 -5.86296,-5.6503 -6.32123,-5.14388 -0.45826,0.50641 -1.26001,4.43713 -1.78165,8.73491 -0.8249,6.79621 -0.29972,8.37807 4.03145,12.14294 6.17766,5.36992 4.69231,7.85185 -1.85981,3.10766 l -4.79979,-3.47538 1.26707,7.79769 c 2.75154,16.93339 9.63441,27.46776 22.79397,34.88666 8.16059,4.60066 24.72751,5.39489 21.44809,1.02825 -1.5962,-2.12539 -1.4371,-3.02303 0.69615,-3.92764 3.48007,-1.47575 10.24884,1.2936 13.39238,5.4793 2.98453,3.974 0.44139,4.06038 -4.24402,0.14414 -8.05832,-6.73541 -8.76727,-1.28815 -0.84727,6.51006 3.4359,3.38307 7.16501,5.25018 9.74095,4.87715 2.29558,-0.33243 4.70464,0.3448 5.35348,1.50496 0.72669,1.29934 -0.82646,2.10937 -4.04449,2.10937 -7.23089,0 -10.54473,7.72656 -6.77182,15.78918 1.45093,3.10059 3.91672,6.17966 5.47954,6.84238 2.89641,1.22824 9.9085,-2.441 9.9085,-5.18485 0,-0.83195 0.82653,-1.51264 1.83672,-1.51264 1.03393,0 1.36664,2.06976 0.7612,4.73545 -1.39401,6.13781 6.88605,22.52037 18.77017,37.1378 l 8.86858,10.90834 4.6218,-5.47734 c 2.54198,-3.01253 5.64046,-5.47733 6.8855,-5.47733 1.24505,0 -1.10828,3.80924 -5.22961,8.46497 -16.60629,18.7596 -21.32218,42.28983 -19.76603,98.62378 1.45868,52.8052 9.73991,94.58894 20.62153,104.04778 6.04649,5.25589 8.29278,3.1509 7.19553,-6.74294 z m 4.86754,-27.07883 c 0.0729,-5.50235 0.74085,-10.00492 1.48434,-10.00568 2.51426,-0.002 2.358,15.61744 -0.18435,18.42691 -0.7879,0.87068 -1.37289,-2.91888 -1.29999,-8.42123 z m 36.38067,-170.98099 c -0.59454,-1.06306 0.12634,-2.44481 1.60192,-3.07054 4.27672,-1.81357 9.89898,-13.62335 9.90631,-20.80866 0.004,-3.88511 0.74666,-6.08542 1.80913,-5.35979 2.59317,1.77106 2.2179,10.26998 -0.72995,16.53092 -3.39168,7.20363 -11.23648,15.12362 -12.58741,12.70807 z m 0.70069,-16.29256 c 0,-1.09547 0.81107,-1.99176 1.80238,-1.99176 0.99131,0 1.80238,0.89629 1.80238,1.99176 0,1.09547 -0.81107,1.99176 -1.80238,1.99176 -0.99131,0 -1.80238,-0.89629 -1.80238,-1.99176 z m -96.42738,-34.47496 c -1.98262,-1.30491 -3.82662,-2.46836 -4.09779,-2.58543 -0.27116,-0.11708 0.0184,-1.68559 0.64343,-3.48558 1.28096,-3.68884 11.56507,-4.63843 11.56507,-1.06786 0,1.21267 -1.2166,1.68895 -2.70357,1.05839 -3.7302,-1.58181 -3.40553,2.6799 0.4506,5.91469 2.52861,2.12117 2.61798,2.63526 0.45059,2.59214 -1.48696,-0.0296 -4.32571,-1.12144 -6.30833,-2.42635 z m 193.65116,136.16836 c 2.2232,-1.55445 2.28832,-5.10827 0.4506,-24.59083 -5.00394,-53.04869 0.0825,-86.2591 18.03055,-117.72501 7.67744,-13.45986 17.93913,-27.46524 19.14628,-26.13127 0.53116,0.58698 -1.04335,3.52269 -3.49893,6.5238 -10.00653,12.22956 -9.96372,11.86683 -2.28538,19.36023 5.41959,5.28907 8.65081,6.86826 14.22239,6.95087 4.17752,0.0619 10.43102,2.14236 14.86964,4.94683 4.21306,2.66195 7.66012,3.95109 7.66012,2.86473 0,-3.42667 -5.57477,-14.35048 -12.74893,-24.9816 -6.05859,-8.97802 -21.01448,-22.60621 -24.80858,-22.60621 -2.73286,0 -18.23336,19.37295 -25.37309,31.71196 -11.99775,20.73474 -16.78047,40.11096 -17.73745,71.85947 -0.74543,24.73069 1.72957,67.52413 4.15629,71.8632 1.29559,2.31659 4.56448,2.29751 7.91649,-0.0462 z m 28.45073,-7.1979 c 3.69481,-2.67529 4.27384,-4.30775 3.37845,-9.52485 -0.59431,-3.46291 -1.59611,-15.80069 -2.22622,-27.4173 -1.49897,-27.63467 0.93682,-39.30114 10.63233,-50.9247 6.91462,-8.28965 7.08931,-8.83234 4.80488,-14.92691 -2.47435,-6.60123 -21.64034,-29.54515 -24.68029,-29.54515 -2.29546,0 -12.48137,25.29655 -15.72196,39.04528 -4.11726,17.46815 -5.1346,42.08885 -2.83693,68.65692 1.17723,13.61235 2.51092,25.9927 2.96373,27.51187 1.08686,3.64642 17.41682,1.66418 23.68601,-2.87516 z m 7.54684,-19.03489 c -4.26707,-30.38252 1.27111,-55.44428 15.154,-68.5761 7.81365,-7.39093 5.5655,-9.46876 -4.20428,-3.88578 -9.25927,5.29124 -14.73786,18.66459 -15.74964,38.44518 -1.07575,21.03093 2.86914,53.14564 6.09093,49.58533 0.42637,-0.47115 -0.15465,-7.47704 -1.29101,-15.56863 z m 83.68408,3.08141 c 24.33299,-2.50544 43.44545,-3.12009 74.53429,-2.39705 45.04293,1.04761 43.80314,1.31172 43.80314,-9.33079 0,-2.50981 1.58386,-8.52012 3.51971,-13.35621 1.93583,-4.83611 4.32795,-13.68887 5.31581,-19.67283 0.98785,-5.98396 2.33818,-13.34988 3.00072,-16.3687 1.52576,-6.9521 -2.06261,-12.62753 -5.81059,-9.19014 -1.3794,1.26508 -2.97516,1.78391 -3.54612,1.15295 -1.82035,-2.01162 1.21294,-5.39574 4.83637,-5.39574 1.92411,0 3.49839,-1.34443 3.49839,-2.98763 0,-3.57056 -3.83751,-3.92551 -6.81901,-0.63073 -1.17306,1.29631 -2.5905,1.85115 -3.14987,1.233 -0.55939,-0.61816 0.23816,-2.51104 1.77233,-4.20641 3.25917,-3.60161 3.5661,-6.58497 0.86711,-8.42832 -1.05728,-0.72208 -3.07726,0.34539 -4.48887,2.37216 -2.35564,3.3822 -2.53092,3.1185 -2.13304,-3.20888 0.32801,-5.21657 -0.33831,-7.0703 -2.73861,-7.61895 -2.32707,-0.5319 -3.47083,0.92551 -4.29345,5.47082 -0.61676,3.40773 -2.78888,7.18207 -4.82696,8.38742 -2.03808,1.20535 -7.61248,6.22996 -12.38757,11.1658 -6.81873,7.04827 -8.24587,9.55494 -6.6499,11.68002 2.60882,3.47371 2.2953,3.44495 -13.25884,-1.21598 -31.34881,-9.39396 -54.68807,-12.55013 -94.53526,-12.78403 l -38.19072,-0.22416 -6.42257,6.86861 c -10.61078,11.34771 -14.06068,24.79194 -13.31494,51.88825 0.34672,12.59787 1.18683,23.8624 1.86692,25.03228 0.86304,1.48454 8.12227,1.07097 24.03187,-1.36913 12.53741,-1.92293 37.52126,-5.01246 55.51966,-6.86563 z m 90.29442,-7.99721 c -3.20154,-2.88269 -3.21826,-3.05183 -0.19707,-1.99176 1.81586,0.63716 4.45184,1.15849 5.85773,1.15849 1.40588,0 2.55616,0.89629 2.55616,1.99175 0,2.99718 -4.27018,2.39513 -8.21682,-1.15848 z m -390.31448,-0.002 c 2.01371,-2.82901 4.18893,-6.98073 4.83381,-9.22608 0.91774,-3.19536 1.50505,-3.48787 2.70281,-1.34623 2.10068,3.7561 4.17568,0.73363 6.98669,-10.17691 1.27007,-4.9296 4.15067,-12.99622 6.40134,-17.92582 l 4.09213,-8.96291 -8.49902,-10.46339 c -4.67446,-5.75485 -11.51069,-16.15417 -15.19161,-23.10959 -5.75633,-10.87707 -7.29639,-12.51866 -11.00872,-11.73444 -8.97471,1.89589 -17.82274,-15.89067 -11.42301,-22.96283 5.12447,-5.66289 -11.72055,-15.95067 -22.29177,-13.61428 -6.01449,1.32928 -11.89389,-2.27163 -23.49029,-14.38694 -6.53863,-6.83122 -6.8067,-6.91965 -10.32119,-3.4049 -1.98451,1.98466 -3.23654,4.27304 -2.78228,5.08527 0.45426,0.81224 -2.29828,2.02886 -6.11675,2.70362 -9.10016,1.60807 -12.23957,5.67255 -9.50476,12.30547 1.12245,2.72236 4.01626,5.94438 6.43068,7.16005 2.49482,1.25616 3.993,3.35315 3.47054,4.85771 -2.06882,5.95771 14.38498,45.57802 26.30911,63.35168 13.48341,20.09786 40.10203,42.9484 43.32258,37.18991 0.92247,-1.6494 1.79262,-0.58028 2.59065,3.18299 3.63868,17.15911 7.25477,20.23598 13.48906,11.47762 z m 389.83182,-67.55553 c 5.88903,-6.02507 11.47217,-10.95467 12.40698,-10.95467 0.9348,0 1.70463,-1.12037 1.71074,-2.4897 0.005,-1.36934 1.25215,-5.11964 2.76898,-8.33401 3.47528,-7.36464 2.23914,-11.08564 -3.68278,-11.08564 -3.10716,0 -5.15451,1.46786 -6.25066,4.48146 l -1.63006,4.48146 -0.11427,-4.48146 c -0.14116,-5.53809 -3.71898,-6.01712 -3.71898,-0.49794 0,2.19094 -0.81107,3.98352 -1.80238,3.98352 -0.99131,0 -1.80238,-1.34444 -1.80238,-2.98764 0,-4.40599 -3.78941,-3.63344 -4.8849,0.99588 -0.99102,4.18781 -4.45439,5.70651 -3.67641,1.61211 0.24783,-1.30427 -0.8569,-2.69062 -2.45495,-3.08077 -2.19515,-0.53593 -3.14932,1.29908 -3.9026,7.50539 -0.5484,4.51812 -2.17658,9.71371 -3.61821,11.54575 -1.44162,1.83204 -2.29151,4.32642 -1.88866,5.54308 0.43149,1.30309 -5.40514,0.23873 -14.20365,-2.59015 -24.24058,-7.79382 -91.35528,-17.38149 -96.59963,-13.79974 -1.15607,0.78955 -1.14832,3.91134 0.0224,9.00802 l 1.79153,7.79973 27.11487,0.25382 c 25.69028,0.24049 66.76196,6.06744 83.37524,11.82866 8.88917,3.08262 9.89527,2.66481 21.03981,-8.73716 z M 283.50355,475.32374 c 0,-7.26915 0.6916,-9.81712 2.70357,-9.96038 5.00549,-0.35642 9.0119,-3.19909 9.0119,-6.39422 0,-2.4678 -0.48063,-2.64175 -2.16285,-0.78278 -6.2468,6.90315 -15.33602,-2.58246 -13.12657,-13.69902 0.95925,-4.82628 0.68142,-6.08517 -1.19248,-5.40348 -3.64005,1.32418 -4.10237,16.3707 -0.68035,22.14212 2.29228,3.86605 2.51396,6.54259 1.11266,13.43459 -1.8544,9.12051 -1.17302,12.52541 2.24631,11.22504 1.20067,-0.45661 2.08781,-4.94451 2.08781,-10.56187 z m 213.58214,8.54867 c 0,-4.28866 -11.67914,-15.44166 -19.14988,-18.2872 -3.84154,-1.46322 -7.19934,-2.42867 -7.46175,-2.14546 -1.38616,1.49601 8.16875,19.1431 11.26672,20.80867 5.45707,2.9339 15.34491,2.69161 15.34491,-0.37601 z m -26.30128,-12.8354 c -6.03954,-11.38852 -20.1179,-28.38636 -23.51083,-28.38636 -4.37009,0 -2.62724,3.5626 5.21829,10.66691 4.22137,3.82254 10.89656,12.45084 14.83375,19.17399 8.17876,13.96601 11.00605,12.77703 3.45879,-1.45454 z m 20.05461,-4.41415 c -6.11406,-7.05221 -15.06866,-12.02166 -21.66222,-12.02166 -7.53131,0 -4.47706,4.30167 4.9279,6.9406 4.60777,1.29288 11.05518,4.64772 14.3276,7.45519 7.62517,6.5418 8.97883,5.20646 2.40672,-2.37413 z m -194.22328,1.91228 c 6.17255,-4.15883 9.89683,-11.81307 9.14284,-18.79064 -0.24405,-2.25842 0.59472,-6.19963 1.86392,-8.75826 2.71699,-5.47728 1.80697,-7.13006 -2.9979,-5.44482 -4.95928,1.7394 -9.34888,14.88383 -6.95245,20.81873 1.56423,3.8739 1.15939,5.19963 -2.54981,8.34991 -2.4251,2.05968 -5.42311,3.7648 -6.66225,3.78916 -1.23913,0.0244 -2.25297,0.94058 -2.25297,2.03604 0,3.10654 3.95819,2.34593 10.40862,-2.00012 z m -19.47785,-2.48133 c -0.0315,-1.36934 -1.24813,-4.22952 -2.70357,-6.35596 -3.1531,-4.60679 -3.38663,-12.114 -0.64699,-20.79867 1.49629,-4.74327 2.80396,-6.05542 5.19793,-5.21577 2.39269,0.8392 3.50455,-0.2736 4.4126,-4.41629 2.45517,-11.20108 26.31932,-44.95396 29.38687,-41.5641 0.61544,0.6801 0.1592,2.29716 -1.01384,3.59346 -1.17305,1.2963 -2.13282,4.36549 -2.13282,6.82041 0,2.45493 -0.82336,5.02583 -1.82969,5.71312 -1.00633,0.6873 -2.99262,4.32536 -4.41398,8.08458 -1.42136,3.75923 -3.33835,6.83496 -4.25998,6.83496 -0.92163,0 -2.68356,2.68887 -3.9154,5.97527 -1.23184,3.2864 -2.95238,5.97528 -3.82342,5.97528 -0.87105,0 -1.58372,2.24073 -1.58372,4.97939 0,2.73867 0.81107,4.9794 1.80238,4.9794 0.99131,0 1.80238,-2.10182 1.80238,-4.6707 0,-2.56888 1.61288,-6.28369 3.58417,-8.25513 8.7471,-8.74776 24.21905,-42.2991 22.1945,-48.12935 -0.51205,-1.47459 -2.01447,-2.68108 -3.33872,-2.68108 -1.32424,0 -5.09005,-1.69341 -8.36847,-3.76314 -3.27842,-2.06973 -8.98265,-4.347 -12.67607,-5.06061 -6.34419,-1.22576 -7.21716,-0.71508 -15.79604,9.24048 -23.09879,26.80552 -27.94912,61.76298 -11.51366,82.9816 6.44218,8.31702 9.74022,10.27925 9.63554,5.73285 z m 15.26219,-42.58124 c 1.47656,-3.4274 3.93147,-6.76036 5.45537,-7.40658 1.52389,-0.64621 2.77072,-2.6302 2.77072,-4.40887 0,-1.77866 1.6335,-5.52878 3.63,-8.33361 6.05129,-8.50127 1.88521,-8.06202 -4.627,0.48785 -6.84593,8.988 -15.23796,26.79084 -15.19786,32.24069 0.0289,3.92707 2.61926,-0.16207 7.96877,-12.57948 z M 166.94676,359.67236 c 2.63208,-10.87505 0.46835,-15.40779 -3.99415,-8.36726 -3.07131,4.84564 -3.62824,9.28726 -1.81813,14.49996 1.83745,5.29145 3.46223,3.57711 5.81228,-6.1327 z M 271.7204,349.6535 c 0.10681,-3.7441 -2.8495,-4.7893 -7.73757,-2.73559 -5.24003,2.20158 -7.43754,8.1809 -5.74517,15.63231 l 1.19413,5.25769 6.11047,-7.89113 c 3.36075,-4.34012 6.14092,-8.9586 6.17814,-10.26328 z m -89.3565,-18.21182 c -1.4893,-0.36652 -3.8298,-0.19062 -5.20109,0.39089 -3.81306,1.61695 -8.32293,10.29249 -7.1325,13.72065 0.81629,2.35073 2.66565,1.15695 8.05058,-5.19669 5.07413,-5.98694 6.24842,-8.43117 4.28301,-8.91485 z"
       id="path4165"
       inkscape:connector-curvature="0" />
  </g>
</svg>
