<?xml version="1.0" encoding="UTF-8" standalone="no"?>
<!-- Created with Inkscape (http://www.inkscape.org/) -->

<svg
   xmlns:dc="http://purl.org/dc/elements/1.1/"
   xmlns:cc="http://creativecommons.org/ns#"
   xmlns:rdf="http://www.w3.org/1999/02/22-rdf-syntax-ns#"
   xmlns:svg="http://www.w3.org/2000/svg"
   xmlns="http://www.w3.org/2000/svg"
   xmlns:sodipodi="http://sodipodi.sourceforge.net/DTD/sodipodi-0.dtd"
   xmlns:inkscape="http://www.inkscape.org/namespaces/inkscape"
   width="210mm"
   height="297mm"
   viewBox="0 0 744.09448819 1052.3622047"
   id="svg4167"
   version="1.1"
   inkscape:version="0.91 r13725"
   sodipodi:docname="start.svg">
  <defs
     id="defs4169" />
  <sodipodi:namedview
     id="base"
     pagecolor="#ffffff"
     bordercolor="#666666"
     borderopacity="1.0"
     inkscape:pageopacity="0.0"
     inkscape:pageshadow="2"
     inkscape:zoom="0.49497475"
     inkscape:cx="796.73158"
     inkscape:cy="545.56369"
     inkscape:document-units="px"
     inkscape:current-layer="layer1"
     showgrid="false"
     inkscape:window-width="1366"
     inkscape:window-height="705"
     inkscape:window-x="-8"
     inkscape:window-y="-8"
     inkscape:window-maximized="1" />
  <metadata
     id="metadata4172">
    <rdf:RDF>
      <cc:Work
         rdf:about="">
        <dc:format>image/svg+xml</dc:format>
        <dc:type
           rdf:resource="http://purl.org/dc/dcmitype/StillImage" />
        <dc:title></dc:title>
      </cc:Work>
    </rdf:RDF>
  </metadata>
  <g
     inkscape:label="Layer 1"
     inkscape:groupmode="layer"
     id="layer1">
    <path
       style="fill:#000000"
       d="m 265.07552,845.88697 -7.2014,-4.13933 0,-4.22804 c 0,-2.32543 0.6582,-13.17783 1.4587,-24.11644 1.9033,-26.00693 4.1332,-66.81307 5.6811,-103.96206 2.5672,-61.61304 1.0481,-247.18392 -2.1118,-257.96706 -0.6577,-2.24441 -1.2399,-2.45515 -9.5514,-3.45765 -15.3012,-1.84558 -39.3014,-2.98625 -81.92061,-3.89347 -50.2213,-1.06903 -67.66543,-2.24531 -89.596972,-6.04165 l -8.66605,-1.50009 -1.44413,-4.14481 c -5.69024,-16.33168 -8.24716,-41.4014 -10.15527,-99.56872 -0.78864,-24.0413 0.0213,-29.77393 5.32486,-37.68861 8.43228,-12.58379 8.93524,-15.83736 3.54853,-22.95514 -4.37778,-5.78463 -4.32418,-4.93532 -2.38881,-37.84418 0.74563,-12.67885 1.1082,-28.34096 0.80569,-34.80469 l -0.55001,-11.75223 12.58558,-8.07819 c 6.92206,-4.443 18.77679,-11.92008 26.343842,-16.61573 l 13.75827,-8.53755 6.79579,1.02143 c 8.4789,1.27439 28.6312,1.30365 43.66201,0.0634 19.54358,-1.61263 35.76258,-1.33351 52.64508,0.90601 17.7786,2.35841 31.2576,2.26517 36.5029,-0.25245 1.7749,-0.85196 5.7845,-3.99355 8.9101,-6.98132 10.1134,-9.66728 19.2242,-12.19729 43.4877,-12.0763 35.3184,0.17612 60.8993,2.64777 71.8696,6.94411 3.0601,1.19846 3.3639,1.68125 3.7281,5.92458 0.2181,2.54089 1.0655,6.95746 1.8832,9.81461 0.8177,2.85715 1.4867,5.90728 1.4867,6.77806 0,4.21236 19.2712,4.44762 33.217,0.4055 l 7.8878,-2.28622 8.0527,3.58051 c 4.7738,2.12263 9.823,5.22217 12.4004,7.61232 l 4.3477,4.03179 4.4012,-3.69221 c 4.9199,-4.12738 5.3197,-4.15473 19.5872,-1.33994 3.8242,0.75447 16.3398,2.637 27.8125,4.18342 38.1021,5.13582 54.7795,8.89274 63.978,14.41229 6.7522,4.05163 11.2933,5.79167 23.7241,9.0905 6.1697,1.63729 13.1879,4.16466 15.5961,5.61638 7.2669,4.38073 16.1565,16.7097 50.4888,70.02257 9.017,14.00206 18.178,27.95627 20.3578,31.00936 3.8215,5.35249 5.4828,9.85836 9.5119,25.79798 0.8798,3.48047 1.5984,8.25002 1.597,10.59899 0,3.90979 -0.4956,4.78876 -5.8337,10.39621 -12.1544,12.76759 -24.4985,22.39641 -35.7359,27.87524 -3.4492,1.6817 -8.3247,5.57788 -13.9062,11.11297 -4.7272,4.68786 -16.1936,14.29027 -25.481,21.3387 -9.2874,7.04844 -21.5795,17.40563 -27.3159,23.01599 -5.7363,5.61036 -12.0399,10.9513 -14.0079,11.86875 -5.5865,2.60424 -14.3006,3.43647 -41.6171,3.97459 -13.9311,0.27442 -36.9509,1.10384 -51.1551,1.84313 -33.2132,1.72865 -62.5131,1.73466 -75.8016,0.0155 -13.4193,-1.73604 -28.1226,-2.65234 -31.2172,-1.94544 l -2.4677,0.56366 -0.6563,18.32039 c -0.8514,23.76704 -1.3955,36.99911 -2.6119,63.52127 -2.7105,59.09975 -3.0391,75.21738 -3.0128,147.80692 0.031,85.58648 -1.4168,134.56469 -4.4824,151.65179 -0.6342,3.53491 -4.5108,5.60909 -15.5117,8.29966 -11.5254,2.81887 -21.3852,3.68108 -47.4694,4.1511 l -24.3695,0.43912 -7.2014,-4.13933 z m 17.5729,-12.22056 c 5.5452,-11.73152 6.4465,-32.09603 2.8971,-65.46415 -1.7331,-16.29357 -2.1247,-26.26102 -2.1664,-55.14509 -0.052,-36.16749 0.5873,-49.76627 4.8464,-103.05803 3.1652,-39.60391 4.1155,-52.82112 5.4272,-75.48549 1.1716,-20.2437 1.4821,-76.6196 0.4495,-81.62886 -0.5988,-2.90523 -0.9619,-3.16453 -5.1652,-3.68887 -6.9756,-0.87017 -8.9282,-0.69154 -10.7707,0.98534 -1.5524,1.41288 -1.6442,3.50262 -1.0423,23.73047 0.9861,33.14356 1.5323,45.14429 3.2341,71.05235 1.662,25.30295 1.4056,52.4169 -0.6192,65.48707 -0.8428,5.4396 -1.0096,16.39828 -0.5712,37.51674 1.1404,54.94327 -2.4268,150.28396 -6.5325,174.59171 -1.2479,7.38811 -0.1296,12.08544 3.4154,14.34522 3.346,2.13296 4.2743,1.67732 6.5978,-3.23841 z m 33.8306,1.41948 c 24.2433,-0.0597 28.716,-0.67512 28.8751,-3.97349 0.038,-0.79031 0.5022,-6.11521 1.0312,-11.83313 0.529,-5.71791 1.3509,-60.23019 1.8264,-121.13839 0.7497,-96.03112 1.1433,-114.8853 2.9632,-141.93081 1.1542,-17.15373 2.378,-47.91041 2.7194,-68.34817 l 0.6207,-37.15955 -2.3801,-0.52248 c -1.3091,-0.28737 -13.1079,-0.63226 -26.2195,-0.76642 l -23.8393,-0.24394 -0.2055,5.83334 c -1.0764,30.55742 -2.7365,62.43949 -4.3047,82.67486 -2.0432,26.36501 -2.4189,34.10521 -3.9924,82.26562 -0.5686,17.40235 -1.2218,32.25084 -1.4517,32.99666 -0.2298,0.74581 -0.8938,15.28053 -1.4755,32.29936 -0.8763,25.63627 -0.7769,37.26486 0.579,67.80134 1.5757,35.48455 1.4267,62.00386 -0.4346,77.34196 -0.6525,5.37756 -0.5541,6.04703 0.8008,5.44597 0.8497,-0.37692 12.049,-0.71114 24.8875,-0.74273 z m -7.4266,-37.43669 c -0.3341,-0.95792 0.085,-3.24929 0.9306,-5.09192 2.4836,-5.40958 2.8756,-16.70778 1.1588,-33.3952 -2.1948,-21.33494 -3.5811,-40.23478 -3.5927,-48.98204 -0.01,-6.69689 0.1853,-7.45361 2.0516,-7.99271 1.1338,-0.3275 2.1678,-0.45661 2.2978,-0.28692 0.3024,0.3948 3.4586,35.28461 4.6893,51.83757 1.2276,16.51071 0.024,31.87969 -3.3083,42.26283 -1.1727,3.65355 -3.2459,4.462 -4.2271,1.64839 z m 23.266,-25.54639 c -1.1662,-3.92823 -0.084,-20.80082 1.4216,-22.17137 0.3662,-0.33327 1.3903,0.0535 2.2759,0.85949 1.2875,1.1718 1.5826,3.24415 1.4725,10.3424 -0.1467,9.45139 -1.0424,13.9691 -2.8802,14.52665 -0.6306,0.1913 -1.6447,-1.38409 -2.2898,-3.55717 z m -0.6142,-75.39753 c -0.3329,-0.78959 -0.058,-2.92533 0.6108,-4.74609 0.8522,-2.31996 1.3692,-15.34751 1.7279,-43.53929 0.2815,-22.12584 0.8801,-40.58383 1.3302,-41.01776 0.4539,-0.43751 2.0203,0.30484 3.5164,1.66646 2.6387,2.40155 2.68,2.60726 1.8836,9.37713 -0.4479,3.80694 -0.8951,19.32936 -0.9938,34.49426 -0.1777,27.29323 -0.9694,35.72559 -3.9676,42.25633 -1.4609,3.1821 -3.1417,3.79956 -4.1075,1.50896 z m -23.1972,-32.69108 c -4.1422,-4.77561 -1.1652,-15.5943 4.2911,-15.5943 1.817,0 1.9086,0.37072 1.1715,4.74609 -0.4397,2.61035 -0.8372,6.67843 -0.8833,9.04018 -0.097,4.95686 -1.4013,5.47191 -4.5793,1.80803 z m 16.3033,-60.34319 c -0.4849,-2.98326 -0.822,-27.36241 -0.7493,-54.17591 0.1248,-46.03887 0.2328,-48.81881 1.9416,-49.95595 1.5103,-1.00511 1.9342,-1.00114 2.5646,0.024 1.0251,1.66715 1.1739,17.33898 0.6063,63.87904 -0.3948,32.3791 -0.7446,39.88362 -1.9806,42.48884 l -1.5012,3.16406 -0.8814,-5.42411 z m 16.5013,-83.80093 c 0,-2.73878 -0.2872,-7.48013 -0.6382,-10.53632 -0.6364,-5.54179 -0.6311,-5.55672 1.9677,-5.55672 1.9799,0 2.7297,0.5429 3.1214,2.26004 0.2836,1.24303 0.7405,3.25119 1.0153,4.46259 0.7554,3.32928 -1.3647,10.97181 -3.5408,12.76413 -1.8829,1.55085 -1.9254,1.47588 -1.9254,-3.39372 z m 137.0759,-76.61546 c 12.2921,-0.52486 35.7589,-1.19399 52.1484,-1.48693 37.312,-0.66693 34.6385,0.21003 53.9328,-17.69069 27.6396,-25.64326 54.186,-46.77053 75.8705,-60.38248 8.5205,-5.34853 10.8704,-7.35692 13.9097,-11.88815 8.6936,-12.96099 6.5449,-23.87889 -8.6,-43.69793 -2.3012,-3.01146 -8.21,-11.7809 -13.1307,-19.48765 -9.3146,-14.58863 -13.2364,-20.4137 -29.3126,-43.53796 -5.3023,-7.62695 -11.3465,-16.71483 -13.4315,-20.1953 -4.2906,-7.16231 -3.9899,-6.98244 -23.5071,-14.0627 -26.6023,-9.65052 -55.155,-16.83521 -86.0268,-21.64687 -24.8185,-3.86818 -23.7129,-3.99425 -31.7187,3.61693 -9.2939,8.83574 -12.4863,8.42559 -20.0258,-2.57283 -6.6316,-9.67389 -8.3452,-10.98743 -14.3343,-10.98743 -2.8135,0 -9.5465,0.60781 -14.962,1.35069 -11.5868,1.58942 -26.0986,1.75584 -31.6992,0.36352 -2.1853,-0.54326 -5.4261,-1.98565 -7.2018,-3.20529 -8.0334,-5.51762 -18.4113,-6.44544 -38.4902,-3.44114 -6.0094,0.89917 -14.9492,1.64034 -19.866,1.64705 -8.0517,0.0109 -9.8336,-0.32107 -17.937,-3.34255 -15.5032,-5.78054 -18.9439,-5.92191 -43.1063,-1.77109 -14.7894,2.54066 -17.955,2.48769 -39.1156,-0.65457 -14.6373,-2.17357 -25.565,-2.26514 -41.0877,-0.34429 -7.35702,0.91039 -19.85981,1.49952 -33.57488,1.58203 -21.19579,0.12753 -22.00025,0.19942 -26.76223,2.39153 -2.70024,1.24302 -5.35668,2.93849 -5.9032,3.76771 -0.68508,1.03949 -0.24048,8.33849 1.43174,23.50446 1.59893,14.50135 2.4258,27.6184 2.42664,38.49441 l 9.9e-4,16.49763 3.47656,0.53721 c 1.91211,0.29546 5.67188,1.0077 8.35504,1.58273 l 4.87847,1.04554 2.78232,8.93705 c 1.95293,6.27293 2.50308,9.41193 1.84553,10.53013 -0.51524,0.8762 -3.73911,3.20971 -7.16415,5.18557 -10.11817,5.83705 -9.72998,5.00618 -11.80946,25.27621 -2.61181,25.45906 -3.40011,56.87022 -1.9337,77.05182 1.31484,18.09571 4.28701,38.66152 6.01106,41.59337 1.06157,1.80526 1.86117,1.83326 52.44657,1.83631 50.5894,0.003 65.7949,0.58753 82.8528,3.18487 10.991,1.67354 14.9368,3.40465 17.6036,7.72295 1.4946,2.42033 2.9236,3.53665 4.8268,3.77073 6.0173,0.74014 175.1257,-0.18749 195.9011,-1.0746 z m -80.4576,-59.94619 c -6.2827,-1.47543 -11.5549,-2.79046 -11.7161,-2.9223 -0.7409,-0.60593 -4.2944,-15.82084 -4.9428,-21.16356 l -0.7239,-5.96451 -3.9732,-0.452 c -2.1853,-0.24861 -5.5956,-0.31225 -7.5785,-0.14144 l -3.6053,0.31058 -6.1033,12.951 c -3.3568,7.12305 -6.5699,14.16932 -7.1402,15.65838 l -1.037,2.70737 -11.6038,-0.42948 c -14.7865,-0.54728 -16.4471,-0.85015 -15.5917,-2.84371 2.2058,-5.14015 41.2368,-131.57759 41.2368,-133.58287 0,-1.23649 19.3178,0.24855 23.4984,1.80642 l 4.129,1.53864 1.1889,7.8457 c 3.6055,23.79205 18.002,95.51903 20.6267,102.76758 1.5405,4.25411 2.2902,-10.56183 2.7678,-54.69309 0.277,-25.6063 0.7211,-47.47598 0.9869,-48.59927 1.2488,-5.27896 15.2015,-10.33527 23.1467,-8.38814 4.2605,1.0441 9.0797,5.37943 9.0797,8.16798 0,1.15047 1.0001,1.85923 3.2282,2.28787 5.5933,1.07599 14.8978,6.12606 20.2487,10.99008 11.7441,10.67548 17.6759,30.0313 14.2479,46.49231 -0.8826,4.23789 -1.724,5.46611 -6.487,9.46935 -3.1122,2.61575 -5.2794,5.15035 -5.0242,5.87611 0.2467,0.70195 2.4729,6.97157 4.9469,13.93251 4.4348,12.4775 6.585,20.94467 6.585,25.93054 0,2.31163 -0.3231,2.54602 -3.5096,2.54602 -1.9302,0 -5.7148,1.01702 -8.41,2.26005 -5.9006,2.72129 -9.8134,2.86499 -13.1412,0.48264 -3.3001,-2.36251 -4.3918,-5.11769 -6.212,-15.67826 -2.1426,-12.43009 -3.3603,-14.77154 -7.9349,-15.25761 -5.3969,-0.57343 -6.5725,2.14123 -7.4951,17.30835 -0.8591,14.12244 -1.8842,16.94695 -6.4327,17.72355 -3.5485,0.60585 -10.7279,-0.86265 -14.241,-2.91292 -3.1021,-1.81037 -4.6526,-1.0976 -7.0966,3.2623 -1.1284,2.01307 -2.6013,3.60079 -3.2731,3.52827 -0.6718,-0.0725 -6.3618,-1.33902 -12.6444,-2.81444 z m -47.6916,-13.77804 c 1.7745,-4.9721 4.6779,-11.92768 6.4518,-15.45684 3.6567,-7.27471 4.3472,-7.59676 16.283,-7.59422 8.7931,0.002 13.2434,1.99728 14.1105,6.32673 0.3485,1.74023 1.4503,7.37569 2.4484,12.52324 1.2991,6.69949 2.2562,9.47862 3.3681,9.77946 0.8543,0.23117 3.4649,1.20634 5.8013,2.16706 2.3365,0.96071 5.4111,1.74675 6.8325,1.74675 l 2.5843,0 -0.704,-11.07422 c -1.2361,-19.44356 -2.8141,-28.95352 -11.4382,-68.93136 -3.2178,-14.91629 -6.4003,-30.98521 -7.0722,-35.7087 -0.672,-4.7235 -1.7096,-8.88705 -2.306,-9.25235 -1.3338,-0.81705 -6.7827,-0.87573 -12.706,-0.13683 l -4.4492,0.55502 -5.0894,14.13527 c -4.4182,12.27133 -10.5765,31.2071 -15.6222,48.03594 -3.2775,10.93159 -17.3524,60.60871 -17.3524,61.24503 0,0.3741 3.5174,0.68019 7.8165,0.68019 l 7.8166,0 3.2266,-9.04017 z m 25.3423,-47.15064 c -1.639,-0.17754 -4.5769,-0.72153 -6.5288,-1.20886 l -3.5489,-0.88606 0.8086,-5.66182 c 1.0805,-7.56538 1.1574,-7.8879 2.7483,-11.53794 2.9389,-6.74259 7.8201,-8.97148 12.7562,-5.82486 1.9383,1.23562 2.2076,2.21198 2.2076,8.00356 0,3.62795 -0.2871,9.09678 -0.6381,12.15298 -0.693,6.03451 -0.2885,5.77725 -7.8049,4.963 z m 1.2913,-6.81923 c 1.5926,-1.44952 1.5182,-7.20369 -0.1196,-9.2422 -1.1956,-1.48809 -1.4591,-1.28089 -2.9799,2.34349 -2.2103,5.26723 -2.1696,7.98353 0.1195,7.98353 0.9834,0 2.3244,-0.48817 2.98,-1.08482 z m 57.7112,53.74386 c 0.6175,-3.85337 1.188,-11.56482 1.2678,-17.13655 l 0.1451,-10.13042 3.068,-0.62462 c 4.4525,-0.90653 13.5651,-0.67291 16.6866,0.42779 2.1603,0.76176 3.0075,1.98373 4.287,6.18343 0.877,2.87873 2.964,9.60724 4.6378,14.95225 l 3.0432,9.71819 3.4131,0 c 4.7559,0 6.9128,-1.28711 8.2262,-4.90885 1.4591,-4.0239 0.7765,-7.11373 -5.0992,-23.08182 -2.646,-7.1909 -4.8109,-13.63769 -4.8109,-14.32619 0,-0.68849 2.1742,-3.03092 4.8316,-5.20538 7.0101,-5.73617 9.4737,-11.35375 9.488,-21.63513 0.016,-11.17377 -2.1424,-15.80658 -12.3055,-26.41789 -9.4276,-9.84352 -14.5515,-12.8834 -22.8731,-13.57014 -5.499,-0.45381 -5.9602,-0.66166 -5.9602,-2.6858 0,-6.05956 -4.6777,-7.26909 -13.5584,-3.50583 l -5.1152,2.16763 -0.5982,8.44575 c -0.3289,4.64516 -0.709,30.46828 -0.8445,57.38471 l -0.2465,48.93896 3.4766,0.89378 c 7.4921,1.92614 7.6006,1.85388 8.8407,-5.88387 z m 3.6889,-58.18549 c -1.1343,-3.34415 -2.6222,-20.09839 -2.037,-22.9373 0.8114,-3.93628 3.6479,-5.88893 8.5544,-5.88893 9.0979,0 12.9364,4.63858 13.5531,16.37788 l 0.4146,7.89145 -5.1618,2.38056 c -6.2129,2.86535 -14.6816,4.06813 -15.3233,2.17634 z m 10.7793,-5.94121 c 2.9909,-1.29806 3.5103,-1.97347 3.5103,-4.56498 0,-5.34263 -5.005,-11.7115 -8.2994,-10.56096 -1.1049,0.38585 -1.6309,1.63652 -1.625,3.86387 0.014,5.4608 1.2074,12.78553 2.0826,12.78553 0.4517,0 2.4009,-0.68556 4.3315,-1.52346 z m -163.613,76.80185 c -7.5194,-1.30564 -7.6981,-1.39829 -7.6981,-3.98942 0,-3.95375 4.9027,-90.99785 5.7621,-102.30231 0.4085,-5.37291 0.4992,-10.12746 0.2016,-10.56566 -1.262,-1.85846 -6.6173,-2.79808 -12.6154,-2.21348 -3.4244,0.33376 -7.7316,0.3498 -9.5716,0.0356 l -3.3454,-0.57119 -0.6325,-8.34659 c -0.3478,-4.59062 -0.9157,-10.41851 -1.2619,-12.95086 l -0.6294,-4.60427 4,-1.45664 c 11.4826,-4.18143 30.1728,-4.25047 59.8112,-0.22093 9.5606,1.29982 18.3205,2.54421 19.4665,2.76532 1.8935,0.3653 2.1382,1.21537 2.68,9.3096 0.5852,8.74145 -0.5693,20.66791 -2.1388,22.0964 -0.4376,0.39825 -5.0066,0.10865 -10.1533,-0.64355 -11.1984,-1.63665 -14.8798,-1.04454 -15.9401,2.56374 -1.7287,5.88278 -2.8546,27.01424 -2.8622,53.7194 -0.01,30.58151 -0.8148,40.7847 -4.1027,51.93179 l -2.0666,7.00614 -5.6027,-0.11323 c -3.0814,-0.0622 -9.0668,-0.71471 -13.3007,-1.44988 z m 16.8162,-10.64111 c 2.0973,-11.3276 3.2441,-30.13521 3.831,-62.82924 0.6329,-35.25797 1.3082,-43.99143 3.4995,-45.25325 1.9843,-1.1427 16.4965,-1.05062 21.186,0.13442 3.0414,0.76857 4.0569,0.71947 4.7783,-0.23104 1.3979,-1.8421 0.278,-19.81721 -1.2896,-20.69897 -1.84,-1.03497 -16.4693,-3.36494 -28.707,-4.57208 -10.4069,-1.02654 -36.6255,-0.6426 -40.0139,0.58596 -1.5645,0.56724 -1.7388,1.71356 -1.49,9.80017 l 0.2818,9.15778 10.4296,0.45201 c 6.0116,0.26053 11.4247,0.96769 12.7786,1.66933 2.3343,1.20978 2.3448,1.28838 1.686,12.65625 -0.3646,6.29142 -1.5826,23.03296 -2.7066,37.20344 -1.124,14.17048 -2.1062,34.89528 -2.1826,46.05511 l -0.139,20.2906 4.4699,1.11199 c 2.4584,0.6116 6.2578,1.04082 8.4431,0.95382 l 3.9732,-0.15817 1.1717,-6.32813 z m 219.3417,4.54859 c -3.8242,-0.64039 -8.6651,-1.91498 -10.7575,-2.83241 -3.6614,-1.60533 -3.7838,-1.80493 -3.2551,-5.30818 2.4626,-16.31789 3.986,-38.02814 4.0297,-57.4292 0.027,-12.18164 -0.2825,-23.22597 -0.6888,-24.54294 -0.8379,-2.71628 -4.841,-3.85071 -17.1408,-4.85755 -12.5807,-1.02983 -11.4314,0.50912 -11.3669,-15.2204 0.033,-8.0959 0.5404,-14.98095 1.2416,-16.85233 l 1.1856,-3.16406 9.8135,-0.26016 c 19.1695,-0.50817 42.9839,4.02941 66.6025,12.69037 l 10.858,3.98164 -0.1897,5.80635 c -0.1043,3.1935 -0.46,8.74309 -0.7905,12.33244 -0.5169,5.6153 -0.8965,6.61152 -2.7199,7.13822 -1.9209,0.55489 -12.1877,0.61722 -16.9543,0.10294 -1.4868,-0.16043 -2.2152,0.70796 -3.2389,3.8611 -3.7289,11.48582 -6.2009,34.90285 -6.2509,59.21317 -0.03,14.7964 -0.7556,17.78627 -5.5515,22.88553 -3.9275,4.17593 -4.2415,4.22794 -14.8261,2.45547 z m 9.9148,-7.98553 c 3.2019,-6.97439 4.8368,-19.34768 6.5028,-49.21549 0.9854,-17.66637 2.1789,-27.69683 4.0486,-34.0257 l 1.0365,-3.50847 6.1348,0.58638 c 3.3741,0.32251 7.8038,0.82635 9.8437,1.11963 3.2524,0.46764 3.8187,0.27018 4.6019,-1.60457 0.4912,-1.1758 1.0572,-5.53989 1.2577,-9.69796 l 0.3646,-7.56013 -17.3753,-4.86864 c -20.1664,-5.65075 -32.6839,-8.22608 -45.2029,-9.29996 -10.152,-0.87084 -11.431,-0.28807 -13.3793,6.09591 -1.1007,3.60673 -1.3496,13.87138 -0.4134,17.04859 0.7187,2.43928 7.174,3.89749 17.2535,3.89749 3.7618,0 7.9862,0.39673 9.3875,0.88164 l 2.5479,0.88164 -0.01,12.00061 c -0.012,15.43691 -1.7361,49.55219 -3.0048,59.46155 -0.5411,4.22629 -1.2597,9.97431 -1.597,12.7734 l -0.6133,5.08924 3.3573,0.96249 c 3.9178,1.12321 7.2256,1.67247 11.106,1.84417 2.2657,0.10026 3.0367,-0.4311 4.1526,-2.86182 z m -362.56677,2.75893 c -0.88224,-6.91474 -1.01813,-23.98266 -0.19689,-24.73009 0.32857,-0.29903 4.17764,-1.10915 8.55346,-1.80026 27.7188,-4.37782 41.1915,-19.28929 34.2295,-37.88487 -2.3439,-6.26059 -7.9419,-10.83079 -21.588,-17.6244 -19.80855,-9.86151 -22.25646,-12.957 -20.45761,-25.86954 2.80835,-20.15905 18.05901,-36.08669 38.81661,-40.53981 12.2647,-2.63111 23.6655,-1.37943 36.3423,3.98998 7.1841,3.04292 9.2573,5.86118 9.2573,12.58413 0,6.19335 -2.8808,9.10199 -12.6805,12.80326 -4.2252,1.59583 -8.8958,3.68267 -10.379,4.6374 -4.929,3.17286 -5.4643,10.98828 -1.0582,15.45003 0.9726,0.98489 4.615,3.64324 8.0943,5.90744 10.378,6.75361 15.1925,14.66711 17.0543,28.03165 2.2392,16.07319 -4.8502,41.37069 -15.5412,55.45716 -5.9942,7.89788 -34.2069,15.22638 -58.6483,15.2344 l -11.07719,0.004 -0.72088,-5.65011 z m 41.53007,-1.96353 c 19.9262,-3.48074 30.3634,-12.66886 36.0221,-31.71114 2.2412,-7.54208 3.0043,-25.00754 1.4713,-33.67435 -2.4674,-13.94909 -5.1927,-17.86868 -17.721,-25.48691 -8.3612,-5.08427 -10.3342,-8.034 -9.8611,-14.74312 0.4836,-6.86 3.3815,-9.66556 15.2521,-14.76626 l 9.0527,-3.88987 0.6949,-4.76706 c 0.7811,-5.35905 0.5939,-5.59479 -7.4104,-9.33462 -9.7707,-4.56513 -24.8777,-5.20255 -35.5807,-1.50127 -16.1665,5.59061 -25.6945,18.58023 -26.7193,36.42681 l -0.5008,8.72094 4.8461,3.21845 c 2.6653,1.77015 8.83,5.16827 13.6993,7.55139 10.5689,5.17263 19.4638,12.32048 22.599,18.16036 1.834,3.41621 2.2869,5.77673 2.3017,11.99823 0.016,6.85669 -0.3267,8.36061 -2.9892,13.10826 -5.3295,9.5032 -17.8311,16.39366 -33.8578,18.66132 -5.7673,0.81603 -7.4436,1.40442 -7.9238,2.78146 -0.33497,0.96057 -0.28664,6.23808 0.1074,11.72779 l 0.7164,9.98128 14.0363,-0.55583 c 7.7199,-0.3057 17.5141,-1.16334 21.7648,-1.90586 z m 359.6944,-9.92431 c -2.6093,-2.37474 -3.3772,-3.82531 -3.3772,-6.37923 l 0,-3.30557 3.0679,1.63313 c 3.4137,1.81728 4.8349,3.77677 5.9226,8.166 0.9895,3.99323 -1.1479,3.94969 -5.6133,-0.11433 z m 14.739,-11.53678 c -2.329,-2.11965 -1.4316,-3.60216 1.9982,-3.30119 2.4623,0.21607 3.2282,0.71228 3.2282,2.09132 0,2.12174 -3.3678,2.90137 -5.2264,1.20987 z m -409.2295,-144.1726 c -1.5773,-0.60314 -1.6055,-3.24739 -0.05,-4.66339 1.5962,-1.45272 6.2422,-1.37984 7.6093,0.11937 2.172,2.38183 -3.8103,5.9777 -7.5596,4.54402 z m -1.2416,-11.5276 c 0,-2.51835 1.5274,-3.26276 5.3354,-2.60026 1.8677,0.32494 2.5517,0.88828 2.172,1.78887 -0.3049,0.723 -0.5543,1.68809 -0.5543,2.14463 0,0.45654 -1.5644,0.83008 -3.4766,0.83008 -3.0046,0 -3.4765,-0.29363 -3.4765,-2.16332 z m -57.61164,237.87252 c 0,-1.12613 -0.75476,-9.36399 -1.67725,-18.30636 -2.48057,-24.04588 -2.53765,-98.44174 -0.0849,-110.72873 2.98843,-14.97085 3.66469,-16.39747 8.46293,-17.85311 4.61117,-1.39889 9.59558,-6.05036 8.87901,-8.28592 -0.25271,-0.78844 -1.06046,-3.46756 -1.79499,-5.9536 -0.73451,-2.48605 -1.72574,-4.77429 -2.20273,-5.08496 -0.47697,-0.31067 -3.32505,-0.82776 -6.32906,-1.14909 -9.20743,-0.98488 -8.81579,-0.26693 -9.01724,-16.53019 -0.0974,-7.86527 -0.45239,-19.589 -0.78879,-26.05273 -0.55751,-10.71199 -0.84307,-12.06337 -3.22604,-15.26727 -2.25254,-3.02851 -2.68564,-4.74303 -3.12913,-12.38712 -0.2831,-4.87966 -0.96171,-9.26148 -1.50803,-9.73739 -1.49283,-1.30043 -10.986942,2.49651 -15.510802,6.20316 -3.10297,2.54244 -4.18132,4.31852 -5.48874,9.04018 -1.42561,5.14845 -1.48675,7.61135 -0.49377,19.8884 1.40511,17.3725 1.40426,26.50358 -0.003,31.18861 -2.65507,8.83981 -2.3381,11.18231 2.68606,19.85098 3.87661,6.68871 4.69105,8.92229 4.69105,12.86515 0,4.31044 -0.58047,5.58018 -6.01087,13.14807 -3.30599,4.60728 -6.36261,9.8007 -6.79248,11.54094 -1.0233,4.14248 -0.59924,46.8491 0.65977,66.44531 1.13194,17.61843 3.2438,34.55063 5.69404,45.6529 l 1.69588,7.68415 8.93973,2.04272 c 4.91686,1.12349 11.621662,2.39541 14.899562,2.82648 3.2779,0.43106 6.29506,0.83397 6.7048,0.89534 0.40973,0.0614 0.74497,-0.8098 0.74497,-1.93592 z M 88.019178,369.07838 c -3.44305,-3.13356 -2.54149,-3.92436 3.71152,-3.25551 6.63875,0.71013 7.96367,1.5408 5.71777,3.58483 -2.22569,2.02563 -7.02596,1.85798 -9.42929,-0.32932 z m 5.7115,-59.35704 c -0.95606,-0.24239 -1.73829,-1.17831 -1.73829,-2.07982 0,-1.25029 1.06339,-1.78423 4.48286,-2.25092 6.715142,-0.91649 10.337652,0.55853 7.188462,2.92699 -1.52624,1.14786 -7.572232,2.00229 -9.933032,1.40375 z m -1.73829,-70.36953 c 0,-2.03404 0.39733,-2.26004 3.97322,-2.26004 2.59787,0 3.97321,0.40681 3.97321,1.17522 0,1.92197 -2.19724,3.34487 -5.16518,3.34487 -2.30446,0 -2.78125,-0.38744 -2.78125,-2.26005 z M 371.90272,160.92299 c -0.6709,-9.51404 -1.5597,-10.61974 -8.5251,-10.6046 -8.9892,0.0195 -9.995,0.48892 -10.3426,4.82679 -0.2448,3.05522 -0.6681,3.74904 -2.287,3.74904 -1.5443,0 -1.9875,-0.60383 -1.9904,-2.71205 -0.01,-4.11341 -1.1134,-4.9721 -6.4132,-4.9721 -4.444,0 -4.9658,0.24064 -6.861,3.16407 -2.7101,4.18043 -4.6852,4.06929 -5.4541,-0.30692 -0.562,-3.19874 -0.8641,-3.47213 -3.8518,-3.48587 -1.7831,-0.008 -6.9297,-0.33539 -11.4368,-0.72709 l -8.1947,-0.71217 0,8.70261 0,8.70263 25.0809,0.25776 c 13.7945,0.14177 28.6038,0.35216 32.9096,0.46754 l 7.8287,0.20976 -0.4625,-6.5594 z m -71.7767,3.74276 c 0.3668,-1.05194 0.3614,-4.50944 -0.012,-7.68333 -0.6478,-5.50462 -0.7899,-5.74991 -3.0834,-5.31952 -1.3223,0.24816 -3.6335,0.67846 -5.1358,0.95624 -5.3517,0.98948 -11.1129,4.16266 -13.2372,7.29079 -1.1755,1.73112 -1.9746,3.27217 -1.7757,3.42458 0.4737,0.36294 17.6055,2.99471 20.4091,3.13521 1.3988,0.0702 2.4046,-0.56991 2.835,-1.80397 z"
       id="path4726"
       inkscape:connector-curvature="0" />
  </g>
</svg>
